<?xml version="1.0" encoding="iso-8859-1"?>
<!-- Generator: Adobe Illustrator 16.0.4, SVG Export Plug-In . SVG Version: 6.00 Build 0)  -->
<!DOCTYPE svg PUBLIC "-//W3C//DTD SVG 1.1//EN" "http://www.w3.org/Graphics/SVG/1.1/DTD/svg11.dtd">
<svg version="1.1" id="collect-svg" xmlns="http://www.w3.org/2000/svg" xmlns:xlink="http://www.w3.org/1999/xlink" x="0px" y="0px"
	 width="30px" height="30px" viewBox="0 0 30 30" style="enable-background:new 0 0 30 30;" xml:space="preserve">
<g>
	<path style="fill:#EDEDED;" d="M15.042,28.959C7.345,28.959,1.083,22.697,1.083,15S7.345,1.042,15.042,1.042
		C22.738,1.042,29,7.304,29,15S22.738,28.959,15.042,28.959z"/>
	<path style="fill:#3C3C3B;" d="M15.042,2.042C22.188,2.042,28,7.855,28,15c0,7.145-5.812,12.958-12.958,12.958
		S2.083,22.146,2.083,15C2.083,7.855,7.896,2.042,15.042,2.042 M15.042,0.042C6.78,0.042,0.083,6.739,0.083,15
		c0,8.261,6.697,14.958,14.958,14.958C23.303,29.959,30,23.262,30,15C30,6.739,23.303,0.042,15.042,0.042L15.042,0.042z"/>
</g>
<line style="fill:#EDEDED;stroke:#008D36;stroke-width:3;stroke-miterlimit:10;" x1="15" y1="8.494" x2="15" y2="21.507"/>
<line style="fill:#EDEDED;stroke:#008D36;stroke-width:3;stroke-miterlimit:10;" x1="21.548" y1="15" x2="8.535" y2="15"/>
</svg>
