<?xml version="1.0" encoding="iso-8859-1"?>
<!-- Generator: Adobe Illustrator 16.0.4, SVG Export Plug-In . SVG Version: 6.00 Build 0)  -->
<!DOCTYPE svg PUBLIC "-//W3C//DTD SVG 1.1//EN" "http://www.w3.org/Graphics/SVG/1.1/DTD/svg11.dtd">
<svg version="1.1" id="execute-svg" xmlns="http://www.w3.org/2000/svg" xmlns:xlink="http://www.w3.org/1999/xlink" x="0px"
	 y="0px" width="30px" height="30px" viewBox="0 0 30 30" style="enable-background:new 0 0 30 30;" xml:space="preserve">
<g>
	<circle style="fill:#F6F6F6;" cx="15.062" cy="15" r="15"/>
</g>
<g>
	<path style="fill:none;" d="M10.208,29.204C11.715,29.713,13.323,30,15,30c2.161,0,4.208-0.466,6.064-1.288
		C18.132,29.191,14.146,29.594,10.208,29.204z"/>
	<path style="fill:none;" d="M14.5,17.574v-2.992h1v2.992c1.94-0.23,3.469-1.76,3.699-3.7l-2.991,0v-1l2.991,0
		c-0.231-1.939-1.76-3.467-3.699-3.698v2.991h-1V9.176c-1.939,0.231-3.467,1.759-3.699,3.698l2.991,0v1l-2.991,0
		C11.031,15.814,12.56,17.343,14.5,17.574z"/>
	<path style="fill:none;" d="M15,21.875c7.768,0,10.088,1.993,10.674,3.658C28.347,22.824,30,19.105,30,15c0-8.284-6.715-15-15-15
		C6.716,0,0,6.716,0,15c0,4.168,1.703,7.938,4.448,10.656C5.337,23.969,7.874,21.875,15,21.875z M7.709,12.873h1.066
		C9.02,9.827,11.453,7.394,14.5,7.15V6.084h1V7.15c3.047,0.243,5.481,2.677,5.725,5.724h1.065v1h-1.065
		c-0.242,3.047-2.677,5.482-5.725,5.725v1.065h-1V19.6c-3.048-0.243-5.482-2.678-5.725-5.727H7.709V12.873z"/>
	<path style="fill:#808080;" d="M21.064,28.712c1.733-0.768,3.296-1.849,4.609-3.179c-0.586-1.665-2.906-3.658-10.674-3.658
		c-7.126,0-9.663,2.094-10.551,3.781c1.605,1.59,3.571,2.81,5.76,3.548C14.146,29.594,18.132,29.191,21.064,28.712z"/>
	<path style="fill:#BE1622;" d="M19.199,12.874l2.025,0C20.981,9.827,18.547,7.394,15.5,7.15v2.025
		C17.439,9.407,18.968,10.935,19.199,12.874z"/>
	<path style="fill:#BE1622;" d="M15.5,17.574V19.6c3.048-0.243,5.482-2.678,5.725-5.725l-2.025,0
		C18.969,15.814,17.44,17.344,15.5,17.574z"/>
	<path style="fill:#BE1622;" d="M10.8,13.874l-2.025,0c0.242,3.049,2.677,5.483,5.725,5.727v-2.025
		C12.56,17.343,11.031,15.814,10.8,13.874z"/>
	<path style="fill:#BE1622;" d="M14.5,9.176V7.15c-3.047,0.243-5.48,2.676-5.725,5.723l2.025,0
		C11.033,10.935,12.561,9.407,14.5,9.176z"/>
	<polygon style="fill:#BE1622;" points="15.5,14.583 14.5,14.583 14.5,17.574 14.5,19.6 14.5,20.665 15.5,20.665 15.5,19.6 
		15.5,17.574 	"/>
	<polygon style="fill:#BE1622;" points="14.5,12.167 15.5,12.167 15.5,9.176 15.5,7.15 15.5,6.084 14.5,6.084 14.5,7.15 14.5,9.176 
			"/>
	<polygon style="fill:#BE1622;" points="10.8,13.874 13.792,13.874 13.792,12.874 10.801,12.874 8.775,12.873 7.709,12.873 
		7.709,13.873 8.775,13.873 	"/>
	<polygon style="fill:#BE1622;" points="16.208,12.874 16.208,13.874 19.199,13.874 21.225,13.875 22.29,13.875 22.29,12.875 
		21.225,12.875 19.199,12.874 	"/>
</g>
<g>
	<path d="M15.062,2c7.168,0,13,5.832,13,13c0,7.168-5.832,13-13,13s-13-5.832-13-13C2.062,7.832,7.894,2,15.062,2 M15.062,0
		c-8.284,0-15,6.716-15,15c0,8.283,6.716,15,15,15c8.285,0,15-6.717,15-15C30.062,6.716,23.347,0,15.062,0L15.062,0z"/>
</g>
</svg>
