<?xml version="1.0" encoding="iso-8859-1"?>
<!-- Generator: Adobe Illustrator 16.0.4, SVG Export Plug-In . SVG Version: 6.00 Build 0)  -->
<!DOCTYPE svg PUBLIC "-//W3C//DTD SVG 1.1//EN" "http://www.w3.org/Graphics/SVG/1.1/DTD/svg11.dtd">
<svg version="1.1" id="Layer_1" xmlns="http://www.w3.org/2000/svg" xmlns:xlink="http://www.w3.org/1999/xlink" x="0px" y="0px"
	 width="120px" height="160px" viewBox="0 0 120 160" style="enable-background:new 0 0 120 160;" xml:space="preserve">
<g>
	<defs>
		<ellipse id="SVGID_1_" cx="60" cy="88.374" rx="55.036" ry="67"/>
	</defs>
	<clipPath id="SVGID_2_">
		<use xlink:href="#SVGID_1_"  style="overflow:visible;"/>
	</clipPath>
	<rect x="-12.537" y="88.035" style="clip-path:url(#SVGID_2_);fill:#C1292E;" width="149.074" height="79.664"/>
	<rect x="-12.537" y="8.375" style="clip-path:url(#SVGID_2_);fill:#010202;" width="149.074" height="82.611"/>
	<path style="clip-path:url(#SVGID_2_);fill:#878787;" d="M110,138.041c-6.666-4.667-35.666-11.001-36.334-21.667
		c-0.666-10.666,2.334-12,2.334-12s2.5-2.333,3.666-8c1.168-5.667,1.668-8.5-0.166-8c0,0,5-15.333-2.5-23.999
		c-7.5-8.667-13.166-8.5-17-8.5c-3.833,0-9.5-0.167-17,8.5s-2.5,24-2.5,24c-1.833-0.499-1.333,2.333-0.167,8s3.666,8,3.666,8
		s3,1.334,2.333,12s-29.667,17-36.333,21.667s-4.651,20.667-4.651,20.667H60h54.652C114.652,158.708,116.666,142.708,110,138.041z"
		/>
	<g style="clip-path:url(#SVGID_2_);">
		<path style="fill:#006633;stroke:#004822;stroke-width:2;stroke-miterlimit:10;" d="M76.359,45.228
			C72.424,42.889,66.063,38.683,60,38.683c-6.061,0-12.423,4.206-16.358,6.544c-3.935,2.337-11.896,8.6-11.896,17.949
			c0,9.349,5.399,11.498,5.399,11.498L60,68.317l22.854,6.357c0,0,5.4-2.149,5.4-11.498C88.255,53.827,80.293,47.565,76.359,45.228z
			"/>
		<path style="fill:#3C3C3B;" d="M60,77.806H37.741c0,0,0.686,4.907,1.236,5.889c0.548,0.981,6.909,7.292,21.023,7.292
			s20.476-6.311,21.024-7.292c0.55-0.981,1.235-5.889,1.235-5.889H60z"/>
		<path style="fill:#F9B233;" d="M81.757,70.654l-1.968,3.787C75.946,73.318,60,74.02,60,74.02s-15.946-0.702-19.789,0.421
			l-1.967-3.787c0,0-5.925,7.188-0.195,9.133c5.73,1.943,8.523-1.981,21.951-1.981s16.22,3.925,21.951,1.981
			C87.683,77.842,81.757,70.654,81.757,70.654z"/>
		<path style="fill:#3C3C3B;stroke:#F9B233;stroke-miterlimit:10;" d="M60,61.119c0,0-21.756,0-21.756,5.516v8.881
			c0,0,4.988-1.496,21.756-1.496c16.769,0,21.757,1.496,21.757,1.496v-8.881C81.757,61.119,60,61.119,60,61.119z"/>
	</g>
	<g style="clip-path:url(#SVGID_2_);">
		<path style="fill:#FFFFFF;" d="M60,37.683c5.789,0,11.777,3.615,15.74,6.006l1.13,0.678c2.905,1.727,12.385,8.185,12.385,18.809
			c0,7.555-3.354,10.75-5.062,11.888c0.557,1.88,0.357,3.841-2.242,4.723c-0.25,1.48-0.61,3.343-0.927,3.907
			c-0.074,0.134-0.267,0.37-0.56,0.671c-0.451,2.428-0.965,4.009-0.965,4.009c0.139-0.038,0.264-0.057,0.376-0.057
			c1.379,0,0.87,2.817-0.21,8.057c-1.166,5.667-3.666,8-3.666,8s-3,1.334-2.334,12c0.668,10.666,29.668,17,36.334,21.667
			s4.652,20.667,4.652,20.667H60H5.349c0,0-2.015-16,4.651-20.667s35.667-11.001,36.333-21.667s-2.333-12-2.333-12
			s-2.499-2.333-3.666-8c-1.079-5.24-1.588-8.056-0.209-8.056c0.112,0,0.237,0.018,0.375,0.056c0,0-0.514-1.581-0.965-4.009
			c-0.293-0.301-0.485-0.537-0.559-0.671c-0.316-0.564-0.677-2.427-0.927-3.907c0,0,0,0,0,0c-2.599-0.882-2.798-2.843-2.242-4.722
			c-1.707-1.138-5.062-4.332-5.062-11.889c0-10.625,9.48-17.083,12.385-18.809l1.126-0.676C48.222,41.299,54.212,37.683,60,37.683
			 M60,35.683c-6.344,0-12.622,3.789-16.775,6.295l-1.123,0.675c-3.127,1.857-13.355,8.842-13.355,20.523
			c0,7.075,2.684,10.833,4.855,12.715c-0.266,2.33,0.678,4.207,2.664,5.292c0.428,2.299,0.727,3.061,0.967,3.488
			c0.044,0.079,0.157,0.281,0.446,0.625c0.146,0.729,0.293,1.373,0.426,1.91c-0.026,0.029-0.052,0.061-0.077,0.091
			c-1.229,1.508-0.782,3.996,0.348,9.479c1.259,6.114,3.957,8.775,4.26,9.059l0.245,0.229l0.119,0.053
			c0.292,0.324,1.82,2.417,1.338,10.131c-0.378,6.06-14.507,11.438-23.855,14.998c-5.017,1.91-9.35,3.56-11.629,5.155
			c-7.44,5.209-5.71,20.796-5.489,22.556l0.221,1.75h1.764H60h54.652h1.764l0.221-1.75c0.222-1.761,1.949-17.347-5.489-22.556
			c-2.279-1.596-6.612-3.245-11.63-5.155c-9.349-3.56-23.476-8.938-23.855-14.998c-0.481-7.714,1.047-9.807,1.339-10.131
			l0.118-0.053l0.245-0.229c0.304-0.283,3.003-2.944,4.261-9.059c1.13-5.483,1.578-7.971,0.349-9.479
			c-0.025-0.03-0.051-0.062-0.077-0.091c0.133-0.537,0.28-1.182,0.426-1.911c0.291-0.345,0.404-0.547,0.449-0.628
			c0.237-0.424,0.536-1.185,0.964-3.484c1.986-1.085,2.931-2.963,2.665-5.294c2.171-1.882,4.854-5.641,4.854-12.713
			c0-11.679-10.229-18.665-13.363-20.528l-1.122-0.674C72.619,39.47,66.345,35.683,60,35.683L60,35.683z"/>
	</g>
</g>
<ellipse style="fill:none;stroke:#F8AE2F;stroke-width:6;stroke-miterlimit:10;" cx="60" cy="88.374" rx="55.036" ry="67"/>
</svg>
