<?xml version="1.0" encoding="iso-8859-1"?>
<!-- Generator: Adobe Illustrator 16.0.4, SVG Export Plug-In . SVG Version: 6.00 Build 0)  -->
<!DOCTYPE svg PUBLIC "-//W3C//DTD SVG 1.1//EN" "http://www.w3.org/Graphics/SVG/1.1/DTD/svg11.dtd">
<svg version="1.1" id="production-svg" xmlns="http://www.w3.org/2000/svg" xmlns:xlink="http://www.w3.org/1999/xlink" x="0px" y="0px"
	 width="100px" height="100px" viewBox="0 0 100 100" style="enable-background:new 0 0 100 100;" xml:space="preserve">
<g>
	<polygon style="fill:#B4D170;" points="38.01,61.979 38.02,61.973 38.009,61.976 	"/>
	<path style="fill:#003E1C;" d="M12.801,60.548c0.345-0.346,3.545-6.45,3.545-6.45s0.736,0.683,1.844,1.654
		c0.847-1.521,1.508-3.108,1.306-4.117c-0.45-2.249-4.432-0.312-3.313-8.222c-0.059-2.886-0.284-7.464-0.397-9.655
		c-1.345-0.834-1.804-1.708-1.804-2.506c0-1.575,2.265-2.462,2.265-2.462s1.871-14.083,15.953-13.393
		c14.082,0.69,15.264,13.393,15.264,13.393l0.843,4.212c0,0,6.444,2.977,5.065,5.34c-0.735,1.26-4.408,2.072-8.021,2.362
		c-0.474,0.666-1.994,2.934-1.827,4.433c0.196,1.772,1.562,5.416,0.979,6.006c-0.585,0.591-1.57,0-1.472,1.477
		c0.098,1.479-1.305,2.166-1.305,2.166s0.568,0.198,0.074,1.873c-0.505,1.715,0.308,4.154-3.614,5.264
		c0.222,0.342,1.969,2.77,7.997,4.78c6.499,2.166,7.336,4.875,7.336,4.875l2.203,3.167l14.586,5.646c0,0,9.539,1.423,18.102,1.614
		C95.644,73.332,100,62.176,100,50c0-27.614-22.386-50-50-50S0,22.386,0,50c0,5.694,0.965,11.16,2.719,16.26
		C7.168,63.787,12.598,60.75,12.801,60.548z"/>
	<path style="fill:#74B84C;" d="M30.92,64.684c0,0,0.193,2.692,0.673,4.894c-0.089-0.457-0.413-3.021,3.119-4.943
		c3.889-2.116,2.659-2.215,2.659-2.215l0.639-0.439l0-0.004c0.003-0.001,0.006-0.002,0.01-0.003l0.139-0.096
		c0,0,0.011,0.018,0.028,0.045c3.922-1.109,3.109-3.549,3.614-5.264c0.494-1.675-0.074-1.873-0.074-1.873s1.403-0.688,1.305-2.166
		c-0.098-1.477,0.886-0.886,1.472-1.477c0.583-0.591-0.783-4.234-0.979-6.006c-0.167-1.5,1.353-3.768,1.827-4.433
		c-3.165,0.254-6.284,0.107-7.341-0.491c-0.016-0.009-0.038-0.019-0.054-0.028c-2.228,0.148-5.554,0.251-7.946-0.207
		c0,0-3.176-0.675-3.028,9.665c0,0-1.551,0.738-1.846-1.034s1.108-5.613-3.619-7.312c-4.727-1.699-5.391,3.102,0,7.754
		c0,0,0.295,2.069-1.772,2.733c0,0,1.034-0.825-1.182-1.631c-2.216-0.806-2.363-2.135-2.363-5.533c0-0.348-0.006-0.762-0.015-1.207
		c-1.118,7.91,2.863,5.973,3.313,8.222c0.202,1.009-0.459,2.596-1.306,4.117c2.129,1.869,5.658,4.83,8.151,6.224
		C30.133,64.093,30.92,64.684,30.92,64.684z"/>
	<path style="fill:#006633;" d="M18.188,50.562c2.216,0.807,1,2,1,2C21.255,51.898,22.062,49,22.062,49
		c-5.391-4.653-5.274-9.403-0.547-7.704c4.727,1.698,3.324,5.539,3.619,7.312s1.846,1.034,1.846,1.034
		c-0.147-10.34,3.028-9.665,3.028-9.665c2.393,0.458,5.718,0.355,7.946,0.207c-2.304-1.276-8.464-2.935-15.308-4.206
		c-3.401-0.631-5.552-1.407-6.862-2.22c0.114,2.191,0.142,6.517,0.2,9.402c0.009,0.444,0,1.179,0,1.527
		C15.985,48.084,15.972,49.757,18.188,50.562z"/>
	<path style="fill:#006633;" d="M35.449,66.897l20.273,7.847l-2.203-3.167c0,0-0.838-2.709-7.336-4.875
		c-6.028-2.011-7.774-4.438-7.997-4.78c-0.018-0.027-0.028-0.045-0.028-0.045l-0.139,0.096l-0.01,0.007l-0.639,0.439
		c0,0,1.23,0.099-2.659,2.215c-3.532,1.922-3.208,4.486-3.119,4.943c-0.479-2.201-0.673-4.894-0.673-4.894s-0.788-0.591-4.579-2.708
		c-2.494-1.394-6.022-4.354-8.151-6.224c-1.108-0.972-1.844-1.654-1.844-1.654s-3.2,6.104-3.545,6.45
		c-0.203,0.202-5.633,3.239-10.082,5.712c3.366,9.789,9.679,18.202,17.889,24.179L35.449,66.897z"/>
	<path style="fill:#74B84C;" d="M55.723,74.744l-20.273-7.847L20.607,90.438C28.858,96.446,39.012,100,50,100
		c15.438,0,29.238-7.001,38.41-17.996c-8.562-0.191-18.102-1.614-18.102-1.614L55.723,74.744z"/>
	<path style="fill:#068036;" d="M22.844,34.806c5.629,0.326,13.196,3.24,17.824,4.126c4.629,0.886,8.469-2.167,8.469-2.167
		l-0.831-3.764l-0.843-4.212c0,0-1.182-12.703-15.264-13.393C18.118,14.707,16.247,28.79,16.247,28.79s0,0.985,0.197,2.055
		S17.214,34.479,22.844,34.806z"/>
	<path style="fill:#067533;" d="M22.647,35.978c6.844,1.271,13.003,2.929,15.308,4.206c0.017,0.009,0.038,0.019,0.054,0.028
		c1.058,0.598,4.177,0.745,7.341,0.491c3.613-0.29,7.285-1.102,8.021-2.362c1.379-2.363-5.065-5.34-5.065-5.34l0.831,3.764
		c0,0-3.84,3.053-8.469,2.167c-4.628-0.886-12.194-3.8-17.824-4.126c-5.63-0.326-6.204-2.891-6.401-3.961s-0.197-2.055-0.197-2.055
		s-2.265,0.887-2.265,2.462c0,0.798,0.458,1.672,1.804,2.506C17.095,34.571,19.246,35.347,22.647,35.978z"/>
</g>
<g>
	<path style="fill:#006633;" d="M50,4c25.364,0,46,20.636,46,46S75.364,96,50,96S4,75.364,4,50S24.636,4,50,4 M50,0
		C22.386,0,0,22.386,0,50s22.386,50,50,50s50-22.386,50-50S77.614,0,50,0L50,0z"/>
</g>
</svg>
