<?xml version="1.0" encoding="iso-8859-1"?>
<!-- Generator: Adobe Illustrator 16.0.4, SVG Export Plug-In . SVG Version: 6.00 Build 0)  -->
<!DOCTYPE svg PUBLIC "-//W3C//DTD SVG 1.1//EN" "http://www.w3.org/Graphics/SVG/1.1/DTD/svg11.dtd">
<svg version="1.1" id="security-svg" xmlns="http://www.w3.org/2000/svg" xmlns:xlink="http://www.w3.org/1999/xlink" x="0px" y="0px"
	 width="100px" height="100px" viewBox="0 0 100 100" style="enable-background:new 0 0 100 100;" xml:space="preserve">
<g>
	<path style="fill:#5E150B;" d="M50,0C22.386,0,0,22.386,0,50c0,11.818,4.11,22.672,10.966,31.229l3.922-7.005l15.925-6.71
		c0,0,5.216-4.746,6.166-5.185l0.097-0.63c0,0,1.432-5.994-0.626-8.5c-2.058-2.505-2.237-6.844-2.237-6.844l0.017-0.022
		c-0.166,0.01-0.333,0.02-0.479,0.022c0,0-0.477-6.174-1.819-6.979l-4.026,1.208l-2.952-1.879c0,0,11.809-4.026,18.788-9.395
		c6.979-5.367,16.104-9.796,19.325-8.588c3.221,1.207,3.892,6.038,0.806,10.735c0,0,1.976,4.966,1.994,6.71
		c0.015,1.413-0.184,1.728-0.262,1.798c1.846,2.954,2.23,6.388,2.23,6.388c-0.889,0.106-1.766,0.186-2.631,0.246
		c-0.165,1.677-0.252,3.688,0.144,4.585c0.738,1.678,2.281,3.824,0,5.167c-2.281,1.342-2.841,5.748-2.841,5.748
		s0.604,2.818-1.453,4.786c-2.059,1.968-4.364,1.548-4.364,1.548s1.77,2.657,7.942,4.357c6.173,1.699,16.552,16.193,16.552,16.193
		L46.891,99.895C47.92,99.957,48.955,100,50,100c27.614,0,50-22.386,50-50S77.614,0,50,0z"/>
	<path style="fill:#EE746C;" d="M48.706,74.225c0,0,4.336-1.646,7.982-5.788c0,0,2.306,0.42,4.364-1.548
		c2.058-1.968,1.453-4.786,1.453-4.786s0.56-4.406,2.841-5.748c2.281-1.343,0.738-3.489,0-5.167
		c-0.396-0.898-0.309-2.908-0.144-4.585c-8.905,0.614-16.464-1.068-19.959-2.044c-4.561,0.919-8.717,1.645-11.016,1.776
		l-0.017,0.022c0,0,0.18,4.339,2.237,6.844c2.058,2.506,0.626,8.5,0.626,8.5l-0.097,0.63c0,0,0,0,0,0S38.596,67.694,48.706,74.225z"
		/>
	<path style="fill:#BE1622;" d="M64.631,72.794c-6.173-1.7-7.942-4.357-7.942-4.357c-3.646,4.143-7.982,5.788-7.982,5.788
		c-10.11-6.53-11.728-11.895-11.728-11.895s0,0,0,0c-0.95,0.438-6.166,5.185-6.166,5.185l-15.925,6.71l-3.922,7.005
		c8.557,10.682,21.399,17.772,35.925,18.665l34.292-10.907C81.183,88.987,70.804,74.493,64.631,72.794z"/>
	<path style="fill:#E7372D;" d="M45.244,44.558c3.495,0.976,11.054,2.658,19.959,2.044c0.865-0.06,1.742-0.14,2.631-0.246
		c0,0-0.385-3.434-2.23-6.388c-0.018,0.017-0.031,0.024-0.031,0.024S54.582,42.676,45.244,44.558z"/>
	<path style="fill:#BE1622;" d="M65.572,39.992c0,0,0.014-0.007,0.031-0.024c0.078-0.07,0.276-0.386,0.262-1.798
		c-0.019-1.744-1.994-6.71-1.994-6.71c3.086-4.697,2.415-9.528-0.806-10.735c-3.221-1.208-12.347,3.221-19.325,8.588
		c-6.979,5.368-18.788,9.395-18.788,9.395l2.952,1.879l4.026-1.208c1.342,0.805,1.819,6.979,1.819,6.979
		c0.146-0.003,0.312-0.013,0.479-0.022c2.299-0.131,6.455-0.856,11.016-1.776C54.582,42.676,65.572,39.992,65.572,39.992z"/>
</g>
<g>
	<path style="fill:#BE1622;" d="M50,4c25.364,0,46,20.636,46,46c0,25.364-20.636,46-46,46S4,75.364,4,50C4,24.635,24.636,4,50,4
		 M50,0C22.386,0,0,22.385,0,50c0,27.613,22.386,50,50,50s50-22.387,50-50C100,22.385,77.614,0,50,0L50,0z"/>
</g>
</svg>
