<svg id="spy-svg" data-name="Layer 1" xmlns="http://www.w3.org/2000/svg" viewBox="0 0 80 80"><title>spy</title><path d="M44.917,62.357l-9.6-13.31A38.6,38.6,0,0,1,46,41.813v-0.5c-0.934.019-1.876,0.031-2.833,0.031,0,0-18.833,1.078-18.833-6.422,0-3.883,8.186-8.413,19.566-11.882C44.294,18.164,45.441,5.387,46.954.615A40,40,0,1,0,40,80c0.581,0,1.158-.019,1.734-0.044A30.628,30.628,0,0,1,40,70.5C39.962,65.478,44.917,62.357,44.917,62.357Z" transform="translate(0 0)" style="fill:#28004a"/><path d="M73.228,17.728A40.007,40.007,0,0,0,46.954.615C45.441,5.387,44.294,18.164,43.9,23.04A133.444,133.444,0,0,1,73.228,17.728Z" transform="translate(0 0)" style="fill:#280035"/><path d="M24.333,34.922c0,7.5,18.833,6.422,18.833,6.422,0.957,0,1.9-.013,2.833-0.031V38.75l-4.671-5.882S42.7,32,44.174,31.175c0.471-.275,1.073-0.6,1.792-0.949L46,30.209h0a26.566,26.566,0,0,1,8.083-2.428c6.5-.823,20.417.261,20.417,2.428a24.639,24.639,0,0,1-.231,2.519c2.216-.47,3.929-0.789,4.88-0.957a39.778,39.778,0,0,0-5.921-14.043A133.444,133.444,0,0,0,43.9,23.04C32.519,26.508,24.333,31.038,24.333,34.922Z" transform="translate(0 0)" style="fill:#140015"/><path d="M44.174,31.175c0.611-.344,1.237-0.681,1.792-0.949C45.247,30.573,44.645,30.9,44.174,31.175Z" transform="translate(0 0)" style="fill:#8e44ad"/><path d="M54.083,27.781A26.566,26.566,0,0,0,46,30.209v11.6c9.529-4.662,21.37-7.622,28.269-9.086a24.639,24.639,0,0,0,.231-2.519C74.5,28.042,60.583,26.958,54.083,27.781Zm2.9,7.319a1.447,1.447,0,0,1-1.111-1.629,1.447,1.447,0,0,1,1.111-1.629,1.447,1.447,0,0,1,1.111,1.629A1.447,1.447,0,0,1,56.979,35.1Zm-8.131-1.629L48,31.625l1.247-.383s3.129-1.3,4.211-1.617c5.837-1.7,7.667.584,7.667,0.584C55.125,29.168,48.849,33.471,48.849,33.471Z" transform="translate(0 0)" style="fill:#8e44ad"/><path d="M53.458,29.625c-1.083.315-4.211,1.617-4.211,1.617L48,31.625l0.849,1.846s6.276-4.3,12.276-3.262C61.125,30.209,59.3,27.925,53.458,29.625Z" transform="translate(0 0)" style="fill:#5b3072"/><path d="M45.445,35.813A0.724,0.724,0,0,1,46,35V34l-0.453-.674a3.8,3.8,0,0,0-2.078.861s0-1.531,2.531-2.125V30.209h0l-0.034.017c-0.554.268-1.181,0.605-1.792,0.949-1.472.829-2.845,1.693-2.845,1.693L46,38.75V36.627A0.723,0.723,0,0,1,45.445,35.813Z" transform="translate(0 0)" style="fill:#5b3072"/><path d="M43.469,34.188a3.8,3.8,0,0,1,2.078-.861L46,34V32.063C43.469,32.656,43.469,34.188,43.469,34.188Z" transform="translate(0 0)" style="fill:#140015"/><ellipse cx="56.979" cy="33.471" rx="1.111" ry="1.629" style="fill:#140015"/><path d="M45.445,35.813a0.723,0.723,0,0,0,.555.815V35A0.724,0.724,0,0,0,45.445,35.813Z" transform="translate(0 0)" style="fill:#140015"/><path d="M79.149,31.771c-0.951.168-2.664,0.487-4.88,0.957-6.9,1.464-18.74,4.424-28.269,9.086a38.6,38.6,0,0,0-10.685,7.233l9.6,13.31S39.962,65.478,40,70.5a30.628,30.628,0,0,0,1.734,9.456A40.013,40.013,0,0,0,79.149,31.771Z" transform="translate(0 0)" style="fill:#140015"/><path d="M40,3A37,37,0,1,1,3,40,37.042,37.042,0,0,1,40,3m0-3A40,40,0,1,0,80,40,40,40,0,0,0,40,0h0Z" transform="translate(0 0)" style="fill:#8e44ad"/></svg>