<svg id="truth-svg" data-name="Layer 1" xmlns="http://www.w3.org/2000/svg" viewBox="0 0 80 80"><title>truth</title><path d="M40,80a39.988,39.988,0,0,0,11.194-1.6c0.442-11.826,1.675-23.586,1.675-23.586l0.742-1.251s-5.084-5.43-11.5-3.975-8.743.969-9.107-.618-0.885-1.2-1.6-1.915a1.066,1.066,0,0,1-.158-1.425s-1.87-.362-1.989-1.478-0.861-1.171-1.812-1.374-1.818-2.473-.706-5.6a2.066,2.066,0,0,0,.106-0.594c-0.234-.28-0.424-0.52-0.531-0.665-0.51-.694-2.012-2.464-1.092-2.94a1.994,1.994,0,0,1,.559-0.209c-1.649-3.9-4.388-9.006-2.016-12.453C27.259,15.25,34.947,6.89,45.064,9.879S57.6,30.887,57.6,30.887l5.24,7.105,0.787-1.328A51.588,51.588,0,0,1,79.376,47,40,40,0,1,0,40,80Z" style="fill:#083c66"/><path d="M62.841,37.992h0L53.61,53.563h0l-0.742,1.251S51.636,66.575,51.194,78.4A39.819,39.819,0,0,0,63,72.717V68.089c0-9.923,5.426-19.7,5.426-19.7l7.706,8.78A39.708,39.708,0,0,0,79.376,47a51.588,51.588,0,0,0-15.748-10.34Z" style="fill:#062f54"/><path d="M62.841,37.992h0L57.6,30.887S55.18,12.867,45.064,9.879,27.259,15.25,23.769,20.321c-2.372,3.447.367,8.554,2.016,12.453,0.38-.066.409,0.165,0.409,0.165l0.534-.458,15.595-6.647,0.139,1.4L27.363,33.7c0.939,1.823,2.557,5.085,2.252,5.348-0.336.29-1.882-1.4-2.767-2.458a2.066,2.066,0,0,1-.106.594c-1.112,3.123-.245,5.393.706,5.6s1.694,0.259,1.812,1.374,1.989,1.478,1.989,1.478a1.066,1.066,0,0,0,.158,1.425c0.71,0.711,1.231.328,1.6,1.915s2.69,2.073,9.107.618,11.5,3.975,11.5,3.975h0Z" style="fill:#3498db"/><path d="M29.616,39.046c0.3-.263-1.314-3.525-2.252-5.348L27.1,33.81l-0.375-1.328-0.534.458s-0.029-.231-0.409-0.165a1.994,1.994,0,0,0-.559.209c-0.92.476,0.582,2.246,1.092,2.94,0.107,0.145.3,0.384,0.531,0.665C27.733,37.65,29.28,39.336,29.616,39.046Z" style="fill:#2980b9"/><polygon points="27.363 33.698 42.462 27.231 42.323 25.834 26.728 32.481 27.103 33.81 27.363 33.698" style="fill:#2980b9"/><path d="M63,68.089v4.628A40.155,40.155,0,0,0,76.132,57.173l-7.706-8.78S63,58.165,63,68.089Z" style="fill:#3498db"/><path d="M40,3A37,37,0,1,1,3,40,37.042,37.042,0,0,1,40,3m0-3A40,40,0,1,0,80,40,40,40,0,0,0,40,0h0Z" style="fill:#3498db"/></svg>