<?xml version="1.0" encoding="iso-8859-1"?>
<!-- Generator: Adobe Illustrator 16.0.4, SVG Export Plug-In . SVG Version: 6.00 Build 0)  -->
<!DOCTYPE svg PUBLIC "-//W3C//DTD SVG 1.1//EN" "http://www.w3.org/Graphics/SVG/1.1/DTD/svg11.dtd">
<svg version="1.1" id="Layer_1" xmlns="http://www.w3.org/2000/svg" xmlns:xlink="http://www.w3.org/1999/xlink" x="0px" y="0px"
	 width="1000px" height="1000px" viewBox="0 0 1000 1000" style="enable-background:new 0 0 1000 1000;" xml:space="preserve">
<line style="fill:none;stroke:#000000;stroke-miterlimit:10;" x1="499.5" y1="124" x2="499.5" y2="545"/>
<rect x="287" y="146" style="fill:#FFFFFF;" width="437" height="39"/>
<g>
	<path d="M442.932,109.544c0,0.56-0.112,1.074-0.336,1.543c-0.224,0.469-0.525,0.875-0.903,1.218
		c-0.378,0.343-0.819,0.609-1.323,0.798s-1.043,0.284-1.617,0.284h-7.014v-14.91h7.161c0.518,0,0.987,0.112,1.407,0.336
		c0.42,0.224,0.777,0.515,1.071,0.872c0.294,0.357,0.521,0.763,0.683,1.218c0.161,0.455,0.242,0.914,0.242,1.375
		c0,0.756-0.189,1.446-0.567,2.068c-0.378,0.623-0.903,1.089-1.575,1.396c0.854,0.252,1.529,0.721,2.026,1.407
		S442.932,108.634,442.932,109.544z M433.188,99.758v5.502h5.124c0.364,0,0.704-0.077,1.019-0.231
		c0.315-0.154,0.588-0.357,0.819-0.609c0.231-0.252,0.41-0.542,0.536-0.872s0.189-0.675,0.189-1.04c0-0.378-0.06-0.735-0.178-1.071
		c-0.119-0.336-0.287-0.626-0.504-0.871c-0.217-0.245-0.476-0.441-0.777-0.588c-0.301-0.147-0.626-0.22-0.977-0.22H433.188z
		 M441.462,109.292c0-0.364-0.063-0.717-0.189-1.06c-0.126-0.343-0.304-0.644-0.535-0.903c-0.231-0.259-0.504-0.469-0.819-0.63
		c-0.315-0.161-0.654-0.242-1.019-0.242h-5.712v5.649h5.565c0.378,0,0.735-0.077,1.071-0.231c0.336-0.154,0.623-0.36,0.861-0.619
		c0.238-0.259,0.427-0.56,0.567-0.903C441.392,110.009,441.462,109.656,441.462,109.292z"/>
	<path d="M443.898,113.387l6.237-14.91h1.197l6.237,14.91h-1.575l-1.932-4.662h-6.699l-1.911,4.662H443.898z M450.745,100.199
		l-3.066,7.371h6.048L450.745,100.199z"/>
	<path d="M468.258,101.27c-0.42-0.476-0.984-0.861-1.69-1.155c-0.707-0.294-1.501-0.441-2.383-0.441
		c-1.331,0-2.296,0.249-2.898,0.746s-0.903,1.172-0.903,2.026c0,0.448,0.081,0.815,0.242,1.103c0.161,0.287,0.413,0.535,0.756,0.746
		c0.343,0.21,0.777,0.392,1.302,0.546c0.525,0.154,1.145,0.308,1.859,0.462c0.798,0.168,1.512,0.354,2.142,0.557
		c0.63,0.203,1.169,0.462,1.617,0.777c0.448,0.315,0.791,0.7,1.029,1.155c0.238,0.455,0.357,1.019,0.357,1.691
		c0,0.686-0.133,1.281-0.399,1.785s-0.637,0.924-1.113,1.26c-0.476,0.336-1.043,0.584-1.701,0.745
		c-0.658,0.161-1.372,0.242-2.142,0.242c-2.338,0-4.333-0.721-5.985-2.163l0.714-1.197c0.546,0.574,1.281,1.061,2.205,1.459
		c0.924,0.399,1.953,0.599,3.087,0.599c1.189,0,2.121-0.213,2.793-0.641c0.672-0.427,1.008-1.074,1.008-1.942
		c0-0.462-0.095-0.851-0.284-1.166s-0.472-0.588-0.85-0.819c-0.378-0.231-0.851-0.43-1.417-0.598
		c-0.567-0.168-1.222-0.336-1.964-0.504c-0.784-0.182-1.47-0.371-2.058-0.567c-0.588-0.196-1.082-0.441-1.481-0.735
		c-0.399-0.294-0.7-0.647-0.903-1.061c-0.203-0.413-0.305-0.92-0.305-1.522c0-0.686,0.129-1.298,0.389-1.837
		c0.259-0.539,0.623-0.987,1.092-1.344c0.469-0.357,1.029-0.63,1.68-0.819s1.368-0.284,2.153-0.284c0.979,0,1.858,0.151,2.635,0.452
		c0.777,0.301,1.48,0.725,2.11,1.271L468.258,101.27z"/>
	<path d="M482.791,99.779h-5.313v13.608h-1.47V99.779h-5.313v-1.302h12.096V99.779z"/>
	<path d="M486.528,101.207v12.18h-1.449v-14.91h1.134l9.87,12.411v-12.39h1.449v14.889h-1.26L486.528,101.207z"/>
	<path d="M499.737,113.387l6.237-14.91h1.197l6.236,14.91h-1.574l-1.933-4.662h-6.699l-1.911,4.662H499.737z M506.584,100.199
		l-3.066,7.371h6.048L506.584,100.199z"/>
	<path d="M525.588,112.085v1.302H515.57v-14.91h9.828v1.302h-8.379v5.376h7.309v1.239h-7.309v5.691H525.588z"/>
	<path d="M536.949,101.27c-0.42-0.476-0.984-0.861-1.691-1.155s-1.501-0.441-2.383-0.441c-1.33,0-2.297,0.249-2.898,0.746
		s-0.902,1.172-0.902,2.026c0,0.448,0.08,0.815,0.241,1.103s0.413,0.535,0.756,0.746c0.343,0.21,0.776,0.392,1.302,0.546
		c0.525,0.154,1.145,0.308,1.859,0.462c0.797,0.168,1.512,0.354,2.141,0.557c0.631,0.203,1.17,0.462,1.617,0.777
		c0.448,0.315,0.791,0.7,1.029,1.155c0.238,0.455,0.357,1.019,0.357,1.691c0,0.686-0.133,1.281-0.399,1.785s-0.638,0.924-1.112,1.26
		c-0.477,0.336-1.043,0.584-1.701,0.745c-0.658,0.161-1.373,0.242-2.143,0.242c-2.338,0-4.333-0.721-5.984-2.163l0.714-1.197
		c0.546,0.574,1.28,1.061,2.204,1.459c0.925,0.399,1.953,0.599,3.088,0.599c1.189,0,2.121-0.213,2.793-0.641
		c0.672-0.427,1.008-1.074,1.008-1.942c0-0.462-0.095-0.851-0.283-1.166c-0.189-0.315-0.473-0.588-0.851-0.819
		s-0.851-0.43-1.417-0.598c-0.568-0.168-1.223-0.336-1.965-0.504c-0.783-0.182-1.469-0.371-2.057-0.567
		c-0.589-0.196-1.082-0.441-1.481-0.735s-0.7-0.647-0.903-1.061c-0.203-0.413-0.305-0.92-0.305-1.522
		c0-0.686,0.13-1.298,0.389-1.837c0.26-0.539,0.623-0.987,1.093-1.344c0.469-0.357,1.028-0.63,1.68-0.819s1.368-0.284,2.153-0.284
		c0.979,0,1.857,0.151,2.635,0.452c0.777,0.301,1.48,0.725,2.11,1.271L536.949,101.27z"/>
	<path d="M541.044,113.387V98.498h1.448v14.889H541.044z"/>
	<path d="M556.878,99.779h-5.313v13.608h-1.47V99.779h-5.313v-1.302h12.097V99.779z"/>
	<path d="M569.184,112.085v1.302h-10.017v-14.91h9.827v1.302h-8.379v5.376h7.309v1.239h-7.309v5.691H569.184z"/>
</g>
<rect x="351" y="204" style="fill:#FFFFFF;" width="298" height="39"/>
<rect x="351" y="313" style="fill:#FFFFFF;" width="298" height="39"/>
<rect x="351" y="385" style="fill:#FFFFFF;" width="298" height="39"/>
<rect x="350" y="480" style="fill:#FFFFFF;" width="298" height="39"/>
<g>
	<path d="M414.573,170.903v-14.91h6.174c0.644,0,1.235,0.137,1.774,0.41s1.004,0.63,1.396,1.071
		c0.392,0.441,0.696,0.942,0.914,1.501c0.217,0.561,0.326,1.127,0.326,1.701c0,0.616-0.102,1.208-0.305,1.774
		c-0.203,0.567-0.494,1.068-0.872,1.501c-0.378,0.434-0.83,0.784-1.354,1.05s-1.109,0.399-1.753,0.399h-4.851v5.502H414.573z
		 M416.022,164.099h4.767c0.434,0,0.83-0.094,1.187-0.283s0.662-0.441,0.914-0.756c0.252-0.315,0.448-0.679,0.588-1.092
		c0.14-0.413,0.21-0.843,0.21-1.292c0-0.462-0.081-0.899-0.241-1.312c-0.161-0.413-0.378-0.773-0.651-1.082
		c-0.273-0.308-0.595-0.549-0.966-0.725c-0.371-0.175-0.76-0.262-1.166-0.262h-4.641V164.099z"/>
	<path d="M436.455,170.903h-1.428v-6.111c0-1.246-0.214-2.177-0.641-2.793c-0.427-0.616-1.054-0.924-1.879-0.924
		c-0.406,0-0.809,0.081-1.208,0.242c-0.399,0.161-0.774,0.381-1.124,0.662c-0.35,0.28-0.655,0.609-0.914,0.987
		c-0.259,0.378-0.452,0.791-0.578,1.239v6.699h-1.428v-15.33h1.428v6.867c0.448-0.826,1.057-1.477,1.827-1.953
		c0.77-0.476,1.596-0.714,2.478-0.714c0.63,0,1.166,0.115,1.606,0.346s0.798,0.553,1.071,0.966s0.473,0.91,0.599,1.491
		c0.126,0.581,0.189,1.222,0.189,1.922V170.903z"/>
	<path d="M439.815,174.284c0.07,0.014,0.14,0.024,0.21,0.032c0.07,0.007,0.14,0.01,0.21,0.01c0.14,0,0.291-0.014,0.452-0.042
		c0.161-0.028,0.276-0.056,0.346-0.084c0.07-0.028,0.144-0.087,0.221-0.178c0.077-0.091,0.175-0.252,0.294-0.483
		c0.119-0.231,0.27-0.553,0.452-0.966c0.182-0.413,0.413-0.97,0.693-1.669l-4.767-10.941h1.491l4.053,9.618l3.738-9.618h1.365
		l-5.691,14.112c-0.21,0.518-0.494,0.903-0.851,1.155s-0.857,0.378-1.501,0.378c-0.266,0-0.504-0.021-0.714-0.063V174.284z"/>
	<path d="M453.948,171.113c-0.854,0-1.687-0.14-2.499-0.42s-1.512-0.686-2.1-1.218l0.651-0.966c0.616,0.504,1.243,0.882,1.88,1.134
		c0.637,0.252,1.319,0.378,2.047,0.378c0.882,0,1.585-0.179,2.11-0.536s0.788-0.864,0.788-1.522c0-0.308-0.07-0.563-0.21-0.767
		c-0.14-0.203-0.347-0.381-0.62-0.536c-0.273-0.154-0.616-0.29-1.029-0.409c-0.413-0.119-0.893-0.242-1.438-0.368
		c-0.63-0.154-1.176-0.308-1.638-0.462c-0.462-0.154-0.844-0.329-1.145-0.525c-0.301-0.196-0.525-0.438-0.672-0.725
		c-0.147-0.287-0.221-0.647-0.221-1.082c0-0.546,0.108-1.029,0.326-1.449c0.217-0.42,0.511-0.766,0.882-1.039
		c0.371-0.273,0.805-0.479,1.302-0.62c0.497-0.14,1.025-0.21,1.585-0.21c0.84,0,1.603,0.136,2.289,0.409
		c0.686,0.273,1.239,0.634,1.659,1.082l-0.693,0.84c-0.406-0.42-0.899-0.735-1.48-0.945s-1.187-0.315-1.816-0.315
		c-0.378,0-0.728,0.039-1.05,0.116c-0.322,0.077-0.606,0.199-0.851,0.367c-0.245,0.168-0.438,0.382-0.578,0.641
		c-0.14,0.259-0.21,0.564-0.21,0.914c0,0.294,0.049,0.532,0.147,0.714c0.098,0.182,0.259,0.34,0.483,0.473
		c0.224,0.133,0.507,0.252,0.851,0.357c0.343,0.105,0.759,0.214,1.25,0.326c0.7,0.168,1.316,0.336,1.848,0.504
		c0.532,0.168,0.977,0.364,1.333,0.588c0.357,0.224,0.626,0.497,0.809,0.819c0.182,0.322,0.273,0.714,0.273,1.176
		c0,1.008-0.385,1.806-1.155,2.394S455.25,171.113,453.948,171.113z"/>
	<path d="M460.5,157.673v-2.1h1.428v2.1H460.5z M460.5,170.903v-10.941h1.428v10.941H460.5z"/>
	<path d="M464.28,165.401c0-0.77,0.133-1.498,0.399-2.184c0.266-0.686,0.641-1.284,1.124-1.795c0.483-0.511,1.061-0.914,1.733-1.208
		c0.672-0.294,1.414-0.441,2.226-0.441c1.036,0,1.939,0.234,2.709,0.704c0.77,0.469,1.351,1.102,1.743,1.9l-1.386,0.441
		c-0.308-0.56-0.735-0.998-1.281-1.312s-1.155-0.473-1.827-0.473c-0.56,0-1.082,0.112-1.564,0.336
		c-0.483,0.224-0.903,0.529-1.26,0.914c-0.357,0.385-0.637,0.844-0.84,1.375c-0.203,0.532-0.304,1.113-0.304,1.743
		c0,0.616,0.105,1.197,0.315,1.743c0.21,0.546,0.497,1.018,0.861,1.417c0.364,0.399,0.788,0.714,1.271,0.945
		s0.998,0.347,1.543,0.347c0.35,0,0.696-0.049,1.04-0.147c0.343-0.098,0.662-0.234,0.956-0.41c0.294-0.175,0.546-0.375,0.756-0.599
		c0.21-0.224,0.357-0.462,0.441-0.714l1.386,0.42c-0.154,0.392-0.378,0.753-0.672,1.082c-0.294,0.329-0.641,0.616-1.04,0.861
		c-0.399,0.245-0.84,0.434-1.323,0.567c-0.483,0.133-0.983,0.199-1.501,0.199c-0.798,0-1.533-0.15-2.205-0.452
		c-0.672-0.301-1.253-0.714-1.743-1.239c-0.49-0.525-0.872-1.13-1.145-1.816S464.28,166.185,464.28,165.401z"/>
	<path d="M479.442,171.113c-0.56,0-1.071-0.087-1.533-0.263c-0.462-0.175-0.858-0.416-1.187-0.724
		c-0.329-0.308-0.584-0.665-0.767-1.071c-0.182-0.406-0.273-0.833-0.273-1.281c0-0.504,0.112-0.962,0.336-1.375
		s0.539-0.767,0.945-1.061c0.406-0.294,0.893-0.521,1.459-0.683c0.567-0.161,1.193-0.241,1.879-0.241
		c0.546,0,1.106,0.049,1.68,0.147c0.574,0.098,1.084,0.238,1.533,0.42v-0.987c0-0.966-0.276-1.732-0.83-2.299
		s-1.298-0.851-2.236-0.851c-0.588,0-1.173,0.112-1.753,0.336c-0.581,0.224-1.173,0.546-1.774,0.966l-0.504-0.945
		c0.714-0.476,1.407-0.833,2.079-1.071c0.672-0.238,1.372-0.357,2.1-0.357c1.33,0,2.387,0.385,3.171,1.155
		c0.784,0.77,1.176,1.834,1.176,3.192v4.935c0,0.392,0.168,0.588,0.504,0.588v1.26c-0.112,0.014-0.217,0.024-0.315,0.032
		c-0.098,0.007-0.182,0.01-0.252,0.01c-0.28,0-0.536-0.084-0.767-0.252s-0.361-0.42-0.389-0.756l-0.042-0.861
		c-0.476,0.644-1.103,1.145-1.879,1.501C481.027,170.935,480.24,171.113,479.442,171.113z M479.799,170.021
		c0.63,0,1.256-0.137,1.879-0.41c0.623-0.273,1.116-0.647,1.48-1.124c0.098-0.126,0.182-0.263,0.252-0.41
		c0.07-0.147,0.105-0.283,0.105-0.409v-1.785c-0.476-0.182-0.973-0.322-1.491-0.42c-0.518-0.098-1.022-0.147-1.512-0.147
		c-1.022,0-1.852,0.207-2.488,0.62c-0.637,0.413-0.956,0.983-0.956,1.711c0,0.294,0.056,0.581,0.168,0.861
		c0.112,0.28,0.283,0.532,0.515,0.756c0.231,0.224,0.514,0.406,0.85,0.546S479.337,170.021,479.799,170.021z"/>
	<path d="M488.114,155.573h1.428v12.852c0,0.406,0.112,0.725,0.336,0.956s0.539,0.347,0.945,0.347c0.154,0,0.336-0.021,0.546-0.063
		s0.406-0.098,0.588-0.168l0.252,1.155c-0.266,0.112-0.591,0.203-0.977,0.273s-0.717,0.105-0.998,0.105
		c-0.658,0-1.176-0.186-1.554-0.557c-0.378-0.371-0.567-0.893-0.567-1.564V155.573z"/>
	<path d="M504.768,169.685c0.938,0,1.718-0.179,2.341-0.536s1.12-0.826,1.491-1.407c0.371-0.581,0.63-1.242,0.777-1.984
		c0.146-0.742,0.221-1.491,0.221-2.247v-7.518h1.469v7.518c0,1.008-0.111,1.963-0.336,2.867c-0.224,0.903-0.584,1.698-1.081,2.383
		c-0.497,0.686-1.145,1.232-1.942,1.638c-0.798,0.406-1.771,0.609-2.919,0.609c-1.19,0-2.185-0.213-2.981-0.641
		c-0.799-0.427-1.443-0.99-1.933-1.69c-0.49-0.7-0.84-1.498-1.05-2.394c-0.21-0.896-0.315-1.82-0.315-2.772v-7.518h1.449v7.518
		c0,0.784,0.077,1.547,0.231,2.289c0.154,0.742,0.417,1.4,0.788,1.974s0.864,1.036,1.48,1.386
		C503.072,169.51,503.844,169.685,504.768,169.685z"/>
	<path d="M519.845,171.113c-0.925,0-1.743-0.234-2.457-0.704c-0.714-0.469-1.288-1.061-1.722-1.774v6.741h-1.428v-15.414h1.28v2.121
		c0.448-0.686,1.028-1.243,1.743-1.669c0.714-0.427,1.49-0.641,2.331-0.641c0.756,0,1.452,0.157,2.089,0.472
		c0.637,0.315,1.188,0.735,1.648,1.26c0.463,0.525,0.822,1.131,1.082,1.816c0.259,0.686,0.389,1.393,0.389,2.121
		c0,0.77-0.119,1.498-0.357,2.184s-0.577,1.288-1.018,1.806c-0.441,0.519-0.967,0.928-1.576,1.229
		C521.241,170.962,520.572,171.113,519.845,171.113z M519.445,169.853c0.588,0,1.12-0.126,1.596-0.378
		c0.477-0.252,0.886-0.584,1.229-0.997c0.344-0.413,0.605-0.882,0.788-1.407c0.182-0.525,0.272-1.067,0.272-1.627
		c0-0.588-0.104-1.148-0.314-1.68c-0.21-0.532-0.497-1-0.861-1.407c-0.363-0.406-0.795-0.728-1.291-0.966
		c-0.497-0.238-1.033-0.357-1.607-0.357c-0.363,0-0.742,0.074-1.133,0.221c-0.393,0.147-0.764,0.343-1.113,0.588
		c-0.35,0.245-0.648,0.532-0.893,0.861c-0.245,0.329-0.396,0.676-0.451,1.04v3.36c0.168,0.392,0.381,0.756,0.641,1.092
		c0.258,0.336,0.553,0.626,0.881,0.872c0.33,0.245,0.687,0.438,1.072,0.578C518.645,169.783,519.039,169.853,519.445,169.853z"/>
	<path d="M531.584,171.05c-0.756,0-1.446-0.158-2.068-0.473c-0.623-0.315-1.162-0.731-1.617-1.25
		c-0.455-0.518-0.809-1.113-1.061-1.785c-0.252-0.672-0.379-1.365-0.379-2.079c0-0.756,0.123-1.48,0.368-2.173
		c0.245-0.693,0.591-1.299,1.04-1.817c0.447-0.518,0.982-0.931,1.605-1.239c0.623-0.308,1.312-0.462,2.068-0.462
		c0.938,0,1.75,0.234,2.437,0.704c0.687,0.469,1.274,1.06,1.765,1.774v-2.289h1.28v10.983c0,0.756-0.144,1.424-0.431,2.005
		s-0.672,1.067-1.154,1.459c-0.483,0.392-1.055,0.686-1.712,0.882c-0.658,0.196-1.351,0.294-2.079,0.294
		c-1.246,0-2.254-0.224-3.023-0.672c-0.771-0.448-1.394-1.05-1.869-1.806l0.882-0.693c0.434,0.7,1.008,1.214,1.722,1.543
		c0.715,0.329,1.477,0.493,2.289,0.493c0.532,0,1.039-0.073,1.522-0.22s0.903-0.364,1.261-0.651c0.356-0.287,0.641-0.651,0.85-1.092
		c0.211-0.441,0.315-0.956,0.315-1.543v-2.163c-0.435,0.7-1.012,1.253-1.732,1.659C533.141,170.847,532.382,171.05,531.584,171.05z
		 M531.982,169.853c0.42,0,0.833-0.077,1.239-0.231c0.405-0.154,0.773-0.36,1.103-0.62c0.328-0.259,0.605-0.549,0.83-0.872
		c0.223-0.322,0.37-0.651,0.44-0.987v-3.381c-0.154-0.392-0.368-0.756-0.641-1.092s-0.577-0.623-0.913-0.861
		c-0.336-0.238-0.697-0.427-1.082-0.567c-0.385-0.14-0.773-0.21-1.166-0.21c-0.615,0-1.162,0.13-1.637,0.389
		c-0.477,0.259-0.883,0.599-1.219,1.019s-0.592,0.896-0.767,1.428c-0.175,0.532-0.263,1.071-0.263,1.617
		c0,0.588,0.105,1.148,0.315,1.68s0.497,0.997,0.86,1.396c0.365,0.399,0.795,0.714,1.292,0.945S531.408,169.853,531.982,169.853z"/>
	<path d="M545.549,161.222c-0.967,0.028-1.807,0.294-2.52,0.798c-0.715,0.504-1.219,1.197-1.513,2.079v6.804h-1.428v-10.941h1.344
		v2.625c0.378-0.77,0.875-1.41,1.491-1.921c0.615-0.511,1.281-0.767,1.994-0.767c0.127,0,0.246,0,0.357,0
		c0.112,0,0.203,0.007,0.273,0.021V161.222z"/>
	<path d="M550.148,171.113c-0.561,0-1.072-0.087-1.533-0.263c-0.463-0.175-0.858-0.416-1.188-0.724
		c-0.328-0.308-0.584-0.665-0.766-1.071c-0.183-0.406-0.273-0.833-0.273-1.281c0-0.504,0.111-0.962,0.336-1.375
		s0.539-0.767,0.945-1.061s0.893-0.521,1.459-0.683c0.567-0.161,1.193-0.241,1.88-0.241c0.546,0,1.106,0.049,1.681,0.147
		c0.573,0.098,1.084,0.238,1.532,0.42v-0.987c0-0.966-0.276-1.732-0.829-2.299c-0.554-0.567-1.299-0.851-2.236-0.851
		c-0.588,0-1.174,0.112-1.754,0.336c-0.581,0.224-1.173,0.546-1.774,0.966l-0.504-0.945c0.714-0.476,1.407-0.833,2.079-1.071
		c0.672-0.238,1.371-0.357,2.1-0.357c1.33,0,2.387,0.385,3.171,1.155c0.784,0.77,1.177,1.834,1.177,3.192v4.935
		c0,0.392,0.168,0.588,0.504,0.588v1.26c-0.113,0.014-0.218,0.024-0.315,0.032c-0.099,0.007-0.183,0.01-0.252,0.01
		c-0.28,0-0.536-0.084-0.767-0.252s-0.361-0.42-0.389-0.756l-0.042-0.861c-0.476,0.644-1.103,1.145-1.88,1.501
		C551.733,170.935,550.945,171.113,550.148,171.113z M550.505,170.021c0.63,0,1.257-0.137,1.88-0.41
		c0.622-0.273,1.115-0.647,1.48-1.124c0.098-0.126,0.182-0.263,0.252-0.41c0.069-0.147,0.104-0.283,0.104-0.409v-1.785
		c-0.476-0.182-0.974-0.322-1.491-0.42c-0.518-0.098-1.021-0.147-1.512-0.147c-1.021,0-1.852,0.207-2.488,0.62
		s-0.955,0.983-0.955,1.711c0,0.294,0.055,0.581,0.168,0.861c0.111,0.28,0.283,0.532,0.514,0.756
		c0.231,0.224,0.515,0.406,0.851,0.546S550.043,170.021,550.505,170.021z"/>
	<path d="M563.293,171.113c-0.756,0-1.455-0.157-2.1-0.473c-0.645-0.315-1.2-0.731-1.67-1.25c-0.469-0.518-0.832-1.116-1.092-1.795
		c-0.259-0.679-0.389-1.389-0.389-2.131c0-0.77,0.127-1.501,0.379-2.194c0.252-0.693,0.598-1.299,1.039-1.817
		c0.441-0.518,0.967-0.927,1.575-1.229c0.608-0.301,1.277-0.451,2.005-0.451c0.925,0,1.744,0.241,2.457,0.725
		c0.715,0.483,1.281,1.067,1.701,1.753v-6.678h1.428v13.482c0,0.392,0.168,0.588,0.505,0.588v1.26
		c-0.238,0.042-0.427,0.063-0.567,0.063c-0.35,0-0.637-0.102-0.861-0.305c-0.224-0.203-0.336-0.444-0.336-0.724v-1.155
		c-0.447,0.714-1.039,1.281-1.773,1.701C564.857,170.903,564.092,171.113,563.293,171.113z M563.588,169.853
		c0.363,0,0.745-0.07,1.145-0.21c0.398-0.14,0.77-0.333,1.113-0.578c0.342-0.245,0.641-0.532,0.893-0.861
		c0.252-0.329,0.405-0.682,0.461-1.06v-3.381c-0.14-0.378-0.346-0.731-0.619-1.061c-0.273-0.329-0.581-0.619-0.924-0.871
		c-0.344-0.252-0.707-0.448-1.092-0.588c-0.386-0.14-0.767-0.21-1.145-0.21c-0.588,0-1.124,0.126-1.607,0.378
		c-0.482,0.252-0.893,0.585-1.229,0.998c-0.336,0.413-0.598,0.886-0.787,1.417c-0.189,0.532-0.283,1.078-0.283,1.638
		c0,0.588,0.105,1.148,0.314,1.68c0.211,0.532,0.497,0.997,0.861,1.396c0.364,0.399,0.795,0.717,1.291,0.955
		C562.479,169.734,563.014,169.853,563.588,169.853z"/>
	<path d="M571.84,157.673v-2.1h1.428v2.1H571.84z M571.84,170.903v-10.941h1.428v10.941H571.84z"/>
	<path d="M585.531,170.903h-1.428v-6.111c0-1.302-0.189-2.247-0.566-2.835c-0.379-0.588-0.967-0.882-1.764-0.882
		c-0.421,0-0.841,0.077-1.261,0.231c-0.42,0.154-0.812,0.371-1.176,0.651c-0.364,0.28-0.683,0.612-0.956,0.997
		c-0.272,0.385-0.479,0.802-0.619,1.25v6.699h-1.428v-10.941h1.302v2.478c0.224-0.392,0.501-0.752,0.829-1.082
		c0.329-0.329,0.697-0.612,1.104-0.851c0.405-0.238,0.836-0.42,1.291-0.546s0.928-0.189,1.418-0.189c0.615,0,1.13,0.112,1.543,0.336
		c0.412,0.224,0.746,0.539,0.998,0.945c0.252,0.406,0.434,0.903,0.545,1.491c0.112,0.588,0.168,1.239,0.168,1.953V170.903z"/>
	<path d="M592.924,171.05c-0.756,0-1.445-0.158-2.068-0.473s-1.162-0.731-1.617-1.25c-0.455-0.518-0.809-1.113-1.061-1.785
		c-0.252-0.672-0.378-1.365-0.378-2.079c0-0.756,0.122-1.48,0.368-2.173c0.244-0.693,0.591-1.299,1.039-1.817
		c0.447-0.518,0.983-0.931,1.606-1.239c0.622-0.308,1.312-0.462,2.068-0.462c0.938,0,1.75,0.234,2.437,0.704
		c0.686,0.469,1.273,1.06,1.764,1.774v-2.289h1.281v10.983c0,0.756-0.145,1.424-0.431,2.005c-0.287,0.581-0.673,1.067-1.155,1.459
		s-1.054,0.686-1.711,0.882c-0.658,0.196-1.352,0.294-2.08,0.294c-1.246,0-2.254-0.224-3.023-0.672
		c-0.77-0.448-1.393-1.05-1.869-1.806l0.883-0.693c0.434,0.7,1.008,1.214,1.721,1.543c0.715,0.329,1.478,0.493,2.289,0.493
		c0.533,0,1.04-0.073,1.523-0.22c0.482-0.147,0.902-0.364,1.26-0.651c0.357-0.287,0.641-0.651,0.851-1.092s0.315-0.956,0.315-1.543
		v-2.163c-0.435,0.7-1.012,1.253-1.732,1.659C594.481,170.847,593.723,171.05,592.924,171.05z M593.322,169.853
		c0.421,0,0.834-0.077,1.24-0.231c0.405-0.154,0.773-0.36,1.102-0.62c0.329-0.259,0.605-0.549,0.83-0.872
		c0.224-0.322,0.371-0.651,0.441-0.987v-3.381c-0.154-0.392-0.368-0.756-0.641-1.092c-0.273-0.336-0.578-0.623-0.914-0.861
		c-0.336-0.238-0.696-0.427-1.082-0.567c-0.385-0.14-0.773-0.21-1.165-0.21c-0.616,0-1.162,0.13-1.638,0.389
		c-0.477,0.259-0.883,0.599-1.219,1.019s-0.591,0.896-0.766,1.428c-0.176,0.532-0.263,1.071-0.263,1.617
		c0,0.588,0.104,1.148,0.315,1.68c0.209,0.532,0.496,0.997,0.86,1.396c0.364,0.399,0.794,0.714,1.292,0.945
		C592.213,169.737,592.748,169.853,593.322,169.853z"/>
</g>
<g>
	<path d="M390.263,230.419v-12.243l-5.439,9.471h-0.861l-5.46-9.471v12.243h-1.449v-14.91h1.491l5.838,10.206l5.838-10.206h1.491
		v14.91H390.263z"/>
	<path d="M395.492,230.419V215.53h1.449v14.889H395.492z"/>
	<path d="M402.169,218.239v12.18h-1.449v-14.91h1.134l9.87,12.411v-12.39h1.449v14.889h-1.26L402.169,218.239z"/>
	<path d="M426.97,229.117v1.302h-10.017v-14.91h9.828v1.302h-8.379v5.376h7.308v1.239h-7.308v5.691H426.97z"/>
	<path d="M429.826,230.419v-14.91h6.279c0.644,0,1.239,0.137,1.785,0.41s1.015,0.63,1.407,1.071
		c0.392,0.441,0.696,0.942,0.914,1.501c0.217,0.561,0.326,1.127,0.326,1.701c0,0.546-0.081,1.068-0.242,1.564
		c-0.161,0.497-0.388,0.945-0.683,1.344c-0.294,0.399-0.644,0.735-1.05,1.008c-0.406,0.273-0.861,0.459-1.365,0.557l3.675,5.754
		h-1.659l-3.528-5.502h-4.41v5.502H429.826z M431.275,223.615h4.893c0.434,0,0.83-0.094,1.187-0.283s0.662-0.444,0.914-0.767
		c0.252-0.322,0.448-0.686,0.588-1.092c0.14-0.406,0.21-0.833,0.21-1.281c0-0.448-0.081-0.878-0.241-1.292
		c-0.161-0.413-0.378-0.773-0.651-1.082c-0.273-0.308-0.595-0.553-0.966-0.735c-0.371-0.182-0.76-0.273-1.166-0.273h-4.767V223.615z
		"/>
	<path d="M441.943,230.419l6.237-14.91h1.197l6.237,14.91h-1.575l-1.932-4.662h-6.699l-1.911,4.662H441.943z M448.789,217.231
		l-3.066,7.371h6.048L448.789,217.231z"/>
	<path d="M457.777,230.419v-14.91h1.449v13.608h8.631v1.302H457.777z"/>
	<path d="M474.009,222.859c0-0.896,0.158-1.788,0.473-2.677s0.773-1.684,1.375-2.384c0.602-0.7,1.344-1.271,2.226-1.711
		s1.883-0.662,3.003-0.662c1.33,0,2.464,0.301,3.402,0.903s1.638,1.386,2.1,2.352l-1.176,0.714c-0.238-0.49-0.525-0.903-0.861-1.239
		s-0.7-0.609-1.092-0.819c-0.392-0.21-0.798-0.36-1.218-0.452c-0.42-0.091-0.833-0.136-1.239-0.136
		c-0.896,0-1.687,0.182-2.373,0.546c-0.686,0.364-1.264,0.84-1.732,1.428c-0.469,0.588-0.823,1.25-1.061,1.984
		c-0.238,0.735-0.357,1.48-0.357,2.236c0,0.826,0.144,1.617,0.431,2.373c0.287,0.756,0.679,1.425,1.176,2.005
		c0.497,0.581,1.085,1.043,1.764,1.386c0.679,0.343,1.417,0.515,2.215,0.515c0.42,0,0.851-0.053,1.292-0.158
		s0.868-0.273,1.281-0.504c0.413-0.231,0.794-0.518,1.144-0.861c0.35-0.343,0.644-0.759,0.882-1.25l1.218,0.63
		c-0.238,0.56-0.574,1.054-1.008,1.48c-0.434,0.427-0.917,0.788-1.449,1.082s-1.095,0.518-1.69,0.672s-1.18,0.231-1.753,0.231
		c-1.022,0-1.96-0.224-2.814-0.672c-0.854-0.448-1.589-1.032-2.205-1.753c-0.616-0.721-1.096-1.54-1.438-2.457
		C474.181,224.746,474.009,223.811,474.009,222.859z"/>
	<path d="M495.325,230.524c-1.036,0-1.984-0.213-2.846-0.641c-0.861-0.427-1.6-0.994-2.215-1.701
		c-0.616-0.707-1.092-1.516-1.428-2.426c-0.336-0.91-0.504-1.841-0.504-2.793c0-0.994,0.179-1.946,0.536-2.856
		c0.357-0.91,0.851-1.715,1.48-2.415c0.63-0.7,1.372-1.256,2.226-1.669c0.854-0.413,1.778-0.62,2.772-0.62
		c1.036,0,1.984,0.221,2.846,0.662c0.861,0.441,1.596,1.019,2.205,1.732c0.61,0.714,1.082,1.522,1.417,2.426
		c0.337,0.903,0.505,1.824,0.505,2.761c0,0.994-0.18,1.946-0.536,2.856c-0.356,0.91-0.847,1.711-1.47,2.405
		c-0.623,0.693-1.361,1.246-2.215,1.659C497.243,230.317,496.319,230.524,495.325,230.524z M489.802,222.964
		c0,0.812,0.133,1.593,0.399,2.342c0.266,0.749,0.644,1.414,1.134,1.995c0.49,0.581,1.071,1.043,1.743,1.386
		c0.672,0.343,1.421,0.515,2.247,0.515c0.84,0,1.603-0.182,2.289-0.546c0.686-0.364,1.267-0.84,1.743-1.428
		c0.476-0.588,0.843-1.253,1.102-1.995c0.259-0.742,0.389-1.498,0.389-2.268c0-0.812-0.136-1.592-0.41-2.341
		c-0.273-0.749-0.654-1.41-1.144-1.984c-0.49-0.574-1.071-1.033-1.743-1.376c-0.672-0.343-1.414-0.514-2.226-0.514
		c-0.84,0-1.603,0.178-2.289,0.535c-0.686,0.357-1.267,0.83-1.743,1.418c-0.476,0.588-0.843,1.253-1.102,1.995
		C489.931,221.438,489.802,222.194,489.802,222.964z"/>
	<path d="M506.602,218.239v12.18h-1.449v-14.91h1.134l9.87,12.411v-12.39h1.449v14.889h-1.26L506.602,218.239z"/>
	<path d="M520.419,222.859c0-0.896,0.157-1.788,0.473-2.677s0.773-1.684,1.376-2.384c0.602-0.7,1.344-1.271,2.226-1.711
		s1.883-0.662,3.003-0.662c1.33,0,2.464,0.301,3.402,0.903c0.938,0.602,1.638,1.386,2.1,2.352l-1.176,0.714
		c-0.238-0.49-0.525-0.903-0.861-1.239s-0.7-0.609-1.092-0.819c-0.393-0.21-0.798-0.36-1.219-0.452
		c-0.42-0.091-0.832-0.136-1.238-0.136c-0.896,0-1.688,0.182-2.373,0.546c-0.686,0.364-1.264,0.84-1.732,1.428
		c-0.469,0.588-0.822,1.25-1.061,1.984s-0.357,1.48-0.357,2.236c0,0.826,0.145,1.617,0.432,2.373
		c0.286,0.756,0.678,1.425,1.176,2.005c0.496,0.581,1.084,1.043,1.764,1.386c0.679,0.343,1.418,0.515,2.215,0.515
		c0.42,0,0.852-0.053,1.292-0.158s0.868-0.273,1.281-0.504s0.794-0.518,1.144-0.861c0.351-0.343,0.645-0.759,0.883-1.25l1.218,0.63
		c-0.238,0.56-0.574,1.054-1.008,1.48c-0.435,0.427-0.917,0.788-1.449,1.082s-1.095,0.518-1.69,0.672s-1.18,0.231-1.754,0.231
		c-1.021,0-1.96-0.224-2.813-0.672c-0.854-0.448-1.589-1.032-2.205-1.753s-1.096-1.54-1.438-2.457
		C520.59,224.746,520.419,223.811,520.419,222.859z"/>
	<path d="M545.871,229.117v1.302h-10.017v-14.91h9.827v1.302h-8.379v5.376h7.309v1.239h-7.309v5.691H545.871z"/>
	<path d="M550.176,218.239v12.18h-1.449v-14.91h1.135l9.869,12.411v-12.39h1.449v14.889h-1.26L550.176,218.239z"/>
	<path d="M575.564,216.811h-5.312v13.608h-1.471v-13.608h-5.312v-1.302h12.096V216.811z"/>
	<path d="M577.854,230.419v-14.91h6.279c0.645,0,1.239,0.137,1.785,0.41s1.015,0.63,1.406,1.071
		c0.393,0.441,0.697,0.942,0.914,1.501c0.217,0.561,0.326,1.127,0.326,1.701c0,0.546-0.082,1.068-0.242,1.564
		c-0.161,0.497-0.389,0.945-0.683,1.344s-0.644,0.735-1.05,1.008s-0.861,0.459-1.365,0.557l3.676,5.754h-1.66l-3.527-5.502h-4.41
		v5.502H577.854z M579.303,223.615h4.893c0.435,0,0.83-0.094,1.188-0.283c0.356-0.189,0.661-0.444,0.913-0.767
		c0.252-0.322,0.448-0.686,0.588-1.092s0.21-0.833,0.21-1.281c0-0.448-0.08-0.878-0.241-1.292c-0.161-0.413-0.378-0.773-0.651-1.082
		c-0.273-0.308-0.596-0.553-0.966-0.735c-0.371-0.182-0.76-0.273-1.165-0.273h-4.768V223.615z"/>
	<path d="M589.971,230.419l6.236-14.91h1.197l6.237,14.91h-1.575l-1.932-4.662h-6.699l-1.91,4.662H589.971z M596.816,217.231
		l-3.065,7.371h6.048L596.816,217.231z"/>
	<path d="M614.918,216.811h-5.312v13.608h-1.471v-13.608h-5.312v-1.302h12.096V216.811z"/>
	<path d="M627.225,229.117v1.302h-10.018v-14.91h9.828v1.302h-8.379v5.376h7.309v1.239h-7.309v5.691H627.225z"/>
</g>
<g>
	<path d="M408.485,338.161l6.237-14.91h1.197l6.237,14.91h-1.575l-1.932-4.662h-6.699l-1.911,4.662H408.485z M415.332,324.973
		l-3.066,7.371h6.048L415.332,324.973z"/>
	<path d="M423.983,322.831h1.428v12.852c0,0.406,0.112,0.725,0.336,0.956s0.539,0.347,0.945,0.347c0.154,0,0.336-0.021,0.546-0.063
		s0.406-0.098,0.588-0.168l0.252,1.155c-0.266,0.112-0.591,0.203-0.977,0.273s-0.717,0.105-0.998,0.105
		c-0.658,0-1.176-0.186-1.554-0.557c-0.378-0.371-0.567-0.893-0.567-1.564V322.831z"/>
	<path d="M437.276,338.161l-4.032-5.607l-2.352,2.184v3.423h-1.428v-15.33h1.428v10.416l6.153-6.006h1.617l-4.473,4.473l4.641,6.447
		H437.276z"/>
	<path d="M443.24,338.371c-0.56,0-1.071-0.087-1.533-0.263c-0.462-0.175-0.858-0.416-1.187-0.724
		c-0.329-0.308-0.584-0.665-0.767-1.071c-0.182-0.406-0.273-0.833-0.273-1.281c0-0.504,0.112-0.962,0.336-1.375
		s0.539-0.767,0.945-1.061c0.406-0.294,0.893-0.521,1.459-0.683c0.567-0.161,1.193-0.241,1.879-0.241
		c0.546,0,1.106,0.049,1.68,0.147c0.574,0.098,1.084,0.238,1.533,0.42v-0.987c0-0.966-0.276-1.732-0.83-2.299
		s-1.298-0.851-2.236-0.851c-0.588,0-1.173,0.112-1.753,0.336c-0.581,0.224-1.173,0.546-1.774,0.966l-0.504-0.945
		c0.714-0.476,1.407-0.833,2.079-1.071c0.672-0.238,1.372-0.357,2.1-0.357c1.33,0,2.387,0.385,3.171,1.155
		c0.784,0.77,1.176,1.834,1.176,3.192v4.935c0,0.392,0.168,0.588,0.504,0.588v1.26c-0.112,0.014-0.217,0.024-0.315,0.032
		c-0.098,0.007-0.182,0.01-0.252,0.01c-0.28,0-0.536-0.084-0.767-0.252s-0.361-0.42-0.389-0.756l-0.042-0.861
		c-0.476,0.644-1.103,1.145-1.879,1.501C444.826,338.193,444.038,338.371,443.24,338.371z M443.597,337.279
		c0.63,0,1.256-0.137,1.879-0.41c0.623-0.273,1.116-0.647,1.48-1.124c0.098-0.126,0.182-0.263,0.252-0.41
		c0.07-0.147,0.105-0.283,0.105-0.409v-1.785c-0.476-0.182-0.973-0.322-1.491-0.42c-0.518-0.098-1.022-0.147-1.512-0.147
		c-1.022,0-1.852,0.207-2.488,0.62c-0.637,0.413-0.956,0.983-0.956,1.711c0,0.294,0.056,0.581,0.168,0.861
		c0.112,0.28,0.283,0.532,0.515,0.756c0.231,0.224,0.514,0.406,0.85,0.546S443.135,337.279,443.597,337.279z"/>
	<path d="M451.913,322.831h1.428v12.852c0,0.406,0.112,0.725,0.336,0.956s0.539,0.347,0.945,0.347c0.154,0,0.336-0.021,0.546-0.063
		s0.406-0.098,0.588-0.168l0.252,1.155c-0.266,0.112-0.591,0.203-0.977,0.273s-0.717,0.105-0.998,0.105
		c-0.658,0-1.176-0.186-1.554-0.557c-0.378-0.371-0.567-0.893-0.567-1.564V322.831z"/>
	<path d="M457.394,324.931v-2.1h1.428v2.1H457.394z M457.394,338.161V327.22h1.428v10.941H457.394z"/>
	<path d="M471.085,338.161h-1.428v-6.111c0-1.302-0.189-2.247-0.567-2.835c-0.378-0.588-0.966-0.882-1.764-0.882
		c-0.42,0-0.84,0.077-1.26,0.231c-0.42,0.154-0.812,0.371-1.176,0.651c-0.364,0.28-0.683,0.612-0.956,0.997
		c-0.273,0.385-0.48,0.802-0.62,1.25v6.699h-1.428V327.22h1.302v2.478c0.224-0.392,0.5-0.752,0.83-1.082
		c0.329-0.329,0.696-0.612,1.103-0.851c0.406-0.238,0.836-0.42,1.292-0.546c0.455-0.126,0.927-0.189,1.417-0.189
		c0.616,0,1.13,0.112,1.543,0.336c0.413,0.224,0.746,0.539,0.998,0.945c0.252,0.406,0.434,0.903,0.546,1.491
		c0.112,0.588,0.168,1.239,0.168,1.953V338.161z"/>
	<path d="M478.834,338.371c-0.798,0-1.533-0.15-2.205-0.452c-0.672-0.301-1.253-0.714-1.743-1.239
		c-0.49-0.525-0.872-1.13-1.145-1.816s-0.41-1.421-0.41-2.205c0-0.77,0.137-1.494,0.41-2.173s0.654-1.274,1.145-1.785
		c0.49-0.511,1.067-0.917,1.732-1.218c0.665-0.301,1.396-0.451,2.194-0.451c0.798,0,1.53,0.15,2.195,0.451
		c0.665,0.301,1.235,0.711,1.711,1.229c0.476,0.518,0.847,1.113,1.113,1.785s0.399,1.386,0.399,2.142
		c0,0.112-0.003,0.224-0.01,0.336c-0.007,0.112-0.018,0.189-0.032,0.231h-9.345c0.042,0.588,0.178,1.131,0.41,1.627
		c0.231,0.497,0.525,0.928,0.882,1.292c0.357,0.364,0.77,0.648,1.239,0.851c0.469,0.203,0.969,0.305,1.501,0.305
		c0.364,0,0.721-0.049,1.071-0.147c0.35-0.098,0.672-0.231,0.966-0.399c0.294-0.168,0.557-0.374,0.788-0.619s0.41-0.515,0.536-0.809
		l1.239,0.336c-0.168,0.406-0.406,0.774-0.714,1.103c-0.308,0.329-0.665,0.616-1.071,0.861c-0.406,0.245-0.854,0.434-1.344,0.567
		C479.856,338.305,479.352,338.371,478.834,338.371z M482.866,332.113c-0.042-0.588-0.179-1.124-0.41-1.606
		c-0.231-0.483-0.525-0.899-0.882-1.25s-0.774-0.623-1.25-0.819c-0.476-0.196-0.98-0.294-1.512-0.294s-1.036,0.098-1.512,0.294
		c-0.476,0.196-0.893,0.469-1.25,0.819s-0.644,0.77-0.861,1.26c-0.217,0.49-0.347,1.022-0.389,1.596H482.866z"/>
	<path d="M502.145,324.553h-5.313v13.608h-1.47v-13.608h-5.313v-1.302h12.096V324.553z"/>
	<path d="M509.536,328.48c-0.966,0.028-1.806,0.294-2.521,0.798c-0.714,0.504-1.218,1.197-1.512,2.079v6.804h-1.428V327.22h1.344
		v2.625c0.378-0.77,0.875-1.41,1.491-1.921s1.28-0.767,1.995-0.767c0.125,0,0.244,0,0.357,0c0.111,0,0.202,0.007,0.272,0.021V328.48
		z"/>
	<path d="M516.234,338.371c-0.797,0-1.532-0.15-2.204-0.452c-0.673-0.301-1.253-0.714-1.743-1.239s-0.871-1.13-1.145-1.816
		s-0.41-1.421-0.41-2.205c0-0.77,0.137-1.494,0.41-2.173s0.654-1.274,1.145-1.785c0.49-0.511,1.067-0.917,1.732-1.218
		c0.665-0.301,1.396-0.451,2.194-0.451s1.53,0.15,2.194,0.451c0.665,0.301,1.236,0.711,1.712,1.229
		c0.476,0.518,0.847,1.113,1.112,1.785c0.267,0.672,0.399,1.386,0.399,2.142c0,0.112-0.003,0.224-0.011,0.336
		c-0.007,0.112-0.018,0.189-0.031,0.231h-9.345c0.042,0.588,0.179,1.131,0.409,1.627c0.231,0.497,0.525,0.928,0.883,1.292
		c0.356,0.364,0.77,0.648,1.238,0.851c0.469,0.203,0.969,0.305,1.502,0.305c0.363,0,0.721-0.049,1.07-0.147s0.672-0.231,0.967-0.399
		c0.293-0.168,0.557-0.374,0.787-0.619s0.41-0.515,0.535-0.809l1.239,0.336c-0.168,0.406-0.406,0.774-0.714,1.103
		c-0.309,0.329-0.665,0.616-1.071,0.861c-0.405,0.245-0.854,0.434-1.344,0.567C517.257,338.305,516.753,338.371,516.234,338.371z
		 M520.268,332.113c-0.043-0.588-0.18-1.124-0.41-1.606c-0.23-0.483-0.525-0.899-0.882-1.25s-0.774-0.623-1.249-0.819
		c-0.477-0.196-0.98-0.294-1.513-0.294s-1.036,0.098-1.512,0.294c-0.476,0.196-0.893,0.469-1.249,0.819
		c-0.357,0.35-0.645,0.77-0.861,1.26c-0.217,0.49-0.347,1.022-0.389,1.596H520.268z"/>
	<path d="M526.672,338.371c-0.561,0-1.071-0.087-1.533-0.263c-0.462-0.175-0.857-0.416-1.187-0.724s-0.585-0.665-0.767-1.071
		c-0.182-0.406-0.273-0.833-0.273-1.281c0-0.504,0.112-0.962,0.336-1.375c0.225-0.413,0.539-0.767,0.945-1.061
		s0.893-0.521,1.46-0.683c0.567-0.161,1.193-0.241,1.88-0.241c0.545,0,1.105,0.049,1.68,0.147s1.084,0.238,1.533,0.42v-0.987
		c0-0.966-0.277-1.732-0.83-2.299s-1.299-0.851-2.236-0.851c-0.588,0-1.173,0.112-1.754,0.336c-0.58,0.224-1.172,0.546-1.773,0.966
		l-0.504-0.945c0.713-0.476,1.406-0.833,2.078-1.071c0.672-0.238,1.372-0.357,2.1-0.357c1.33,0,2.387,0.385,3.172,1.155
		c0.783,0.77,1.176,1.834,1.176,3.192v4.935c0,0.392,0.168,0.588,0.504,0.588v1.26c-0.112,0.014-0.217,0.024-0.314,0.032
		c-0.099,0.007-0.183,0.01-0.252,0.01c-0.281,0-0.536-0.084-0.768-0.252c-0.23-0.168-0.36-0.42-0.389-0.756l-0.041-0.861
		c-0.477,0.644-1.104,1.145-1.88,1.501C528.258,338.193,527.47,338.371,526.672,338.371z M527.029,337.279
		c0.629,0,1.256-0.137,1.879-0.41s1.116-0.647,1.48-1.124c0.098-0.126,0.182-0.263,0.252-0.41s0.105-0.283,0.105-0.409v-1.785
		c-0.477-0.182-0.974-0.322-1.491-0.42c-0.519-0.098-1.022-0.147-1.513-0.147c-1.021,0-1.852,0.207-2.488,0.62
		s-0.955,0.983-0.955,1.711c0,0.294,0.056,0.581,0.168,0.861c0.111,0.28,0.283,0.532,0.515,0.756
		c0.231,0.224,0.515,0.406,0.851,0.546S526.566,337.279,527.029,337.279z"/>
	<path d="M540.428,337.636c-0.084,0.042-0.207,0.098-0.368,0.168c-0.161,0.07-0.347,0.14-0.557,0.21
		c-0.21,0.07-0.448,0.133-0.714,0.189s-0.546,0.084-0.84,0.084c-0.309,0-0.602-0.042-0.883-0.126
		c-0.279-0.084-0.524-0.213-0.734-0.389c-0.21-0.175-0.378-0.395-0.504-0.661s-0.189-0.574-0.189-0.924v-7.833h-1.512v-1.134h1.512
		v-3.696h1.428v3.696h2.521v1.134h-2.521v7.434c0.028,0.406,0.168,0.704,0.42,0.893c0.253,0.189,0.554,0.284,0.904,0.284
		c0.405,0,0.762-0.066,1.07-0.2c0.309-0.133,0.504-0.228,0.588-0.284L540.428,337.636z"/>
	<path d="M558.382,338.161h-1.429v-6.111c0-1.274-0.199-2.212-0.598-2.814c-0.399-0.602-1.005-0.903-1.816-0.903
		c-0.42,0-0.816,0.077-1.188,0.231c-0.371,0.154-0.713,0.371-1.028,0.651c-0.315,0.28-0.592,0.612-0.829,0.997
		c-0.238,0.385-0.42,0.809-0.547,1.271v6.678h-1.428v-6.111c0-1.302-0.195-2.247-0.588-2.835c-0.393-0.588-0.994-0.882-1.807-0.882
		c-0.826,0-1.561,0.287-2.204,0.861s-1.106,1.33-1.386,2.268v6.699h-1.428V327.22h1.301v2.478c0.448-0.84,1.037-1.495,1.765-1.963
		c0.728-0.469,1.532-0.704,2.415-0.704c0.924,0,1.666,0.259,2.227,0.777c0.559,0.518,0.895,1.197,1.008,2.037
		c1.021-1.876,2.436-2.814,4.242-2.814c0.602,0,1.115,0.112,1.543,0.336c0.427,0.224,0.77,0.542,1.029,0.956
		c0.258,0.413,0.447,0.91,0.566,1.491c0.119,0.581,0.179,1.229,0.179,1.943V338.161z"/>
	<path d="M566.131,338.371c-0.799,0-1.533-0.15-2.205-0.452c-0.672-0.301-1.254-0.714-1.743-1.239
		c-0.49-0.525-0.872-1.13-1.145-1.816s-0.409-1.421-0.409-2.205c0-0.77,0.137-1.494,0.409-2.173s0.654-1.274,1.145-1.785
		c0.489-0.511,1.067-0.917,1.732-1.218c0.665-0.301,1.396-0.451,2.194-0.451c0.799,0,1.529,0.15,2.195,0.451
		c0.664,0.301,1.234,0.711,1.711,1.229c0.476,0.518,0.847,1.113,1.113,1.785c0.266,0.672,0.398,1.386,0.398,2.142
		c0,0.112-0.004,0.224-0.01,0.336c-0.008,0.112-0.018,0.189-0.032,0.231h-9.345c0.042,0.588,0.178,1.131,0.41,1.627
		c0.23,0.497,0.524,0.928,0.881,1.292c0.357,0.364,0.77,0.648,1.239,0.851c0.47,0.203,0.97,0.305,1.501,0.305
		c0.365,0,0.722-0.049,1.072-0.147c0.35-0.098,0.672-0.231,0.965-0.399c0.295-0.168,0.557-0.374,0.788-0.619
		s0.409-0.515,0.536-0.809l1.238,0.336c-0.168,0.406-0.406,0.774-0.714,1.103c-0.308,0.329-0.665,0.616-1.071,0.861
		c-0.406,0.245-0.854,0.434-1.344,0.567C567.152,338.305,566.648,338.371,566.131,338.371z M570.162,332.113
		c-0.041-0.588-0.178-1.124-0.409-1.606c-0.231-0.483-0.524-0.899-0.882-1.25s-0.773-0.623-1.25-0.819
		c-0.476-0.196-0.979-0.294-1.512-0.294s-1.036,0.098-1.512,0.294c-0.477,0.196-0.893,0.469-1.25,0.819
		c-0.356,0.35-0.644,0.77-0.86,1.26c-0.218,0.49-0.347,1.022-0.389,1.596H570.162z"/>
	<path d="M582.867,338.161h-1.428v-6.111c0-1.302-0.189-2.247-0.567-2.835c-0.378-0.588-0.966-0.882-1.764-0.882
		c-0.421,0-0.841,0.077-1.261,0.231c-0.42,0.154-0.812,0.371-1.176,0.651c-0.363,0.28-0.682,0.612-0.955,0.997
		c-0.273,0.385-0.48,0.802-0.619,1.25v6.699h-1.428V327.22h1.301v2.478c0.225-0.392,0.501-0.752,0.83-1.082
		c0.328-0.329,0.696-0.612,1.103-0.851c0.405-0.238,0.837-0.42,1.292-0.546c0.454-0.126,0.927-0.189,1.417-0.189
		c0.616,0,1.13,0.112,1.544,0.336c0.412,0.224,0.745,0.539,0.997,0.945c0.252,0.406,0.434,0.903,0.546,1.491
		c0.111,0.588,0.168,1.239,0.168,1.953V338.161z"/>
	<path d="M591.036,337.636c-0.084,0.042-0.207,0.098-0.368,0.168c-0.16,0.07-0.346,0.14-0.557,0.21
		c-0.209,0.07-0.447,0.133-0.713,0.189c-0.267,0.056-0.547,0.084-0.84,0.084c-0.309,0-0.603-0.042-0.883-0.126
		s-0.525-0.213-0.734-0.389c-0.211-0.175-0.379-0.395-0.504-0.661c-0.127-0.266-0.189-0.574-0.189-0.924v-7.833h-1.512v-1.134h1.512
		v-3.696h1.428v3.696h2.52v1.134h-2.52v7.434c0.027,0.406,0.168,0.704,0.42,0.893s0.553,0.284,0.903,0.284
		c0.405,0,0.763-0.066,1.071-0.2c0.308-0.133,0.504-0.228,0.588-0.284L591.036,337.636z"/>
</g>
<g>
	<path d="M381.491,398.562v12.18h-1.449v-14.91h1.134l9.87,12.411v-12.39h1.449v14.889h-1.26L381.491,398.562z"/>
	<path d="M400.706,410.952c-0.798,0-1.533-0.15-2.205-0.452c-0.672-0.301-1.253-0.714-1.743-1.239
		c-0.49-0.525-0.872-1.13-1.145-1.816s-0.41-1.421-0.41-2.205c0-0.77,0.137-1.494,0.41-2.173s0.654-1.274,1.145-1.785
		c0.49-0.511,1.067-0.917,1.732-1.218c0.665-0.301,1.396-0.451,2.194-0.451c0.798,0,1.53,0.15,2.195,0.451
		c0.665,0.301,1.235,0.711,1.711,1.229c0.476,0.518,0.847,1.113,1.113,1.785s0.399,1.386,0.399,2.142
		c0,0.112-0.003,0.224-0.01,0.336c-0.007,0.112-0.018,0.189-0.032,0.231h-9.345c0.042,0.588,0.178,1.131,0.41,1.627
		c0.231,0.497,0.525,0.928,0.882,1.292c0.357,0.364,0.77,0.648,1.239,0.851c0.469,0.203,0.969,0.305,1.501,0.305
		c0.364,0,0.721-0.049,1.071-0.147c0.35-0.098,0.672-0.231,0.966-0.399c0.294-0.168,0.557-0.374,0.788-0.619s0.41-0.515,0.536-0.809
		l1.239,0.336c-0.168,0.406-0.406,0.774-0.714,1.103c-0.308,0.329-0.665,0.616-1.071,0.861c-0.406,0.245-0.854,0.434-1.344,0.567
		C401.728,410.886,401.224,410.952,400.706,410.952z M404.738,404.694c-0.042-0.588-0.179-1.124-0.41-1.606
		c-0.231-0.483-0.525-0.899-0.882-1.25s-0.774-0.623-1.25-0.819c-0.476-0.196-0.98-0.294-1.512-0.294s-1.036,0.098-1.512,0.294
		c-0.476,0.196-0.893,0.469-1.25,0.819s-0.644,0.77-0.861,1.26c-0.217,0.49-0.347,1.022-0.389,1.596H404.738z"/>
	<path d="M411.625,410.952c-1.148,0-2.016-0.396-2.604-1.187c-0.588-0.791-0.882-1.97-0.882-3.539v-6.426h1.428v6.174
		c0,2.478,0.847,3.717,2.541,3.717c0.42,0,0.833-0.07,1.239-0.21c0.406-0.14,0.78-0.343,1.123-0.609
		c0.343-0.266,0.651-0.581,0.924-0.945c0.273-0.364,0.493-0.777,0.662-1.239v-6.888h1.428v9.093c0,0.392,0.175,0.588,0.525,0.588
		v1.26c-0.28,0.042-0.476,0.063-0.588,0.063c-0.322,0-0.599-0.098-0.83-0.294c-0.231-0.196-0.346-0.441-0.346-0.735v-1.512
		c-0.49,0.854-1.142,1.516-1.953,1.984C413.48,410.718,412.591,410.952,411.625,410.952z"/>
	<path d="M425.99,410.217c-0.084,0.042-0.207,0.098-0.368,0.168c-0.161,0.07-0.347,0.14-0.557,0.21
		c-0.21,0.07-0.448,0.133-0.714,0.189c-0.266,0.056-0.546,0.084-0.84,0.084c-0.308,0-0.602-0.042-0.882-0.126
		s-0.525-0.213-0.735-0.389c-0.21-0.175-0.378-0.395-0.504-0.661s-0.189-0.574-0.189-0.924v-7.833h-1.512v-1.134h1.512v-3.696h1.428
		v3.696h2.52v1.134h-2.52v7.434c0.028,0.406,0.168,0.704,0.42,0.893c0.252,0.189,0.553,0.284,0.903,0.284
		c0.406,0,0.763-0.066,1.071-0.2c0.308-0.133,0.504-0.228,0.588-0.284L425.99,410.217z"/>
	<path d="M433.129,401.061c-0.966,0.028-1.806,0.294-2.52,0.798c-0.714,0.504-1.218,1.197-1.512,2.079v6.804h-1.428v-10.941h1.344
		v2.625c0.378-0.77,0.875-1.41,1.491-1.921c0.616-0.511,1.281-0.767,1.995-0.767c0.126,0,0.245,0,0.357,0
		c0.112,0,0.203,0.007,0.273,0.021V401.061z"/>
	<path d="M437.729,410.952c-0.56,0-1.071-0.087-1.533-0.263c-0.462-0.175-0.858-0.416-1.187-0.724
		c-0.329-0.308-0.584-0.665-0.767-1.071c-0.182-0.406-0.273-0.833-0.273-1.281c0-0.504,0.112-0.962,0.336-1.375
		s0.539-0.767,0.945-1.061c0.406-0.294,0.893-0.521,1.459-0.683c0.567-0.161,1.193-0.241,1.879-0.241
		c0.546,0,1.106,0.049,1.68,0.147c0.574,0.098,1.084,0.238,1.533,0.42v-0.987c0-0.966-0.276-1.732-0.83-2.299
		s-1.298-0.851-2.236-0.851c-0.588,0-1.173,0.112-1.753,0.336c-0.581,0.224-1.173,0.546-1.774,0.966l-0.504-0.945
		c0.714-0.476,1.407-0.833,2.079-1.071c0.672-0.238,1.372-0.357,2.1-0.357c1.33,0,2.387,0.385,3.171,1.155
		c0.784,0.77,1.176,1.834,1.176,3.192v4.935c0,0.392,0.168,0.588,0.504,0.588v1.26c-0.112,0.014-0.217,0.024-0.315,0.032
		c-0.098,0.007-0.182,0.01-0.252,0.01c-0.28,0-0.536-0.084-0.767-0.252s-0.361-0.42-0.389-0.756l-0.042-0.861
		c-0.476,0.644-1.103,1.145-1.879,1.501C439.314,410.774,438.526,410.952,437.729,410.952z M438.085,409.86
		c0.63,0,1.256-0.137,1.879-0.41c0.623-0.273,1.116-0.647,1.48-1.124c0.098-0.126,0.182-0.263,0.252-0.41
		c0.07-0.147,0.105-0.283,0.105-0.409v-1.785c-0.476-0.182-0.973-0.322-1.491-0.42c-0.518-0.098-1.022-0.147-1.512-0.147
		c-1.022,0-1.852,0.207-2.488,0.62c-0.637,0.413-0.956,0.983-0.956,1.711c0,0.294,0.056,0.581,0.168,0.861
		c0.112,0.28,0.283,0.532,0.515,0.756c0.231,0.224,0.514,0.406,0.85,0.546S437.624,409.86,438.085,409.86z"/>
	<path d="M446.401,395.412h1.428v12.852c0,0.406,0.112,0.725,0.336,0.956s0.539,0.347,0.945,0.347c0.154,0,0.336-0.021,0.546-0.063
		s0.406-0.098,0.588-0.168l0.252,1.155c-0.266,0.112-0.591,0.203-0.977,0.273s-0.717,0.105-0.998,0.105
		c-0.658,0-1.176-0.186-1.554-0.557c-0.378-0.371-0.567-0.893-0.567-1.564V395.412z"/>
	<path d="M451.882,397.512v-2.1h1.428v2.1H451.882z M451.882,410.742v-10.941h1.428v10.941H451.882z"/>
	<path d="M455.431,409.776l7.392-8.904h-7.224v-1.071h8.778v0.966l-7.35,8.904h7.35v1.071h-8.946V409.776z"/>
	<path d="M469.48,410.952c-0.56,0-1.071-0.087-1.533-0.263c-0.462-0.175-0.858-0.416-1.187-0.724
		c-0.329-0.308-0.584-0.665-0.767-1.071c-0.182-0.406-0.273-0.833-0.273-1.281c0-0.504,0.112-0.962,0.336-1.375
		s0.539-0.767,0.945-1.061c0.406-0.294,0.893-0.521,1.459-0.683c0.567-0.161,1.193-0.241,1.879-0.241
		c0.546,0,1.106,0.049,1.68,0.147c0.574,0.098,1.084,0.238,1.533,0.42v-0.987c0-0.966-0.276-1.732-0.83-2.299
		s-1.298-0.851-2.236-0.851c-0.588,0-1.173,0.112-1.753,0.336c-0.581,0.224-1.173,0.546-1.774,0.966l-0.504-0.945
		c0.714-0.476,1.407-0.833,2.079-1.071c0.672-0.238,1.372-0.357,2.1-0.357c1.33,0,2.387,0.385,3.171,1.155
		c0.784,0.77,1.176,1.834,1.176,3.192v4.935c0,0.392,0.168,0.588,0.504,0.588v1.26c-0.112,0.014-0.217,0.024-0.315,0.032
		c-0.098,0.007-0.182,0.01-0.252,0.01c-0.28,0-0.536-0.084-0.767-0.252s-0.361-0.42-0.389-0.756l-0.042-0.861
		c-0.476,0.644-1.103,1.145-1.879,1.501C471.065,410.774,470.278,410.952,469.48,410.952z M469.837,409.86
		c0.63,0,1.256-0.137,1.879-0.41c0.623-0.273,1.116-0.647,1.48-1.124c0.098-0.126,0.182-0.263,0.252-0.41
		c0.07-0.147,0.105-0.283,0.105-0.409v-1.785c-0.476-0.182-0.973-0.322-1.491-0.42c-0.518-0.098-1.022-0.147-1.512-0.147
		c-1.022,0-1.852,0.207-2.488,0.62c-0.637,0.413-0.956,0.983-0.956,1.711c0,0.294,0.056,0.581,0.168,0.861
		c0.112,0.28,0.283,0.532,0.515,0.756c0.231,0.224,0.514,0.406,0.85,0.546S469.375,409.86,469.837,409.86z"/>
	<path d="M483.235,410.217c-0.084,0.042-0.207,0.098-0.368,0.168c-0.161,0.07-0.347,0.14-0.557,0.21
		c-0.21,0.07-0.448,0.133-0.714,0.189c-0.266,0.056-0.546,0.084-0.84,0.084c-0.308,0-0.602-0.042-0.882-0.126
		s-0.525-0.213-0.735-0.389c-0.21-0.175-0.378-0.395-0.504-0.661s-0.189-0.574-0.189-0.924v-7.833h-1.512v-1.134h1.512v-3.696h1.428
		v3.696h2.52v1.134h-2.52v7.434c0.028,0.406,0.168,0.704,0.42,0.893c0.252,0.189,0.553,0.284,0.903,0.284
		c0.406,0,0.763-0.066,1.071-0.2c0.308-0.133,0.504-0.228,0.588-0.284L483.235,410.217z"/>
	<path d="M484.915,397.512v-2.1h1.428v2.1H484.915z M484.915,410.742v-10.941h1.428v10.941H484.915z"/>
	<path d="M494.133,410.952c-0.798,0-1.529-0.15-2.194-0.452c-0.665-0.301-1.239-0.71-1.722-1.229
		c-0.483-0.518-0.857-1.12-1.124-1.806s-0.399-1.407-0.399-2.163c0-0.77,0.137-1.498,0.41-2.184
		c0.273-0.686,0.651-1.288,1.134-1.806c0.483-0.518,1.057-0.931,1.722-1.239c0.665-0.308,1.389-0.462,2.173-0.462
		s1.509,0.154,2.174,0.462c0.665,0.308,1.239,0.721,1.722,1.239c0.483,0.518,0.861,1.121,1.134,1.806
		c0.273,0.686,0.409,1.414,0.409,2.184c0,0.756-0.136,1.477-0.409,2.163s-0.651,1.288-1.134,1.806
		c-0.483,0.519-1.057,0.928-1.722,1.229C495.642,410.802,494.917,410.952,494.133,410.952z M490.164,405.324
		c0,0.616,0.102,1.187,0.304,1.711c0.203,0.525,0.483,0.987,0.84,1.386c0.357,0.399,0.777,0.71,1.26,0.934
		c0.483,0.224,0.998,0.336,1.543,0.336c0.546,0,1.061-0.116,1.543-0.347c0.483-0.231,0.907-0.546,1.271-0.945
		c0.364-0.399,0.651-0.864,0.861-1.396s0.315-1.106,0.315-1.722c0-0.602-0.105-1.172-0.315-1.711s-0.497-1.008-0.861-1.407
		c-0.364-0.399-0.784-0.714-1.26-0.945c-0.476-0.231-0.987-0.347-1.533-0.347c-0.546,0-1.061,0.116-1.543,0.347
		s-0.903,0.549-1.26,0.956s-0.641,0.878-0.851,1.417S490.164,404.708,490.164,405.324z"/>
	<path d="M511.101,410.742h-1.428v-6.111c0-1.302-0.189-2.247-0.567-2.835c-0.378-0.588-0.966-0.882-1.764-0.882
		c-0.42,0-0.84,0.077-1.26,0.231c-0.42,0.154-0.812,0.371-1.176,0.651c-0.365,0.28-0.684,0.612-0.956,0.997
		c-0.272,0.385-0.479,0.802-0.62,1.25v6.699h-1.428v-10.941h1.303v2.478c0.223-0.392,0.5-0.752,0.829-1.082
		c0.329-0.329,0.696-0.612,1.103-0.851c0.406-0.238,0.836-0.42,1.291-0.546s0.928-0.189,1.418-0.189
		c0.615,0,1.131,0.112,1.543,0.336c0.413,0.224,0.746,0.539,0.998,0.945c0.252,0.406,0.434,0.903,0.546,1.491
		s0.168,1.239,0.168,1.953V410.742z"/>
	<path d="M529.917,410.742l-1.722-1.806c-0.588,0.63-1.268,1.124-2.037,1.48c-0.771,0.357-1.604,0.536-2.5,0.536
		c-0.658,0-1.273-0.098-1.848-0.294s-1.074-0.473-1.502-0.83c-0.427-0.357-0.766-0.784-1.018-1.281s-0.379-1.046-0.379-1.648
		c0-0.504,0.084-0.962,0.252-1.375c0.169-0.413,0.4-0.798,0.693-1.155c0.295-0.357,0.631-0.689,1.008-0.998
		c0.379-0.308,0.777-0.609,1.197-0.903c-0.378-0.406-0.696-0.77-0.955-1.092c-0.26-0.322-0.469-0.619-0.631-0.892
		c-0.16-0.273-0.275-0.536-0.346-0.788s-0.105-0.511-0.105-0.777c0-0.462,0.095-0.892,0.283-1.291
		c0.189-0.399,0.452-0.746,0.788-1.04c0.336-0.294,0.731-0.525,1.187-0.693s0.948-0.252,1.48-0.252c0.49,0,0.945,0.07,1.365,0.21
		c0.42,0.14,0.787,0.34,1.103,0.599c0.315,0.259,0.563,0.571,0.745,0.935c0.182,0.364,0.273,0.763,0.273,1.197
		c0,0.434-0.088,0.833-0.263,1.197c-0.175,0.364-0.409,0.707-0.704,1.029c-0.293,0.322-0.637,0.627-1.028,0.914
		c-0.392,0.287-0.812,0.578-1.261,0.872l4.18,4.368c0.279-0.532,0.5-1.109,0.662-1.733c0.16-0.623,0.24-1.277,0.24-1.963h1.219
		c-0.014,0.868-0.13,1.688-0.347,2.457c-0.218,0.77-0.528,1.477-0.935,2.121l2.793,2.898H529.917z M523.806,409.797
		c0.714,0,1.376-0.15,1.985-0.452c0.608-0.301,1.144-0.717,1.605-1.25l-4.515-4.767c-0.742,0.518-1.358,1.061-1.849,1.627
		c-0.49,0.567-0.734,1.229-0.734,1.985c0,0.462,0.102,0.871,0.305,1.229c0.203,0.357,0.469,0.658,0.798,0.903
		c0.329,0.245,0.704,0.427,1.124,0.546C522.945,409.738,523.371,409.797,523.806,409.797z M521.349,398.877
		c0,0.168,0.024,0.336,0.073,0.504s0.141,0.36,0.273,0.577c0.133,0.217,0.314,0.469,0.546,0.756s0.536,0.626,0.913,1.019
		c0.406-0.28,0.781-0.542,1.124-0.788s0.637-0.49,0.882-0.735c0.245-0.245,0.434-0.497,0.566-0.756c0.134-0.259,0.2-0.536,0.2-0.83
		c0-0.546-0.203-0.994-0.608-1.344c-0.406-0.35-0.925-0.525-1.555-0.525c-0.35,0-0.672,0.056-0.966,0.168
		c-0.294,0.112-0.55,0.266-0.767,0.462c-0.217,0.196-0.385,0.42-0.504,0.672S521.349,398.583,521.349,398.877z"/>
	<path d="M539.283,410.742v-14.91h9.764v1.302h-8.315v5.481h7.035v1.218h-7.035v6.909H539.283z"/>
	<path d="M551.211,397.512v-2.1h1.428v2.1H551.211z M551.211,410.742v-10.941h1.428v10.941H551.211z"/>
	<path d="M555.768,395.412h1.428v12.852c0,0.406,0.111,0.725,0.336,0.956c0.224,0.231,0.539,0.347,0.945,0.347
		c0.153,0,0.336-0.021,0.545-0.063c0.211-0.042,0.406-0.098,0.588-0.168l0.252,1.155c-0.266,0.112-0.591,0.203-0.977,0.273
		c-0.385,0.07-0.717,0.105-0.997,0.105c-0.658,0-1.176-0.186-1.554-0.557c-0.378-0.371-0.566-0.893-0.566-1.564V395.412z"/>
	<path d="M566.414,410.217c-0.084,0.042-0.207,0.098-0.367,0.168c-0.162,0.07-0.348,0.14-0.557,0.21
		c-0.211,0.07-0.449,0.133-0.715,0.189s-0.545,0.084-0.84,0.084c-0.308,0-0.602-0.042-0.882-0.126s-0.524-0.213-0.735-0.389
		c-0.209-0.175-0.377-0.395-0.504-0.661c-0.125-0.266-0.188-0.574-0.188-0.924v-7.833h-1.513v-1.134h1.513v-3.696h1.428v3.696h2.521
		v1.134h-2.521v7.434c0.028,0.406,0.168,0.704,0.42,0.893c0.253,0.189,0.554,0.284,0.903,0.284c0.406,0,0.763-0.066,1.07-0.2
		c0.309-0.133,0.504-0.228,0.588-0.284L566.414,410.217z"/>
	<path d="M573.554,401.061c-0.966,0.028-1.806,0.294-2.521,0.798c-0.714,0.504-1.218,1.197-1.512,2.079v6.804h-1.428v-10.941h1.344
		v2.625c0.378-0.77,0.875-1.41,1.491-1.921s1.28-0.767,1.995-0.767c0.125,0,0.244,0,0.357,0c0.111,0,0.202,0.007,0.272,0.021
		V401.061z"/>
	<path d="M578.152,410.952c-0.56,0-1.07-0.087-1.533-0.263c-0.461-0.175-0.857-0.416-1.186-0.724
		c-0.33-0.308-0.585-0.665-0.768-1.071c-0.182-0.406-0.272-0.833-0.272-1.281c0-0.504,0.112-0.962,0.336-1.375
		s0.539-0.767,0.945-1.061c0.405-0.294,0.893-0.521,1.46-0.683c0.566-0.161,1.193-0.241,1.879-0.241c0.546,0,1.105,0.049,1.68,0.147
		s1.085,0.238,1.533,0.42v-0.987c0-0.966-0.276-1.732-0.83-2.299c-0.553-0.567-1.298-0.851-2.236-0.851
		c-0.588,0-1.172,0.112-1.753,0.336c-0.581,0.224-1.173,0.546-1.774,0.966l-0.504-0.945c0.714-0.476,1.406-0.833,2.078-1.071
		c0.673-0.238,1.373-0.357,2.101-0.357c1.33,0,2.387,0.385,3.171,1.155c0.784,0.77,1.176,1.834,1.176,3.192v4.935
		c0,0.392,0.168,0.588,0.504,0.588v1.26c-0.111,0.014-0.217,0.024-0.314,0.032c-0.098,0.007-0.182,0.01-0.252,0.01
		c-0.28,0-0.535-0.084-0.767-0.252s-0.36-0.42-0.389-0.756l-0.042-0.861c-0.477,0.644-1.103,1.145-1.879,1.501
		C579.738,410.774,578.951,410.952,578.152,410.952z M578.51,409.86c0.63,0,1.256-0.137,1.879-0.41s1.117-0.647,1.48-1.124
		c0.098-0.126,0.182-0.263,0.252-0.41s0.105-0.283,0.105-0.409v-1.785c-0.477-0.182-0.973-0.322-1.49-0.42
		c-0.519-0.098-1.023-0.147-1.513-0.147c-1.022,0-1.852,0.207-2.488,0.62c-0.638,0.413-0.956,0.983-0.956,1.711
		c0,0.294,0.057,0.581,0.168,0.861c0.112,0.28,0.283,0.532,0.516,0.756c0.23,0.224,0.514,0.406,0.85,0.546
		S578.048,409.86,578.51,409.86z"/>
	<path d="M591.908,410.217c-0.084,0.042-0.207,0.098-0.368,0.168c-0.161,0.07-0.347,0.14-0.557,0.21
		c-0.21,0.07-0.448,0.133-0.714,0.189s-0.546,0.084-0.84,0.084c-0.309,0-0.602-0.042-0.883-0.126
		c-0.279-0.084-0.524-0.213-0.734-0.389c-0.21-0.175-0.378-0.395-0.504-0.661s-0.189-0.574-0.189-0.924v-7.833h-1.512v-1.134h1.512
		v-3.696h1.428v3.696h2.521v1.134h-2.521v7.434c0.028,0.406,0.168,0.704,0.42,0.893c0.253,0.189,0.554,0.284,0.904,0.284
		c0.405,0,0.762-0.066,1.07-0.2c0.309-0.133,0.504-0.228,0.588-0.284L591.908,410.217z"/>
	<path d="M593.588,397.512v-2.1h1.428v2.1H593.588z M593.588,410.742v-10.941h1.428v10.941H593.588z"/>
	<path d="M602.807,410.952c-0.799,0-1.529-0.15-2.195-0.452c-0.664-0.301-1.238-0.71-1.722-1.229
		c-0.483-0.518-0.857-1.12-1.124-1.806c-0.266-0.686-0.398-1.407-0.398-2.163c0-0.77,0.137-1.498,0.41-2.184
		c0.272-0.686,0.65-1.288,1.133-1.806c0.484-0.518,1.058-0.931,1.723-1.239c0.665-0.308,1.389-0.462,2.174-0.462
		c0.783,0,1.508,0.154,2.174,0.462c0.664,0.308,1.238,0.721,1.721,1.239c0.484,0.518,0.861,1.121,1.135,1.806
		c0.273,0.686,0.409,1.414,0.409,2.184c0,0.756-0.136,1.477-0.409,2.163s-0.65,1.288-1.135,1.806
		c-0.482,0.519-1.057,0.928-1.721,1.229C604.314,410.802,603.59,410.952,602.807,410.952z M598.838,405.324
		c0,0.616,0.102,1.187,0.304,1.711c0.203,0.525,0.483,0.987,0.841,1.386c0.356,0.399,0.776,0.71,1.26,0.934
		c0.482,0.224,0.997,0.336,1.543,0.336c0.547,0,1.061-0.116,1.543-0.347c0.484-0.231,0.907-0.546,1.271-0.945
		c0.363-0.399,0.65-0.864,0.861-1.396c0.209-0.532,0.314-1.106,0.314-1.722c0-0.602-0.105-1.172-0.314-1.711
		c-0.211-0.539-0.498-1.008-0.861-1.407c-0.364-0.399-0.785-0.714-1.26-0.945c-0.477-0.231-0.987-0.347-1.533-0.347
		c-0.547,0-1.061,0.116-1.544,0.347s-0.903,0.549-1.26,0.956s-0.641,0.878-0.851,1.417S598.838,404.708,598.838,405.324z"/>
	<path d="M619.774,410.742h-1.429v-6.111c0-1.302-0.188-2.247-0.566-2.835c-0.378-0.588-0.967-0.882-1.765-0.882
		c-0.42,0-0.84,0.077-1.26,0.231c-0.42,0.154-0.812,0.371-1.176,0.651c-0.364,0.28-0.683,0.612-0.956,0.997
		c-0.272,0.385-0.479,0.802-0.619,1.25v6.699h-1.428v-10.941h1.302v2.478c0.224-0.392,0.5-0.752,0.829-1.082
		c0.329-0.329,0.696-0.612,1.103-0.851c0.406-0.238,0.837-0.42,1.292-0.546s0.927-0.189,1.417-0.189
		c0.616,0,1.131,0.112,1.544,0.336c0.413,0.224,0.745,0.539,0.997,0.945c0.252,0.406,0.435,0.903,0.547,1.491
		c0.111,0.588,0.168,1.239,0.168,1.953V410.742z"/>
</g>
<g>
	<path d="M456.094,505.307v-14.91h1.449v13.608h8.631v1.302H456.094z"/>
	<path d="M472.915,505.517c-0.798,0-1.533-0.15-2.205-0.452c-0.672-0.301-1.253-0.713-1.743-1.238
		c-0.49-0.525-0.872-1.131-1.145-1.816s-0.41-1.421-0.41-2.205c0-0.77,0.137-1.494,0.41-2.173s0.654-1.274,1.145-1.785
		c0.49-0.511,1.067-0.917,1.732-1.218c0.665-0.301,1.396-0.451,2.194-0.451c0.798,0,1.53,0.15,2.195,0.451
		c0.665,0.301,1.235,0.711,1.711,1.229c0.476,0.518,0.847,1.113,1.113,1.785s0.399,1.386,0.399,2.142
		c0,0.112-0.003,0.224-0.01,0.336c-0.007,0.112-0.018,0.189-0.032,0.231h-9.345c0.042,0.588,0.178,1.131,0.41,1.628
		c0.231,0.496,0.525,0.928,0.882,1.291c0.357,0.364,0.77,0.648,1.239,0.851c0.469,0.203,0.969,0.305,1.501,0.305
		c0.364,0,0.721-0.049,1.071-0.147c0.35-0.098,0.672-0.23,0.966-0.398s0.557-0.375,0.788-0.619c0.231-0.246,0.41-0.516,0.536-0.809
		l1.239,0.336c-0.168,0.406-0.406,0.773-0.714,1.102c-0.308,0.33-0.665,0.617-1.071,0.861c-0.406,0.245-0.854,0.434-1.344,0.567
		C473.937,505.45,473.433,505.517,472.915,505.517z M476.947,499.259c-0.042-0.588-0.179-1.124-0.41-1.606
		c-0.231-0.483-0.525-0.899-0.882-1.25s-0.774-0.623-1.25-0.819c-0.476-0.196-0.98-0.294-1.512-0.294s-1.036,0.098-1.512,0.294
		c-0.476,0.196-0.893,0.469-1.25,0.819s-0.644,0.77-0.861,1.26c-0.217,0.49-0.347,1.022-0.389,1.596H476.947z"/>
	<path d="M483.352,505.517c-0.56,0-1.071-0.087-1.533-0.263c-0.462-0.175-0.858-0.416-1.187-0.725
		c-0.329-0.308-0.584-0.664-0.767-1.07s-0.273-0.833-0.273-1.281c0-0.504,0.112-0.963,0.336-1.375
		c0.224-0.413,0.539-0.767,0.945-1.061c0.406-0.294,0.893-0.521,1.459-0.683c0.567-0.161,1.193-0.241,1.879-0.241
		c0.546,0,1.106,0.049,1.68,0.147c0.574,0.098,1.084,0.238,1.533,0.42v-0.987c0-0.966-0.276-1.732-0.83-2.299
		s-1.298-0.851-2.236-0.851c-0.588,0-1.173,0.112-1.753,0.336c-0.581,0.224-1.173,0.546-1.774,0.966l-0.504-0.945
		c0.714-0.476,1.407-0.833,2.079-1.071c0.672-0.238,1.372-0.357,2.1-0.357c1.33,0,2.387,0.385,3.171,1.155
		c0.784,0.77,1.176,1.834,1.176,3.192v4.936c0,0.392,0.168,0.588,0.504,0.588v1.26c-0.112,0.014-0.217,0.024-0.315,0.031
		c-0.098,0.008-0.182,0.011-0.252,0.011c-0.28,0-0.536-0.084-0.767-0.252s-0.361-0.42-0.389-0.756l-0.042-0.861
		c-0.476,0.644-1.103,1.145-1.879,1.501C484.937,505.338,484.149,505.517,483.352,505.517z M483.708,504.425
		c0.63,0,1.256-0.137,1.879-0.409c0.623-0.273,1.116-0.648,1.48-1.124c0.098-0.126,0.182-0.263,0.252-0.409
		c0.07-0.147,0.105-0.283,0.105-0.41v-1.785c-0.476-0.182-0.973-0.322-1.491-0.42c-0.518-0.098-1.022-0.147-1.512-0.147
		c-1.022,0-1.852,0.207-2.488,0.62c-0.637,0.413-0.956,0.984-0.956,1.711c0,0.294,0.056,0.581,0.168,0.86
		c0.112,0.281,0.283,0.533,0.515,0.756c0.231,0.225,0.514,0.406,0.85,0.547S483.247,504.425,483.708,504.425z"/>
	<path d="M491.247,499.805c0-0.77,0.133-1.498,0.399-2.184c0.266-0.686,0.641-1.284,1.124-1.795
		c0.483-0.511,1.061-0.914,1.733-1.208c0.672-0.294,1.414-0.441,2.226-0.441c1.036,0,1.939,0.234,2.709,0.704
		c0.77,0.469,1.351,1.102,1.743,1.9l-1.385,0.441c-0.308-0.56-0.735-0.998-1.281-1.312s-1.155-0.473-1.827-0.473
		c-0.56,0-1.082,0.112-1.564,0.336c-0.483,0.224-0.903,0.529-1.26,0.914c-0.357,0.385-0.637,0.844-0.84,1.375
		c-0.203,0.532-0.304,1.113-0.304,1.743c0,0.616,0.105,1.197,0.315,1.743s0.497,1.019,0.861,1.417
		c0.364,0.399,0.788,0.715,1.271,0.945s0.998,0.347,1.543,0.347c0.35,0,0.696-0.05,1.04-0.147s0.662-0.234,0.956-0.409
		s0.546-0.374,0.756-0.599c0.21-0.224,0.357-0.462,0.441-0.714l1.386,0.42c-0.154,0.392-0.378,0.753-0.672,1.081
		c-0.294,0.33-0.641,0.617-1.04,0.861c-0.399,0.245-0.84,0.434-1.323,0.567c-0.483,0.133-0.983,0.199-1.501,0.199
		c-0.798,0-1.533-0.15-2.205-0.452c-0.672-0.301-1.253-0.713-1.743-1.238c-0.49-0.525-0.872-1.131-1.145-1.816
		S491.247,500.589,491.247,499.805z"/>
	<path d="M512.709,505.307h-1.428v-6.111c0-1.246-0.214-2.177-0.641-2.793c-0.428-0.616-1.054-0.924-1.879-0.924
		c-0.406,0-0.809,0.081-1.208,0.242c-0.399,0.161-0.774,0.381-1.124,0.662c-0.35,0.28-0.654,0.609-0.913,0.987
		s-0.452,0.791-0.577,1.239v6.699h-1.428v-15.33h1.428v6.867c0.447-0.826,1.057-1.477,1.826-1.953
		c0.77-0.476,1.596-0.714,2.479-0.714c0.63,0,1.166,0.115,1.606,0.346s0.798,0.553,1.071,0.966c0.272,0.413,0.473,0.91,0.598,1.491
		c0.127,0.581,0.189,1.222,0.189,1.922V505.307z"/>
	<path d="M518.568,505.517c-0.561,0-1.072-0.087-1.533-0.263c-0.463-0.175-0.858-0.416-1.188-0.725
		c-0.328-0.308-0.584-0.664-0.766-1.07c-0.183-0.406-0.273-0.833-0.273-1.281c0-0.504,0.111-0.963,0.336-1.375
		c0.225-0.413,0.539-0.767,0.945-1.061s0.893-0.521,1.459-0.683c0.567-0.161,1.193-0.241,1.88-0.241
		c0.546,0,1.106,0.049,1.681,0.147c0.573,0.098,1.084,0.238,1.532,0.42v-0.987c0-0.966-0.276-1.732-0.829-2.299
		c-0.554-0.567-1.299-0.851-2.236-0.851c-0.588,0-1.174,0.112-1.754,0.336c-0.581,0.224-1.173,0.546-1.774,0.966l-0.504-0.945
		c0.714-0.476,1.407-0.833,2.079-1.071c0.672-0.238,1.371-0.357,2.1-0.357c1.33,0,2.387,0.385,3.171,1.155
		c0.784,0.77,1.177,1.834,1.177,3.192v4.936c0,0.392,0.168,0.588,0.504,0.588v1.26c-0.113,0.014-0.218,0.024-0.315,0.031
		c-0.099,0.008-0.183,0.011-0.252,0.011c-0.28,0-0.536-0.084-0.767-0.252s-0.361-0.42-0.389-0.756l-0.042-0.861
		c-0.476,0.644-1.103,1.145-1.88,1.501C520.153,505.338,519.365,505.517,518.568,505.517z M518.925,504.425
		c0.63,0,1.257-0.137,1.88-0.409c0.622-0.273,1.115-0.648,1.48-1.124c0.098-0.126,0.182-0.263,0.252-0.409
		c0.069-0.147,0.104-0.283,0.104-0.41v-1.785c-0.476-0.182-0.974-0.322-1.491-0.42c-0.518-0.098-1.021-0.147-1.512-0.147
		c-1.021,0-1.852,0.207-2.488,0.62s-0.955,0.984-0.955,1.711c0,0.294,0.055,0.581,0.168,0.86c0.111,0.281,0.283,0.533,0.514,0.756
		c0.231,0.225,0.515,0.406,0.851,0.547S518.463,504.425,518.925,504.425z"/>
	<path d="M532.322,504.781c-0.084,0.043-0.207,0.099-0.367,0.168c-0.161,0.07-0.347,0.141-0.557,0.211s-0.448,0.133-0.714,0.188
		c-0.267,0.056-0.546,0.084-0.84,0.084c-0.308,0-0.603-0.042-0.882-0.126c-0.281-0.084-0.525-0.213-0.735-0.389
		c-0.21-0.175-0.378-0.395-0.504-0.661s-0.188-0.574-0.188-0.925V495.5h-1.513v-1.134h1.513v-3.696h1.428v3.696h2.52v1.134h-2.52
		v7.434c0.027,0.406,0.168,0.703,0.42,0.893s0.553,0.283,0.902,0.283c0.406,0,0.764-0.066,1.071-0.199s0.504-0.228,0.588-0.283
		L532.322,504.781z"/>
	<path d="M538.79,505.517c-0.798,0-1.532-0.15-2.204-0.452c-0.673-0.301-1.254-0.713-1.744-1.238s-0.871-1.131-1.145-1.816
		c-0.272-0.686-0.409-1.421-0.409-2.205c0-0.77,0.137-1.494,0.409-2.173c0.273-0.679,0.654-1.274,1.145-1.785
		c0.49-0.511,1.068-0.917,1.732-1.218c0.666-0.301,1.396-0.451,2.195-0.451c0.798,0,1.529,0.15,2.194,0.451
		c0.665,0.301,1.235,0.711,1.712,1.229c0.475,0.518,0.846,1.113,1.112,1.785s0.399,1.386,0.399,2.142
		c0,0.112-0.004,0.224-0.011,0.336c-0.007,0.112-0.018,0.189-0.032,0.231h-9.344c0.041,0.588,0.178,1.131,0.409,1.628
		c0.231,0.496,0.524,0.928,0.882,1.291c0.357,0.364,0.77,0.648,1.238,0.851c0.47,0.203,0.97,0.305,1.502,0.305
		c0.364,0,0.721-0.049,1.071-0.147c0.35-0.098,0.672-0.23,0.966-0.398s0.557-0.375,0.787-0.619c0.231-0.246,0.41-0.516,0.536-0.809
		l1.239,0.336c-0.168,0.406-0.406,0.773-0.715,1.102c-0.308,0.33-0.664,0.617-1.07,0.861c-0.406,0.245-0.854,0.434-1.344,0.567
		C539.812,505.45,539.309,505.517,538.79,505.517z M542.822,499.259c-0.042-0.588-0.179-1.124-0.41-1.606
		c-0.23-0.483-0.524-0.899-0.881-1.25c-0.357-0.35-0.774-0.623-1.25-0.819c-0.477-0.196-0.98-0.294-1.512-0.294
		c-0.533,0-1.037,0.098-1.512,0.294c-0.477,0.196-0.893,0.469-1.25,0.819s-0.645,0.77-0.861,1.26
		c-0.217,0.49-0.346,1.022-0.389,1.596H542.822z"/>
</g>
<g>
	<path d="M295.344,288.82V301h-1.449v-14.91h1.134l9.87,12.411v-12.39h1.449V301h-1.26L295.344,288.82z"/>
	<path d="M312.669,301.21c-0.56,0-1.071-0.087-1.533-0.263c-0.462-0.175-0.858-0.416-1.187-0.724
		c-0.329-0.308-0.584-0.665-0.767-1.071c-0.182-0.406-0.273-0.833-0.273-1.281c0-0.504,0.112-0.962,0.336-1.375
		s0.539-0.767,0.945-1.061c0.406-0.294,0.893-0.521,1.459-0.683c0.567-0.161,1.193-0.241,1.879-0.241
		c0.546,0,1.106,0.049,1.68,0.147c0.574,0.098,1.084,0.238,1.533,0.42v-0.987c0-0.966-0.276-1.732-0.83-2.299
		s-1.298-0.851-2.236-0.851c-0.588,0-1.173,0.112-1.753,0.336c-0.581,0.224-1.173,0.546-1.774,0.966l-0.504-0.945
		c0.714-0.476,1.407-0.833,2.079-1.071c0.672-0.238,1.372-0.357,2.1-0.357c1.33,0,2.387,0.385,3.171,1.155
		c0.784,0.77,1.176,1.834,1.176,3.192v4.935c0,0.392,0.168,0.588,0.504,0.588V301c-0.112,0.014-0.217,0.024-0.315,0.032
		c-0.098,0.007-0.182,0.01-0.252,0.01c-0.28,0-0.536-0.084-0.767-0.252s-0.361-0.42-0.389-0.756l-0.042-0.861
		c-0.476,0.644-1.103,1.145-1.879,1.501C314.255,301.032,313.467,301.21,312.669,301.21z M313.026,300.118
		c0.63,0,1.256-0.137,1.879-0.41c0.623-0.273,1.116-0.647,1.48-1.124c0.098-0.126,0.182-0.263,0.252-0.41
		c0.07-0.147,0.105-0.283,0.105-0.409v-1.785c-0.476-0.182-0.973-0.322-1.491-0.42c-0.518-0.098-1.022-0.147-1.512-0.147
		c-1.022,0-1.852,0.207-2.488,0.62c-0.637,0.413-0.956,0.983-0.956,1.711c0,0.294,0.056,0.581,0.168,0.861
		c0.112,0.28,0.283,0.532,0.515,0.756c0.231,0.224,0.514,0.406,0.85,0.546S312.564,300.118,313.026,300.118z"/>
	<path d="M327.537,301.105c-1.036,0-1.984-0.213-2.846-0.641c-0.861-0.427-1.6-0.994-2.215-1.701
		c-0.616-0.707-1.092-1.516-1.428-2.426c-0.336-0.91-0.504-1.841-0.504-2.793c0-0.994,0.179-1.946,0.536-2.856
		c0.357-0.91,0.851-1.715,1.48-2.415c0.63-0.7,1.372-1.256,2.226-1.669c0.854-0.413,1.778-0.62,2.772-0.62
		c1.036,0,1.984,0.221,2.846,0.662c0.861,0.441,1.596,1.019,2.205,1.732c0.609,0.714,1.082,1.522,1.417,2.426
		c0.336,0.903,0.504,1.824,0.504,2.761c0,0.994-0.179,1.946-0.536,2.856c-0.357,0.91-0.847,1.711-1.47,2.405
		c-0.623,0.693-1.361,1.246-2.215,1.659C329.455,300.898,328.531,301.105,327.537,301.105z M322.014,293.545
		c0,0.812,0.133,1.593,0.399,2.342c0.266,0.749,0.644,1.414,1.134,1.995c0.49,0.581,1.071,1.043,1.743,1.386
		c0.672,0.343,1.421,0.515,2.247,0.515c0.84,0,1.603-0.182,2.289-0.546c0.686-0.364,1.267-0.84,1.743-1.428
		c0.476-0.588,0.843-1.253,1.102-1.995c0.259-0.742,0.389-1.498,0.389-2.268c0-0.812-0.136-1.592-0.41-2.341
		c-0.273-0.749-0.654-1.41-1.144-1.984c-0.49-0.574-1.071-1.033-1.743-1.376c-0.672-0.343-1.414-0.514-2.226-0.514
		c-0.84,0-1.603,0.178-2.289,0.535c-0.686,0.357-1.267,0.83-1.743,1.418c-0.476,0.588-0.843,1.253-1.102,1.995
		C322.144,292.019,322.014,292.775,322.014,293.545z"/>
	<path d="M349.125,286.09V301h-1.47v-6.972h-8.841V301h-1.449v-14.91h1.449v6.636h8.841v-6.636H349.125z"/>
</g>
<g>
	<path d="M317.678,360.09V375h-1.47v-6.972h-8.841V375h-1.449v-14.91h1.449v6.636h8.841v-6.636H317.678z"/>
	<path d="M320.471,367.44c0-0.896,0.158-1.788,0.473-2.677s0.773-1.684,1.375-2.384c0.602-0.7,1.344-1.271,2.226-1.711
		s1.883-0.662,3.003-0.662c1.33,0,2.464,0.301,3.402,0.903s1.638,1.386,2.1,2.352l-1.176,0.714c-0.238-0.49-0.525-0.903-0.861-1.239
		s-0.7-0.609-1.092-0.819c-0.392-0.21-0.798-0.36-1.218-0.452c-0.42-0.091-0.833-0.136-1.239-0.136
		c-0.896,0-1.687,0.182-2.373,0.546c-0.686,0.364-1.264,0.84-1.732,1.428c-0.469,0.588-0.823,1.25-1.061,1.984
		c-0.238,0.735-0.357,1.48-0.357,2.236c0,0.826,0.144,1.617,0.431,2.373c0.287,0.756,0.679,1.425,1.176,2.005
		c0.497,0.581,1.085,1.043,1.764,1.386c0.679,0.343,1.417,0.515,2.215,0.515c0.42,0,0.851-0.053,1.292-0.158
		s0.868-0.273,1.281-0.504c0.413-0.231,0.794-0.518,1.144-0.861c0.35-0.343,0.644-0.759,0.882-1.25l1.218,0.63
		c-0.238,0.56-0.574,1.054-1.008,1.48c-0.434,0.427-0.917,0.788-1.449,1.082s-1.095,0.518-1.69,0.672s-1.18,0.231-1.753,0.231
		c-1.022,0-1.96-0.224-2.814-0.672c-0.854-0.448-1.589-1.032-2.205-1.753c-0.616-0.721-1.096-1.54-1.438-2.457
		C320.643,369.327,320.471,368.392,320.471,367.44z"/>
	<path d="M335.612,359.67h1.428v12.852c0,0.406,0.112,0.725,0.336,0.956s0.539,0.347,0.945,0.347c0.154,0,0.336-0.021,0.546-0.063
		s0.406-0.098,0.588-0.168l0.252,1.155c-0.266,0.112-0.591,0.203-0.977,0.273s-0.717,0.105-0.998,0.105
		c-0.658,0-1.176-0.186-1.554-0.557c-0.378-0.371-0.567-0.893-0.567-1.564V359.67z"/>
</g>
<line style="fill:none;stroke:#000000;stroke-miterlimit:10;" x1="384" y1="295.5" x2="500" y2="295.5"/>
<line style="fill:none;stroke:#000000;stroke-miterlimit:10;" x1="384" y1="369.5" x2="500" y2="369.5"/>
<g>
	<path d="M379.977,560.391c-0.42-0.476-0.984-0.86-1.69-1.155c-0.707-0.294-1.501-0.44-2.383-0.44c-1.331,0-2.296,0.249-2.898,0.745
		c-0.602,0.497-0.903,1.173-0.903,2.026c0,0.448,0.081,0.816,0.242,1.103c0.161,0.287,0.413,0.536,0.756,0.746
		c0.343,0.21,0.777,0.392,1.302,0.546c0.525,0.154,1.145,0.308,1.859,0.462c0.798,0.168,1.512,0.354,2.142,0.557
		c0.63,0.203,1.169,0.462,1.617,0.776c0.448,0.315,0.791,0.7,1.029,1.155c0.238,0.455,0.357,1.019,0.357,1.69
		c0,0.687-0.133,1.281-0.399,1.785s-0.637,0.924-1.113,1.26c-0.476,0.336-1.043,0.585-1.701,0.746
		c-0.658,0.16-1.372,0.241-2.142,0.241c-2.338,0-4.333-0.721-5.985-2.163l0.714-1.197c0.546,0.574,1.281,1.061,2.205,1.46
		c0.924,0.398,1.953,0.599,3.087,0.599c1.189,0,2.121-0.214,2.793-0.641c0.672-0.427,1.008-1.074,1.008-1.942
		c0-0.462-0.095-0.851-0.284-1.166c-0.189-0.314-0.472-0.588-0.85-0.818c-0.378-0.231-0.851-0.431-1.417-0.599
		c-0.567-0.168-1.222-0.336-1.964-0.504c-0.784-0.182-1.47-0.371-2.058-0.567c-0.588-0.196-1.082-0.44-1.481-0.735
		c-0.399-0.294-0.7-0.646-0.903-1.061c-0.203-0.412-0.305-0.92-0.305-1.522c0-0.686,0.129-1.298,0.389-1.837
		c0.259-0.539,0.623-0.987,1.092-1.344c0.469-0.357,1.029-0.631,1.68-0.819c0.651-0.189,1.368-0.283,2.153-0.283
		c0.979,0,1.858,0.15,2.635,0.451s1.48,0.725,2.11,1.271L379.977,560.391z"/>
	<path d="M388.44,572.718c-0.798,0-1.529-0.15-2.194-0.451s-1.239-0.711-1.722-1.229c-0.483-0.518-0.857-1.12-1.124-1.807
		c-0.266-0.686-0.399-1.406-0.399-2.163c0-0.77,0.137-1.497,0.41-2.184c0.273-0.686,0.651-1.288,1.134-1.806
		c0.483-0.519,1.057-0.932,1.722-1.239s1.389-0.462,2.173-0.462s1.509,0.154,2.174,0.462c0.665,0.308,1.239,0.721,1.722,1.239
		c0.483,0.518,0.861,1.12,1.134,1.806c0.273,0.687,0.409,1.414,0.409,2.184c0,0.757-0.136,1.478-0.409,2.163
		c-0.273,0.687-0.651,1.289-1.134,1.807c-0.483,0.518-1.057,0.928-1.722,1.229C389.949,572.567,389.224,572.718,388.44,572.718z
		 M384.471,567.09c0,0.616,0.102,1.187,0.304,1.712c0.203,0.524,0.483,0.986,0.84,1.386c0.357,0.398,0.777,0.711,1.26,0.935
		s0.998,0.336,1.543,0.336c0.546,0,1.061-0.115,1.543-0.347c0.483-0.231,0.907-0.546,1.271-0.945
		c0.364-0.398,0.651-0.864,0.861-1.396c0.21-0.531,0.315-1.105,0.315-1.722c0-0.602-0.105-1.173-0.315-1.712
		c-0.21-0.538-0.497-1.008-0.861-1.406c-0.364-0.399-0.784-0.715-1.26-0.945c-0.476-0.231-0.987-0.347-1.533-0.347
		c-0.546,0-1.061,0.115-1.543,0.347c-0.483,0.23-0.903,0.55-1.26,0.955c-0.357,0.406-0.641,0.879-0.851,1.418
		S384.471,566.474,384.471,567.09z"/>
	<path d="M396.273,557.178h1.428v12.853c0,0.405,0.112,0.724,0.336,0.955s0.539,0.347,0.945,0.347c0.154,0,0.336-0.021,0.546-0.063
		s0.406-0.098,0.588-0.168l0.252,1.155c-0.266,0.112-0.591,0.203-0.977,0.273c-0.385,0.069-0.717,0.104-0.998,0.104
		c-0.658,0-1.176-0.186-1.554-0.557s-0.567-0.893-0.567-1.564V557.178z"/>
	<path d="M404.694,572.508l-4.452-10.941h1.491l3.759,9.618l3.78-9.618h1.386l-4.452,10.941H404.694z"/>
	<path d="M417.335,572.718c-0.798,0-1.533-0.15-2.205-0.451c-0.672-0.301-1.253-0.714-1.743-1.239
		c-0.49-0.525-0.872-1.131-1.145-1.816s-0.41-1.421-0.41-2.205c0-0.77,0.137-1.494,0.41-2.174c0.273-0.679,0.654-1.273,1.145-1.785
		c0.49-0.511,1.067-0.916,1.732-1.218c0.665-0.301,1.396-0.451,2.194-0.451c0.798,0,1.53,0.15,2.195,0.451
		c0.665,0.302,1.235,0.711,1.711,1.229c0.476,0.519,0.847,1.113,1.113,1.785s0.399,1.386,0.399,2.142
		c0,0.112-0.003,0.225-0.01,0.337c-0.007,0.111-0.018,0.188-0.032,0.23h-9.345c0.042,0.588,0.178,1.131,0.41,1.628
		c0.231,0.497,0.525,0.927,0.882,1.291s0.77,0.647,1.239,0.851s0.969,0.305,1.501,0.305c0.364,0,0.721-0.049,1.071-0.147
		c0.35-0.098,0.672-0.23,0.966-0.398s0.557-0.375,0.788-0.62c0.231-0.244,0.41-0.514,0.536-0.809l1.239,0.337
		c-0.168,0.405-0.406,0.773-0.714,1.102c-0.308,0.329-0.665,0.616-1.071,0.861c-0.406,0.245-0.854,0.435-1.344,0.567
		C418.357,572.651,417.854,572.718,417.335,572.718z M421.368,566.46c-0.042-0.588-0.179-1.124-0.41-1.606
		c-0.231-0.483-0.525-0.899-0.882-1.25c-0.357-0.35-0.774-0.622-1.25-0.818c-0.476-0.196-0.98-0.294-1.512-0.294
		s-1.036,0.098-1.512,0.294c-0.476,0.196-0.893,0.469-1.25,0.818c-0.357,0.351-0.644,0.771-0.861,1.261
		c-0.217,0.49-0.347,1.021-0.389,1.596H421.368z"/>
	<path d="M434.073,572.508h-1.428v-6.111c0-1.302-0.189-2.247-0.567-2.835s-0.966-0.882-1.764-0.882c-0.42,0-0.84,0.077-1.26,0.231
		s-0.812,0.371-1.176,0.65c-0.364,0.28-0.683,0.613-0.956,0.998s-0.48,0.802-0.62,1.249v6.699h-1.428v-10.941h1.302v2.479
		c0.224-0.392,0.5-0.753,0.83-1.082c0.329-0.328,0.696-0.612,1.103-0.85c0.406-0.238,0.836-0.421,1.292-0.547
		c0.455-0.126,0.927-0.188,1.417-0.188c0.616,0,1.13,0.112,1.543,0.336c0.413,0.224,0.746,0.539,0.998,0.945s0.434,0.902,0.546,1.49
		c0.112,0.589,0.168,1.239,0.168,1.953V572.508z"/>
	<path d="M442.242,571.982c-0.084,0.042-0.207,0.099-0.368,0.168c-0.161,0.07-0.347,0.141-0.557,0.21
		c-0.21,0.07-0.448,0.134-0.714,0.189c-0.266,0.056-0.546,0.084-0.84,0.084c-0.308,0-0.602-0.042-0.882-0.126
		s-0.525-0.213-0.735-0.389c-0.21-0.175-0.378-0.396-0.504-0.661s-0.189-0.574-0.189-0.924v-7.833h-1.512v-1.135h1.512v-3.695h1.428
		v3.695h2.52v1.135h-2.52v7.434c0.028,0.406,0.168,0.703,0.42,0.893c0.252,0.189,0.553,0.283,0.903,0.283
		c0.406,0,0.763-0.066,1.071-0.199s0.504-0.228,0.588-0.283L442.242,571.982z"/>
	<path d="M459.671,571.206v1.302h-10.017v-14.91h9.828v1.302h-8.379v5.376h7.308v1.239h-7.308v5.691H459.671z"/>
	<path d="M462.443,561.566l3.276,4.284l0.168,0.315l0.189-0.315l3.255-4.284h1.533l-4.179,5.502l4.179,5.439h-1.533l-3.255-4.263
		l-0.189-0.294l-0.168,0.294l-3.255,4.263h-1.554l4.179-5.439l-4.179-5.502H462.443z"/>
	<path d="M477.962,571.982c-0.084,0.042-0.207,0.099-0.368,0.168c-0.161,0.07-0.347,0.141-0.557,0.21
		c-0.21,0.07-0.448,0.134-0.714,0.189c-0.266,0.056-0.546,0.084-0.84,0.084c-0.308,0-0.602-0.042-0.882-0.126
		s-0.525-0.213-0.735-0.389c-0.21-0.175-0.378-0.396-0.504-0.661s-0.189-0.574-0.189-0.924v-7.833h-1.512v-1.135h1.512v-3.695h1.428
		v3.695h2.52v1.135h-2.52v7.434c0.028,0.406,0.168,0.703,0.42,0.893c0.252,0.189,0.553,0.283,0.903,0.283
		c0.406,0,0.763-0.066,1.071-0.199s0.504-0.228,0.588-0.283L477.962,571.982z"/>
	<path d="M485.102,562.827c-0.966,0.028-1.806,0.294-2.52,0.798c-0.714,0.504-1.218,1.197-1.512,2.079v6.804h-1.428v-10.941h1.344
		v2.625c0.378-0.77,0.875-1.41,1.491-1.921c0.616-0.511,1.281-0.767,1.995-0.767c0.126,0,0.245,0,0.357,0
		c0.112,0,0.203,0.007,0.273,0.021V562.827z"/>
	<path d="M489.701,572.718c-0.56,0-1.071-0.088-1.533-0.263s-0.858-0.416-1.187-0.725c-0.329-0.308-0.584-0.664-0.767-1.07
		s-0.273-0.833-0.273-1.281c0-0.504,0.112-0.963,0.336-1.376c0.224-0.412,0.539-0.767,0.945-1.061
		c0.406-0.294,0.893-0.521,1.459-0.682s1.193-0.242,1.879-0.242c0.546,0,1.106,0.05,1.68,0.147c0.574,0.098,1.084,0.238,1.533,0.42
		v-0.987c0-0.966-0.276-1.732-0.83-2.3c-0.553-0.566-1.298-0.85-2.236-0.85c-0.588,0-1.173,0.111-1.753,0.336
		c-0.581,0.224-1.173,0.546-1.774,0.966l-0.504-0.945c0.714-0.476,1.407-0.833,2.079-1.071c0.672-0.237,1.372-0.356,2.1-0.356
		c1.33,0,2.387,0.385,3.171,1.155c0.784,0.77,1.176,1.834,1.176,3.191v4.936c0,0.392,0.168,0.588,0.504,0.588v1.26
		c-0.112,0.014-0.217,0.024-0.315,0.031c-0.098,0.007-0.182,0.011-0.252,0.011c-0.28,0-0.536-0.084-0.767-0.252
		s-0.361-0.42-0.389-0.756l-0.042-0.861c-0.476,0.645-1.103,1.145-1.879,1.502C491.286,572.539,490.499,572.718,489.701,572.718z
		 M490.058,571.626c0.63,0,1.256-0.137,1.879-0.409c0.623-0.273,1.116-0.647,1.48-1.124c0.098-0.126,0.182-0.263,0.252-0.409
		c0.07-0.147,0.105-0.284,0.105-0.41v-1.784c-0.476-0.183-0.973-0.322-1.491-0.421c-0.518-0.098-1.022-0.146-1.512-0.146
		c-1.022,0-1.852,0.207-2.488,0.619c-0.637,0.413-0.956,0.984-0.956,1.712c0,0.294,0.056,0.581,0.168,0.861
		c0.112,0.279,0.283,0.532,0.515,0.756c0.231,0.224,0.514,0.406,0.85,0.546S489.596,571.626,490.058,571.626z"/>
	<path d="M497.596,567.006c0-0.77,0.133-1.498,0.399-2.184c0.266-0.687,0.641-1.285,1.124-1.796
		c0.483-0.511,1.061-0.913,1.733-1.208c0.672-0.294,1.414-0.44,2.226-0.44c1.036,0,1.938,0.234,2.709,0.703
		c0.771,0.47,1.351,1.103,1.743,1.9l-1.386,0.441c-0.308-0.56-0.735-0.997-1.281-1.312s-1.155-0.473-1.827-0.473
		c-0.561,0-1.082,0.112-1.564,0.336c-0.483,0.225-0.903,0.528-1.26,0.914c-0.357,0.385-0.637,0.843-0.84,1.375
		c-0.203,0.532-0.304,1.113-0.304,1.743c0,0.616,0.105,1.197,0.315,1.743s0.497,1.019,0.861,1.417
		c0.364,0.399,0.787,0.714,1.271,0.945s0.997,0.347,1.544,0.347c0.35,0,0.695-0.049,1.039-0.147
		c0.344-0.098,0.662-0.234,0.955-0.409c0.295-0.175,0.547-0.374,0.756-0.599c0.211-0.224,0.357-0.462,0.441-0.714l1.387,0.42
		c-0.154,0.393-0.379,0.753-0.672,1.081c-0.295,0.329-0.641,0.616-1.04,0.861s-0.84,0.435-1.323,0.567
		c-0.482,0.133-0.983,0.199-1.502,0.199c-0.797,0-1.532-0.15-2.204-0.451c-0.672-0.301-1.253-0.714-1.743-1.239
		c-0.49-0.525-0.872-1.131-1.145-1.816S497.596,567.79,497.596,567.006z"/>
	<path d="M515.152,571.982c-0.084,0.042-0.207,0.099-0.367,0.168c-0.162,0.07-0.348,0.141-0.557,0.21
		c-0.211,0.07-0.449,0.134-0.715,0.189s-0.545,0.084-0.84,0.084c-0.308,0-0.602-0.042-0.882-0.126s-0.524-0.213-0.735-0.389
		c-0.209-0.175-0.377-0.396-0.504-0.661c-0.125-0.266-0.188-0.574-0.188-0.924v-7.833h-1.513v-1.135h1.513v-3.695h1.428v3.695h2.521
		v1.135h-2.521v7.434c0.028,0.406,0.168,0.703,0.42,0.893c0.253,0.189,0.554,0.283,0.903,0.283c0.406,0,0.763-0.066,1.07-0.199
		c0.309-0.133,0.504-0.228,0.588-0.283L515.152,571.982z"/>
	<path d="M516.832,559.277v-2.1h1.428v2.1H516.832z M516.832,572.508v-10.941h1.428v10.941H516.832z"/>
	<path d="M526.051,572.718c-0.799,0-1.529-0.15-2.195-0.451c-0.664-0.301-1.238-0.711-1.722-1.229s-0.857-1.12-1.124-1.807
		c-0.266-0.686-0.398-1.406-0.398-2.163c0-0.77,0.137-1.497,0.41-2.184c0.272-0.686,0.65-1.288,1.133-1.806
		c0.484-0.519,1.058-0.932,1.723-1.239s1.389-0.462,2.174-0.462c0.783,0,1.508,0.154,2.174,0.462
		c0.664,0.308,1.238,0.721,1.721,1.239c0.484,0.518,0.861,1.12,1.135,1.806c0.273,0.687,0.409,1.414,0.409,2.184
		c0,0.757-0.136,1.478-0.409,2.163c-0.273,0.687-0.65,1.289-1.135,1.807c-0.482,0.518-1.057,0.928-1.721,1.229
		C527.559,572.567,526.834,572.718,526.051,572.718z M522.082,567.09c0,0.616,0.102,1.187,0.304,1.712
		c0.203,0.524,0.483,0.986,0.841,1.386c0.356,0.398,0.776,0.711,1.26,0.935c0.482,0.224,0.997,0.336,1.543,0.336
		c0.547,0,1.061-0.115,1.543-0.347c0.484-0.231,0.907-0.546,1.271-0.945c0.363-0.398,0.65-0.864,0.861-1.396
		c0.209-0.531,0.314-1.105,0.314-1.722c0-0.602-0.105-1.173-0.314-1.712c-0.211-0.538-0.498-1.008-0.861-1.406
		c-0.364-0.399-0.785-0.715-1.26-0.945c-0.477-0.231-0.987-0.347-1.533-0.347c-0.547,0-1.061,0.115-1.544,0.347
		c-0.483,0.23-0.903,0.55-1.26,0.955c-0.356,0.406-0.641,0.879-0.851,1.418S522.082,566.474,522.082,567.09z"/>
	<path d="M543.019,572.508h-1.428v-6.111c0-1.302-0.189-2.247-0.567-2.835s-0.966-0.882-1.764-0.882c-0.42,0-0.84,0.077-1.26,0.231
		s-0.812,0.371-1.176,0.65c-0.365,0.28-0.684,0.613-0.956,0.998s-0.479,0.802-0.62,1.249v6.699h-1.428v-10.941h1.303v2.479
		c0.223-0.392,0.5-0.753,0.829-1.082c0.329-0.328,0.696-0.612,1.103-0.85c0.406-0.238,0.836-0.421,1.291-0.547
		s0.928-0.188,1.418-0.188c0.615,0,1.131,0.112,1.543,0.336c0.413,0.224,0.746,0.539,0.998,0.945s0.434,0.902,0.546,1.49
		c0.112,0.589,0.168,1.239,0.168,1.953V572.508z"/>
	<path d="M564.627,561.566h1.387l-4.684,10.941h-1.197l-2.33-5.586l-2.332,5.586h-1.196l-4.683-10.941h1.365l3.989,9.472
		l2.079-4.998l-1.869-4.452h1.219l1.428,3.57l1.406-3.57h1.219l-1.848,4.452l2.078,4.998L564.627,561.566z"/>
	<path d="M567.883,559.277v-2.1h1.428v2.1H567.883z M567.883,572.508v-10.941h1.428v10.941H567.883z"/>
	<path d="M577.668,571.982c-0.084,0.042-0.207,0.099-0.367,0.168c-0.162,0.07-0.348,0.141-0.557,0.21
		c-0.211,0.07-0.449,0.134-0.715,0.189s-0.545,0.084-0.84,0.084c-0.308,0-0.602-0.042-0.882-0.126s-0.524-0.213-0.735-0.389
		c-0.209-0.175-0.377-0.396-0.504-0.661c-0.125-0.266-0.188-0.574-0.188-0.924v-7.833h-1.513v-1.135h1.513v-3.695h1.428v3.695h2.521
		v1.135h-2.521v7.434c0.028,0.406,0.168,0.703,0.42,0.893c0.253,0.189,0.554,0.283,0.903,0.283c0.406,0,0.763-0.066,1.07-0.199
		c0.309-0.133,0.504-0.228,0.588-0.283L577.668,571.982z"/>
	<path d="M588.545,572.508h-1.428v-6.111c0-1.245-0.213-2.177-0.641-2.793c-0.427-0.615-1.053-0.924-1.879-0.924
		c-0.406,0-0.809,0.081-1.207,0.241c-0.4,0.161-0.774,0.382-1.124,0.662c-0.351,0.28-0.655,0.608-0.913,0.986
		c-0.26,0.379-0.452,0.792-0.578,1.239v6.699h-1.428v-15.33h1.428v6.867c0.447-0.826,1.057-1.477,1.827-1.953
		c0.77-0.476,1.596-0.714,2.478-0.714c0.631,0,1.166,0.115,1.607,0.347c0.44,0.23,0.797,0.553,1.07,0.966s0.473,0.91,0.599,1.491
		s0.188,1.222,0.188,1.921V572.508z"/>
	<path d="M610.448,572.508v-12.243l-5.438,9.471h-0.861l-5.461-9.471v12.243h-1.448v-14.91h1.491l5.838,10.206l5.838-10.206h1.49
		v14.91H610.448z"/>
	<path d="M615.32,559.277v-2.1h1.428v2.1H615.32z M615.32,572.508v-10.941h1.428v10.941H615.32z"/>
	<path d="M619.877,557.178h1.428v12.853c0,0.405,0.111,0.724,0.336,0.955s0.539,0.347,0.945,0.347c0.154,0,0.336-0.021,0.546-0.063
		s0.405-0.098,0.588-0.168l0.252,1.155c-0.267,0.112-0.591,0.203-0.977,0.273c-0.386,0.069-0.718,0.104-0.997,0.104
		c-0.658,0-1.176-0.186-1.555-0.557c-0.377-0.371-0.566-0.893-0.566-1.564V557.178z"/>
	<path d="M630.523,571.982c-0.084,0.042-0.207,0.099-0.367,0.168c-0.161,0.07-0.347,0.141-0.557,0.21
		c-0.21,0.07-0.448,0.134-0.714,0.189c-0.267,0.056-0.546,0.084-0.84,0.084c-0.308,0-0.603-0.042-0.882-0.126
		c-0.281-0.084-0.525-0.213-0.735-0.389c-0.21-0.175-0.378-0.396-0.504-0.661s-0.188-0.574-0.188-0.924v-7.833h-1.513v-1.135h1.513
		v-3.695h1.428v3.695h2.52v1.135h-2.52v7.434c0.027,0.406,0.168,0.703,0.42,0.893s0.553,0.283,0.902,0.283
		c0.406,0,0.764-0.066,1.071-0.199s0.504-0.228,0.588-0.283L630.523,571.982z"/>
</g>
<g>
</g>
<g>
</g>
<g>
</g>
<g>
</g>
<g>
</g>
<g>
</g>
<g>
</g>
<g>
</g>
<g>
</g>
<g>
</g>
<g>
</g>
<g>
</g>
<g>
</g>
<g>
</g>
<g>
</g>
</svg>
