<?xml version="1.0" encoding="iso-8859-1"?>
<!-- Generator: Adobe Illustrator 16.0.4, SVG Export Plug-In . SVG Version: 6.00 Build 0)  -->
<!DOCTYPE svg PUBLIC "-//W3C//DTD SVG 1.1//EN" "http://www.w3.org/Graphics/SVG/1.1/DTD/svg11.dtd">
<svg version="1.1" id="Layer_1" xmlns="http://www.w3.org/2000/svg" xmlns:xlink="http://www.w3.org/1999/xlink" x="0px" y="0px"
	 width="833.072px" height="566.972px" viewBox="0 0 833.072 566.972" style="enable-background:new 0 0 833.072 566.972;"
	 xml:space="preserve">
<g>
	<path d="M97.827,400.558v-17.04h1.656v15.552h9.864v1.487H97.827z"/>
	<path d="M111.986,400.558v-17.04h11.16v1.488h-9.504v6.264h8.04v1.392h-8.04v7.896H111.986z"/>
	<path d="M138.146,385.006h-6.072v15.551h-1.68v-15.551h-6.072v-1.488h13.824V385.006z"/>
	<path d="M140.762,400.558v-17.04h7.176c0.736,0,1.416,0.156,2.04,0.468s1.16,0.72,1.608,1.224c0.448,0.504,0.796,1.076,1.044,1.716
		s0.372,1.288,0.372,1.944c0,0.624-0.092,1.221-0.276,1.788c-0.184,0.567-0.444,1.08-0.78,1.536c-0.336,0.455-0.736,0.84-1.2,1.152
		c-0.464,0.312-0.984,0.523-1.56,0.635l4.2,6.576h-1.896l-4.032-6.287h-5.04v6.287H140.762z M142.418,392.782h5.592
		c0.496,0,0.948-0.107,1.356-0.324c0.408-0.216,0.756-0.508,1.044-0.876s0.512-0.784,0.672-1.248c0.16-0.464,0.24-0.952,0.24-1.464
		s-0.092-1.004-0.276-1.476c-0.184-0.472-0.432-0.884-0.744-1.236s-0.681-0.632-1.104-0.84c-0.424-0.208-0.868-0.312-1.332-0.312
		h-5.448V392.782z"/>
</g>
<g>
	<path d="M96.723,182.918c0-1.023,0.18-2.043,0.54-3.06c0.36-1.016,0.884-1.923,1.572-2.724c0.688-0.8,1.536-1.452,2.544-1.956
		c1.008-0.504,2.152-0.756,3.432-0.756c1.52,0,2.816,0.344,3.888,1.032c1.071,0.688,1.872,1.584,2.4,2.688l-1.344,0.816
		c-0.272-0.56-0.6-1.032-0.984-1.416c-0.384-0.384-0.8-0.696-1.248-0.936c-0.448-0.24-0.912-0.412-1.392-0.516
		s-0.952-0.156-1.416-0.156c-1.024,0-1.928,0.208-2.712,0.624c-0.784,0.416-1.444,0.96-1.98,1.632
		c-0.536,0.672-0.94,1.428-1.212,2.268c-0.272,0.84-0.408,1.692-0.408,2.556c0,0.944,0.164,1.848,0.492,2.712
		c0.328,0.864,0.776,1.628,1.344,2.292c0.568,0.664,1.24,1.192,2.016,1.584c0.776,0.392,1.62,0.588,2.532,0.588
		c0.48,0,0.972-0.06,1.476-0.18c0.504-0.12,0.992-0.312,1.464-0.576c0.472-0.264,0.908-0.592,1.308-0.984
		c0.399-0.392,0.735-0.868,1.008-1.428l1.392,0.72c-0.272,0.64-0.656,1.204-1.152,1.692c-0.496,0.488-1.048,0.9-1.656,1.236
		c-0.608,0.336-1.252,0.592-1.932,0.768s-1.348,0.264-2.004,0.264c-1.168,0-2.24-0.256-3.216-0.768
		c-0.976-0.512-1.816-1.18-2.52-2.004c-0.704-0.824-1.252-1.76-1.644-2.808C96.918,185.074,96.723,184.006,96.723,182.918z"/>
	<path d="M121.083,191.678c-1.184,0-2.268-0.244-3.252-0.732c-0.984-0.488-1.828-1.136-2.532-1.944
		c-0.704-0.808-1.248-1.731-1.632-2.772c-0.384-1.04-0.576-2.104-0.576-3.192c0-1.136,0.204-2.224,0.612-3.264
		c0.408-1.04,0.972-1.959,1.692-2.76c0.72-0.8,1.568-1.436,2.544-1.908c0.976-0.472,2.032-0.708,3.168-0.708
		c1.184,0,2.268,0.252,3.252,0.756c0.984,0.504,1.824,1.164,2.52,1.98c0.696,0.816,1.236,1.74,1.62,2.772
		c0.384,1.032,0.576,2.084,0.576,3.156c0,1.136-0.204,2.224-0.612,3.264c-0.408,1.04-0.968,1.956-1.68,2.748
		s-1.556,1.424-2.532,1.896C123.274,191.442,122.219,191.678,121.083,191.678z M114.771,183.038c0,0.928,0.152,1.82,0.456,2.676
		c0.304,0.856,0.736,1.617,1.296,2.28c0.56,0.664,1.224,1.192,1.992,1.584s1.624,0.588,2.568,0.588c0.96,0,1.832-0.208,2.616-0.624
		c0.784-0.416,1.448-0.96,1.992-1.632c0.543-0.672,0.963-1.432,1.26-2.28c0.296-0.848,0.444-1.711,0.444-2.592
		c0-0.928-0.156-1.82-0.468-2.676s-0.748-1.612-1.308-2.268s-1.224-1.18-1.992-1.572c-0.768-0.392-1.617-0.588-2.544-0.588
		c-0.96,0-1.832,0.204-2.616,0.612c-0.784,0.408-1.448,0.948-1.992,1.62s-0.964,1.432-1.26,2.28
		C114.918,181.294,114.771,182.158,114.771,183.038z"/>
	<path d="M133.97,177.638v13.92h-1.656v-17.04h1.296l11.28,14.184v-14.16h1.656v17.016h-1.44L133.97,177.638z"/>
	<path d="M150.746,174.518l6.096,14.952l6.048-14.952h1.776l-7.104,17.04h-1.464l-7.104-17.04H150.746z"/>
	<path d="M178.562,190.07v1.488h-11.448v-17.04h11.232v1.488h-9.576v6.144h8.352v1.416h-8.352v6.504H178.562z"/>
	<path d="M183.482,177.638v13.92h-1.656v-17.04h1.296l11.28,14.184v-14.16h1.656v17.016h-1.44L183.482,177.638z"/>
	<path d="M212.498,176.006h-6.072v15.552h-1.68v-15.552h-6.072v-1.488h13.824V176.006z"/>
	<path d="M215.114,191.558v-17.016h1.656v17.016H215.114z"/>
	<path d="M228.001,191.678c-1.184,0-2.268-0.244-3.252-0.732c-0.984-0.488-1.828-1.136-2.532-1.944
		c-0.704-0.808-1.248-1.731-1.632-2.772c-0.384-1.04-0.576-2.104-0.576-3.192c0-1.136,0.204-2.224,0.612-3.264
		c0.408-1.04,0.972-1.959,1.692-2.76c0.72-0.8,1.568-1.436,2.544-1.908c0.976-0.472,2.032-0.708,3.168-0.708
		c1.184,0,2.268,0.252,3.252,0.756c0.984,0.504,1.824,1.164,2.52,1.98c0.696,0.816,1.236,1.74,1.62,2.772
		c0.384,1.032,0.576,2.084,0.576,3.156c0,1.136-0.204,2.224-0.612,3.264c-0.408,1.04-0.968,1.956-1.68,2.748
		s-1.556,1.424-2.532,1.896C230.193,191.442,229.138,191.678,228.001,191.678z M221.689,183.038c0,0.928,0.152,1.82,0.456,2.676
		c0.304,0.856,0.736,1.617,1.296,2.28c0.56,0.664,1.224,1.192,1.992,1.584s1.624,0.588,2.568,0.588c0.96,0,1.832-0.208,2.616-0.624
		c0.784-0.416,1.448-0.96,1.992-1.632c0.543-0.672,0.963-1.432,1.26-2.28c0.296-0.848,0.444-1.711,0.444-2.592
		c0-0.928-0.156-1.82-0.468-2.676s-0.748-1.612-1.308-2.268s-1.224-1.18-1.992-1.572c-0.768-0.392-1.617-0.588-2.544-0.588
		c-0.96,0-1.832,0.204-2.616,0.612c-0.784,0.408-1.448,0.948-1.992,1.62s-0.964,1.432-1.26,2.28
		C221.837,181.294,221.689,182.158,221.689,183.038z"/>
	<path d="M240.889,177.638v13.92h-1.656v-17.04h1.296l11.28,14.184v-14.16h1.656v17.016h-1.44L240.889,177.638z"/>
	<path d="M255.985,191.558l7.128-17.04h1.368l7.128,17.04h-1.8l-2.208-5.328h-7.656l-2.184,5.328H255.985z M263.809,176.486
		l-3.504,8.424h6.912L263.809,176.486z"/>
	<path d="M274.081,191.558v-17.04h1.656v15.552h9.864v1.488H274.081z"/>
	<path d="M97.827,220.358v-17.04h7.176c0.736,0,1.416,0.156,2.04,0.468c0.624,0.312,1.16,0.721,1.608,1.225
		c0.448,0.504,0.796,1.076,1.044,1.716s0.372,1.288,0.372,1.943c0,0.624-0.092,1.221-0.276,1.788
		c-0.184,0.568-0.444,1.08-0.78,1.536c-0.336,0.456-0.736,0.84-1.2,1.152c-0.464,0.312-0.984,0.524-1.56,0.636l4.2,6.576h-1.896
		l-4.032-6.288h-5.04v6.288H97.827z M99.482,212.582h5.592c0.496,0,0.948-0.107,1.356-0.323c0.408-0.217,0.756-0.508,1.044-0.876
		s0.512-0.784,0.672-1.248c0.16-0.464,0.24-0.952,0.24-1.465c0-0.512-0.092-1.003-0.276-1.476c-0.184-0.472-0.432-0.884-0.744-1.236
		c-0.312-0.352-0.681-0.632-1.104-0.84c-0.424-0.207-0.868-0.312-1.332-0.312h-5.448V212.582z"/>
	<path d="M125.114,218.87v1.488h-11.448v-17.04h11.232v1.488h-9.576v6.144h8.352v1.416h-8.352v6.504H125.114z"/>
	<path d="M126.578,220.358l7.128-17.04h1.368l7.128,17.04h-1.8l-2.208-5.328h-7.656l-2.184,5.328H126.578z M134.402,205.286
		l-3.504,8.424h6.912L134.402,205.286z"/>
	<path d="M143.57,211.718c0-1.024,0.18-2.044,0.54-3.061c0.36-1.016,0.884-1.924,1.572-2.724s1.536-1.452,2.544-1.956
		c1.008-0.504,2.152-0.756,3.432-0.756c1.52,0,2.816,0.344,3.888,1.032c1.071,0.688,1.872,1.584,2.4,2.688l-1.344,0.816
		c-0.272-0.561-0.6-1.032-0.984-1.416c-0.384-0.385-0.8-0.696-1.248-0.937c-0.448-0.24-0.912-0.411-1.392-0.516
		s-0.952-0.156-1.416-0.156c-1.024,0-1.928,0.208-2.712,0.624c-0.784,0.416-1.444,0.96-1.98,1.632s-0.94,1.428-1.212,2.269
		c-0.272,0.84-0.408,1.691-0.408,2.556c0,0.944,0.164,1.848,0.492,2.712c0.328,0.864,0.776,1.628,1.344,2.292
		s1.24,1.192,2.016,1.584c0.776,0.393,1.62,0.588,2.532,0.588c0.48,0,0.972-0.06,1.476-0.18c0.504-0.12,0.992-0.312,1.464-0.576
		c0.472-0.264,0.908-0.592,1.308-0.984c0.399-0.392,0.735-0.867,1.008-1.428l1.392,0.72c-0.272,0.641-0.656,1.204-1.152,1.692
		c-0.496,0.488-1.048,0.9-1.656,1.236c-0.608,0.336-1.252,0.592-1.932,0.768s-1.348,0.264-2.004,0.264
		c-1.168,0-2.24-0.255-3.216-0.768c-0.976-0.512-1.816-1.18-2.52-2.004c-0.704-0.824-1.252-1.76-1.644-2.808
		C143.766,213.875,143.57,212.806,143.57,211.718z"/>
	<path d="M173.137,204.806h-6.072v15.552h-1.68v-15.552h-6.072v-1.488h13.824V204.806z"/>
	<path d="M181.874,220.478c-1.184,0-2.268-0.244-3.252-0.732c-0.984-0.487-1.828-1.136-2.532-1.943
		c-0.704-0.808-1.248-1.732-1.632-2.772c-0.384-1.04-0.576-2.104-0.576-3.191c0-1.137,0.204-2.225,0.612-3.265
		c0.408-1.04,0.972-1.96,1.692-2.76c0.72-0.8,1.568-1.436,2.544-1.908c0.976-0.472,2.032-0.708,3.168-0.708
		c1.184,0,2.268,0.252,3.252,0.756c0.984,0.504,1.824,1.164,2.52,1.98c0.696,0.815,1.236,1.74,1.62,2.771
		c0.384,1.032,0.576,2.085,0.576,3.156c0,1.137-0.204,2.225-0.612,3.264c-0.408,1.041-0.968,1.956-1.68,2.748
		s-1.556,1.425-2.532,1.896C184.065,220.242,183.01,220.478,181.874,220.478z M175.562,211.838c0,0.928,0.152,1.819,0.456,2.676
		c0.304,0.855,0.736,1.616,1.296,2.279c0.56,0.665,1.224,1.192,1.992,1.584c0.768,0.393,1.624,0.589,2.568,0.589
		c0.96,0,1.832-0.208,2.616-0.624c0.784-0.416,1.448-0.96,1.992-1.633c0.543-0.672,0.963-1.432,1.26-2.279
		c0.296-0.848,0.444-1.712,0.444-2.592c0-0.928-0.156-1.82-0.468-2.677c-0.312-0.855-0.748-1.611-1.308-2.268
		s-1.224-1.18-1.992-1.572c-0.768-0.392-1.617-0.588-2.544-0.588c-0.96,0-1.832,0.204-2.616,0.612
		c-0.784,0.408-1.448,0.947-1.992,1.62c-0.544,0.672-0.964,1.432-1.26,2.279C175.709,210.094,175.562,210.958,175.562,211.838z"/>
	<path d="M193.106,220.358v-17.04h7.176c0.736,0,1.416,0.156,2.04,0.468c0.624,0.312,1.16,0.721,1.608,1.225
		c0.448,0.504,0.796,1.076,1.044,1.716s0.372,1.288,0.372,1.943c0,0.624-0.092,1.221-0.276,1.788
		c-0.184,0.568-0.444,1.08-0.78,1.536c-0.336,0.456-0.736,0.84-1.2,1.152c-0.464,0.312-0.984,0.524-1.56,0.636l4.2,6.576h-1.896
		l-4.032-6.288h-5.04v6.288H193.106z M194.762,212.582h5.592c0.496,0,0.948-0.107,1.356-0.323c0.408-0.217,0.756-0.508,1.044-0.876
		s0.512-0.784,0.672-1.248c0.16-0.464,0.24-0.952,0.24-1.465c0-0.512-0.092-1.003-0.276-1.476c-0.184-0.472-0.432-0.884-0.744-1.236
		c-0.312-0.352-0.681-0.632-1.104-0.84c-0.424-0.207-0.868-0.312-1.332-0.312h-5.448V212.582z"/>
	<path d="M218.954,206.51c-0.48-0.544-1.124-0.984-1.932-1.32s-1.716-0.504-2.724-0.504c-1.521,0-2.625,0.284-3.312,0.852
		c-0.688,0.568-1.032,1.341-1.032,2.316c0,0.512,0.092,0.933,0.276,1.26c0.184,0.328,0.472,0.612,0.864,0.853
		c0.392,0.239,0.888,0.447,1.488,0.624c0.6,0.176,1.308,0.352,2.124,0.527c0.912,0.192,1.728,0.404,2.448,0.637
		c0.72,0.231,1.335,0.527,1.848,0.888c0.512,0.359,0.904,0.8,1.176,1.319c0.272,0.521,0.408,1.164,0.408,1.933
		c0,0.784-0.152,1.464-0.456,2.04c-0.304,0.576-0.729,1.056-1.272,1.439c-0.544,0.385-1.192,0.669-1.944,0.853
		s-1.568,0.275-2.448,0.275c-2.672,0-4.953-0.823-6.84-2.472l0.816-1.368c0.624,0.656,1.464,1.212,2.52,1.668
		c1.056,0.456,2.232,0.685,3.528,0.685c1.36,0,2.424-0.244,3.192-0.732c0.768-0.487,1.152-1.228,1.152-2.22
		c0-0.528-0.108-0.972-0.324-1.332c-0.216-0.36-0.54-0.672-0.972-0.937c-0.432-0.264-0.972-0.491-1.62-0.684
		s-1.396-0.384-2.244-0.576c-0.896-0.208-1.68-0.424-2.352-0.647c-0.672-0.225-1.236-0.504-1.692-0.84
		c-0.456-0.337-0.8-0.74-1.032-1.213c-0.232-0.472-0.348-1.052-0.348-1.739c0-0.784,0.148-1.484,0.444-2.101
		c0.296-0.615,0.711-1.128,1.248-1.536c0.536-0.407,1.176-0.72,1.92-0.936c0.744-0.216,1.563-0.324,2.46-0.324
		c1.12,0,2.124,0.172,3.012,0.517c0.888,0.344,1.692,0.827,2.412,1.451L218.954,206.51z"/>
	<path d="M96.723,240.854c0-0.816,0.087-1.62,0.264-2.412s0.416-1.576,0.72-2.353c0.304-0.775,0.66-1.552,1.068-2.328
		c0.408-0.775,0.844-1.556,1.308-2.34l1.248,0.601c-0.336,0.479-0.684,1.072-1.044,1.775c-0.36,0.705-0.688,1.456-0.984,2.257
		c-0.296,0.8-0.544,1.619-0.744,2.46c-0.2,0.84-0.3,1.644-0.3,2.411c0,1.248,0.272,2.612,0.816,4.093
		c0.543,1.479,1.288,2.939,2.232,4.38l-1.224,0.647c-1.008-1.504-1.82-3.027-2.436-4.571C97.03,243.93,96.723,242.39,96.723,240.854
		z"/>
	<path d="M104.258,249.158v-17.04h1.656v15.552h9.864v1.488H104.258z"/>
	<path d="M122.187,232.238h1.608l2.4,6.048l2.424-6.048h1.584l-2.976,7.271l3.264,7.704l6.168-15.096h1.824l-7.2,17.04h-1.488
		l-3.576-8.424l-3.6,8.424h-1.488l-7.176-17.04h1.776l6.192,15.096l3.24-7.704L122.187,232.238z"/>
	<path d="M140.931,249.158v-17.04h7.176c0.736,0,1.416,0.156,2.04,0.468c0.624,0.312,1.16,0.721,1.608,1.225
		c0.448,0.504,0.796,1.076,1.044,1.716s0.372,1.288,0.372,1.943c0,0.624-0.092,1.221-0.276,1.788
		c-0.184,0.568-0.444,1.08-0.78,1.536c-0.336,0.456-0.736,0.84-1.2,1.152c-0.464,0.312-0.984,0.524-1.56,0.636l4.2,6.576h-1.896
		l-4.032-6.288h-5.04v6.288H140.931z M142.586,241.381h5.592c0.496,0,0.948-0.107,1.356-0.323c0.408-0.217,0.756-0.508,1.044-0.876
		s0.512-0.784,0.672-1.248c0.16-0.464,0.24-0.952,0.24-1.465c0-0.512-0.092-1.003-0.276-1.476c-0.184-0.472-0.432-0.884-0.744-1.236
		c-0.312-0.352-0.681-0.632-1.104-0.84c-0.424-0.207-0.868-0.312-1.332-0.312h-5.448V241.381z"/>
	<path d="M160.058,240.854c0,1.536-0.308,3.076-0.924,4.62c-0.616,1.544-1.428,3.067-2.436,4.571l-1.224-0.647
		c0.944-1.44,1.688-2.9,2.232-4.38c0.544-1.48,0.816-2.845,0.816-4.093c0-0.768-0.1-1.571-0.3-2.411
		c-0.2-0.841-0.452-1.66-0.756-2.46c-0.304-0.801-0.636-1.552-0.996-2.257c-0.36-0.703-0.7-1.296-1.02-1.775l1.248-0.601
		c0.464,0.784,0.9,1.564,1.308,2.34c0.408,0.776,0.764,1.553,1.068,2.328c0.304,0.776,0.543,1.561,0.72,2.353
		S160.058,240.038,160.058,240.854z"/>
</g>
<g>
	<rect x="345" y="146.892" style="fill:#E6E6E6;" width="100" height="100"/>
	<rect x="345" y="146.892" style="fill:#87D400;" width="10" height="10"/>
</g>
<g>
	<rect x="345" y="343.892" style="fill:#E6E6E6;" width="100" height="100"/>
	<rect x="345" y="343.892" style="fill:#87D400;" width="95" height="95"/>
</g>
<g>
	<path d="M347.16,80.06V63.02h11.16v1.488h-9.504v6.264h8.04v1.392h-8.04v7.896H347.16z"/>
	<path d="M368.087,78.668c1.072,0,1.964-0.204,2.676-0.612c0.711-0.408,1.28-0.944,1.704-1.608c0.423-0.664,0.72-1.42,0.888-2.268
		s0.252-1.704,0.252-2.568V63.02h1.68v8.592c0,1.152-0.128,2.244-0.384,3.276c-0.256,1.032-0.668,1.94-1.236,2.724
		c-0.568,0.784-1.308,1.408-2.22,1.872c-0.912,0.464-2.024,0.696-3.336,0.696c-1.36,0-2.496-0.244-3.408-0.732
		s-1.648-1.132-2.208-1.932c-0.561-0.8-0.96-1.712-1.2-2.736c-0.24-1.024-0.36-2.08-0.36-3.168V63.02h1.656v8.592
		c0,0.896,0.088,1.769,0.264,2.616c0.176,0.848,0.476,1.6,0.9,2.256c0.424,0.656,0.988,1.185,1.692,1.584
		C366.151,78.468,367.032,78.668,368.087,78.668z"/>
	<path d="M390.768,78.572v1.488H379.32V63.02h11.232v1.488h-9.576v6.144h8.352v1.416h-8.352v6.504H390.768z"/>
	<path d="M394.032,80.06V63.02h1.656v15.552h9.864v1.488H394.032z"/>
	<path d="M358.608,107.372v1.488H347.16V91.82h11.232v1.488h-9.576v6.144h8.352v1.416h-8.352v6.504H358.608z"/>
	<path d="M361.872,108.86V91.82h11.16v1.488h-9.504v6.264h8.04v1.392h-8.04v7.896H361.872z"/>
	<path d="M375.912,108.86V91.82h11.16v1.488h-9.504v6.264h8.04v1.392h-8.04v7.896H375.912z"/>
	<path d="M389.952,108.86V91.844h1.656v17.016H389.952z"/>
	<path d="M394.823,100.22c0-1.024,0.18-2.044,0.54-3.061c0.36-1.016,0.884-1.924,1.572-2.724s1.536-1.452,2.544-1.956
		c1.008-0.504,2.152-0.756,3.432-0.756c1.52,0,2.816,0.344,3.888,1.032c1.071,0.688,1.872,1.584,2.4,2.688l-1.344,0.816
		c-0.272-0.561-0.6-1.032-0.984-1.416c-0.384-0.385-0.8-0.696-1.248-0.937c-0.448-0.24-0.912-0.411-1.392-0.516
		s-0.952-0.156-1.416-0.156c-1.024,0-1.928,0.208-2.712,0.624c-0.784,0.416-1.444,0.96-1.98,1.632s-0.94,1.428-1.212,2.269
		c-0.272,0.84-0.408,1.691-0.408,2.556c0,0.944,0.164,1.848,0.492,2.712c0.328,0.864,0.776,1.628,1.344,2.292
		s1.24,1.192,2.016,1.584c0.776,0.393,1.62,0.588,2.532,0.588c0.48,0,0.972-0.06,1.476-0.18c0.504-0.12,0.992-0.312,1.464-0.576
		c0.472-0.264,0.908-0.592,1.308-0.984c0.399-0.392,0.735-0.867,1.008-1.428l1.392,0.72c-0.272,0.641-0.656,1.204-1.152,1.692
		c-0.496,0.488-1.048,0.9-1.656,1.236c-0.608,0.336-1.252,0.592-1.932,0.768s-1.348,0.264-2.004,0.264
		c-1.168,0-2.24-0.255-3.216-0.768c-0.976-0.512-1.816-1.18-2.52-2.004c-0.704-0.824-1.252-1.76-1.644-2.808
		C395.019,102.376,394.823,101.308,394.823,100.22z"/>
	<path d="M412.463,108.86V91.844h1.656v17.016H412.463z"/>
	<path d="M429.887,107.372v1.488h-11.448V91.82h11.232v1.488h-9.576v6.144h8.352v1.416h-8.352v6.504H429.887z"/>
	<path d="M434.807,94.94v13.92h-1.656V91.82h1.296l11.28,14.184V91.844h1.656v17.016h-1.44L434.807,94.94z"/>
	<path d="M450.599,100.22c0-1.024,0.18-2.044,0.54-3.061c0.36-1.016,0.884-1.924,1.572-2.724s1.536-1.452,2.544-1.956
		c1.008-0.504,2.152-0.756,3.432-0.756c1.52,0,2.816,0.344,3.888,1.032c1.071,0.688,1.872,1.584,2.4,2.688l-1.344,0.816
		c-0.272-0.561-0.6-1.032-0.984-1.416c-0.384-0.385-0.8-0.696-1.248-0.937c-0.448-0.24-0.912-0.411-1.392-0.516
		s-0.952-0.156-1.416-0.156c-1.024,0-1.928,0.208-2.712,0.624c-0.784,0.416-1.444,0.96-1.98,1.632s-0.94,1.428-1.212,2.269
		c-0.272,0.84-0.408,1.691-0.408,2.556c0,0.944,0.164,1.848,0.492,2.712c0.328,0.864,0.776,1.628,1.344,2.292
		s1.24,1.192,2.016,1.584c0.776,0.393,1.62,0.588,2.532,0.588c0.48,0,0.972-0.06,1.476-0.18c0.504-0.12,0.992-0.312,1.464-0.576
		c0.472-0.264,0.908-0.592,1.308-0.984c0.399-0.392,0.735-0.867,1.008-1.428l1.392,0.72c-0.272,0.641-0.656,1.204-1.152,1.692
		c-0.496,0.488-1.048,0.9-1.656,1.236c-0.608,0.336-1.252,0.592-1.932,0.768s-1.348,0.264-2.004,0.264
		c-1.168,0-2.24-0.255-3.216-0.768c-0.976-0.512-1.816-1.18-2.52-2.004c-0.704-0.824-1.252-1.76-1.644-2.808
		C450.794,102.376,450.599,101.308,450.599,100.22z"/>
	<path d="M467.687,91.82l5.592,9.168l5.616-9.168h1.824l-6.624,10.704v6.336h-1.656v-6.384l-6.576-10.656H467.687z"/>
</g>
<g>
	<path d="M550.277,64.508h-6.072V80.06h-1.68V64.508h-6.072V63.02h13.824V64.508z"/>
	<path d="M566.334,63.02v17.04h-1.681v-7.968h-10.104v7.968h-1.655V63.02h1.655v7.584h10.104V63.02H566.334z"/>
	<path d="M582.078,78.572v1.488H570.63V63.02h11.231v1.488h-9.576v6.144h8.353v1.416h-8.353v6.504H582.078z"/>
	<path d="M585.342,80.06V63.02h7.176c0.735,0,1.416,0.156,2.039,0.468c0.625,0.312,1.16,0.72,1.608,1.224s0.796,1.076,1.044,1.716
		s0.372,1.288,0.372,1.944c0,0.624-0.093,1.22-0.276,1.788s-0.443,1.08-0.779,1.536c-0.336,0.456-0.736,0.84-1.2,1.152
		s-0.983,0.524-1.56,0.636l4.199,6.576h-1.896l-4.032-6.288h-5.04v6.288H585.342z M586.997,72.284h5.593
		c0.495,0,0.947-0.108,1.355-0.324c0.408-0.216,0.756-0.508,1.044-0.876c0.288-0.368,0.512-0.784,0.672-1.248
		c0.159-0.464,0.24-0.952,0.24-1.464c0-0.512-0.093-1.004-0.276-1.476c-0.184-0.472-0.432-0.884-0.744-1.236
		c-0.312-0.352-0.68-0.632-1.104-0.84c-0.424-0.208-0.868-0.312-1.332-0.312h-5.448V72.284z"/>
	<path d="M616.277,80.06V66.068l-6.217,10.824h-0.983l-6.24-10.824V80.06h-1.655V63.02h1.703l6.672,11.664l6.672-11.664h1.705v17.04
		H616.277z"/>
	<path d="M629.164,80.18c-1.184,0-2.268-0.244-3.252-0.732c-0.983-0.488-1.828-1.136-2.531-1.944
		c-0.704-0.808-1.248-1.731-1.633-2.772c-0.383-1.04-0.575-2.104-0.575-3.192c0-1.136,0.204-2.224,0.612-3.264
		c0.408-1.04,0.972-1.959,1.691-2.76c0.721-0.8,1.568-1.436,2.545-1.908c0.975-0.472,2.031-0.708,3.168-0.708
		c1.184,0,2.268,0.252,3.252,0.756c0.983,0.504,1.823,1.164,2.52,1.98c0.695,0.816,1.236,1.74,1.619,2.772
		c0.385,1.032,0.576,2.084,0.576,3.156c0,1.136-0.203,2.224-0.611,3.264s-0.969,1.956-1.68,2.748
		c-0.713,0.792-1.557,1.424-2.532,1.896C631.356,79.944,630.301,80.18,629.164,80.18z M622.853,71.54
		c0,0.928,0.152,1.82,0.456,2.676c0.304,0.856,0.736,1.617,1.297,2.28c0.559,0.664,1.223,1.192,1.991,1.584s1.624,0.588,2.567,0.588
		c0.961,0,1.832-0.208,2.617-0.624c0.783-0.416,1.447-0.96,1.992-1.632c0.543-0.672,0.963-1.432,1.26-2.28
		c0.295-0.848,0.443-1.711,0.443-2.592c0-0.928-0.156-1.82-0.468-2.676s-0.748-1.612-1.308-2.268
		c-0.561-0.656-1.225-1.18-1.992-1.572c-0.768-0.392-1.617-0.588-2.545-0.588c-0.959,0-1.832,0.204-2.615,0.612
		c-0.784,0.408-1.448,0.948-1.992,1.62s-0.964,1.432-1.26,2.28C623,69.796,622.853,70.66,622.853,71.54z"/>
	<path d="M640.396,80.06V63.02h5.76c1.36,0,2.553,0.224,3.576,0.672c1.023,0.448,1.876,1.056,2.557,1.824
		c0.68,0.768,1.188,1.668,1.523,2.7c0.336,1.032,0.504,2.132,0.504,3.3c0,1.296-0.191,2.468-0.576,3.516
		c-0.383,1.048-0.928,1.944-1.631,2.688c-0.705,0.744-1.561,1.32-2.568,1.728c-1.008,0.408-2.137,0.612-3.385,0.612H640.396z
		 M652.637,71.516c0-1.024-0.145-1.964-0.432-2.82c-0.288-0.856-0.709-1.596-1.26-2.22c-0.553-0.624-1.229-1.108-2.028-1.452
		c-0.8-0.344-1.72-0.516-2.761-0.516h-4.104v14.064h4.104c1.057,0,1.988-0.18,2.797-0.54c0.808-0.36,1.483-0.856,2.027-1.488
		c0.544-0.632,0.956-1.376,1.236-2.232C652.496,73.457,652.637,72.524,652.637,71.516z"/>
	<path d="M656.549,63.02l5.592,9.168l5.616-9.168h1.823l-6.623,10.704v6.336h-1.656v-6.384l-6.576-10.656H656.549z"/>
	<path d="M673.564,66.14v13.92h-1.656V63.02h1.297l11.279,14.184v-14.16h1.656V80.06h-1.439L673.564,66.14z"/>
	<path d="M688.66,80.06l7.128-17.04h1.368l7.128,17.04h-1.8l-2.208-5.328h-7.656l-2.184,5.328H688.66z M696.484,64.988l-3.504,8.424
		h6.912L696.484,64.988z"/>
	<path d="M721.852,80.06V66.068l-6.216,10.824h-0.983l-6.24-10.824V80.06h-1.656V63.02h1.703l6.673,11.664l6.672-11.664h1.704v17.04
		H721.852z"/>
	<path d="M727.828,80.06V63.044h1.656V80.06H727.828z"/>
	<path d="M732.699,71.42c0-1.023,0.18-2.043,0.541-3.06c0.359-1.016,0.883-1.923,1.571-2.724c0.688-0.8,1.536-1.452,2.544-1.956
		s2.152-0.756,3.432-0.756c1.521,0,2.816,0.344,3.889,1.032c1.071,0.688,1.871,1.584,2.4,2.688l-1.345,0.816
		c-0.272-0.56-0.601-1.032-0.983-1.416c-0.385-0.384-0.801-0.696-1.248-0.936c-0.449-0.24-0.912-0.412-1.393-0.516
		s-0.952-0.156-1.416-0.156c-1.023,0-1.928,0.208-2.712,0.624s-1.444,0.96-1.979,1.632c-0.537,0.672-0.94,1.428-1.213,2.268
		c-0.271,0.84-0.408,1.692-0.408,2.556c0,0.944,0.164,1.848,0.492,2.712c0.328,0.864,0.776,1.628,1.344,2.292
		c0.568,0.664,1.24,1.192,2.017,1.584c0.776,0.392,1.62,0.588,2.532,0.588c0.48,0,0.972-0.06,1.477-0.18
		c0.504-0.12,0.991-0.312,1.463-0.576c0.473-0.264,0.908-0.592,1.309-0.984c0.399-0.392,0.735-0.868,1.008-1.428l1.393,0.72
		c-0.273,0.64-0.656,1.204-1.152,1.692c-0.496,0.488-1.049,0.9-1.656,1.236c-0.608,0.336-1.252,0.592-1.932,0.768
		c-0.681,0.176-1.349,0.264-2.004,0.264c-1.168,0-2.24-0.256-3.217-0.768c-0.976-0.512-1.816-1.18-2.52-2.004
		c-0.704-0.824-1.252-1.76-1.645-2.808C732.896,73.576,732.699,72.508,732.699,71.42z"/>
	<path d="M549.605,107.372v1.488h-11.447V91.82h11.231v1.488h-9.576v6.144h8.353v1.416h-8.353v6.504H549.605z"/>
	<path d="M552.869,108.86V91.82h11.16v1.488h-9.504v6.264h8.04v1.392h-8.04v7.896H552.869z"/>
	<path d="M566.909,108.86V91.82h11.159v1.488h-9.504v6.264h8.041v1.392h-8.041v7.896H566.909z"/>
	<path d="M580.949,108.86V91.844h1.656v17.016H580.949z"/>
	<path d="M585.82,100.22c0-1.024,0.18-2.044,0.541-3.061c0.359-1.016,0.883-1.924,1.571-2.724s1.536-1.452,2.544-1.956
		s2.152-0.756,3.432-0.756c1.521,0,2.816,0.344,3.889,1.032c1.071,0.688,1.871,1.584,2.4,2.688l-1.345,0.816
		c-0.272-0.561-0.601-1.032-0.983-1.416c-0.385-0.385-0.801-0.696-1.248-0.937c-0.449-0.24-0.912-0.411-1.393-0.516
		s-0.952-0.156-1.416-0.156c-1.023,0-1.928,0.208-2.712,0.624s-1.444,0.96-1.979,1.632c-0.537,0.672-0.94,1.428-1.213,2.269
		c-0.271,0.84-0.408,1.691-0.408,2.556c0,0.944,0.164,1.848,0.492,2.712s0.776,1.628,1.344,2.292
		c0.568,0.664,1.24,1.192,2.017,1.584c0.776,0.393,1.62,0.588,2.532,0.588c0.48,0,0.972-0.06,1.477-0.18
		c0.504-0.12,0.991-0.312,1.463-0.576c0.473-0.264,0.908-0.592,1.309-0.984c0.399-0.392,0.735-0.867,1.008-1.428l1.393,0.72
		c-0.273,0.641-0.656,1.204-1.152,1.692s-1.049,0.9-1.656,1.236c-0.608,0.336-1.252,0.592-1.932,0.768
		c-0.681,0.176-1.349,0.264-2.004,0.264c-1.168,0-2.24-0.255-3.217-0.768c-0.976-0.512-1.816-1.18-2.52-2.004
		c-0.704-0.824-1.252-1.76-1.645-2.808C586.017,102.376,585.82,101.308,585.82,100.22z"/>
	<path d="M603.461,108.86V91.844h1.656v17.016H603.461z"/>
	<path d="M620.885,107.372v1.488h-11.448V91.82h11.231v1.488h-9.576v6.144h8.353v1.416h-8.353v6.504H620.885z"/>
	<path d="M625.805,94.94v13.92h-1.656V91.82h1.296l11.28,14.184V91.844h1.656v17.016h-1.44L625.805,94.94z"/>
	<path d="M641.596,100.22c0-1.024,0.18-2.044,0.541-3.061c0.359-1.016,0.883-1.924,1.571-2.724s1.536-1.452,2.544-1.956
		s2.152-0.756,3.432-0.756c1.521,0,2.816,0.344,3.889,1.032c1.071,0.688,1.871,1.584,2.4,2.688l-1.345,0.816
		c-0.272-0.561-0.601-1.032-0.983-1.416c-0.385-0.385-0.801-0.696-1.248-0.937c-0.449-0.24-0.912-0.411-1.393-0.516
		s-0.952-0.156-1.416-0.156c-1.023,0-1.928,0.208-2.712,0.624s-1.444,0.96-1.979,1.632c-0.537,0.672-0.94,1.428-1.213,2.269
		c-0.271,0.84-0.408,1.691-0.408,2.556c0,0.944,0.164,1.848,0.492,2.712s0.776,1.628,1.344,2.292
		c0.568,0.664,1.24,1.192,2.017,1.584c0.776,0.393,1.62,0.588,2.532,0.588c0.48,0,0.972-0.06,1.477-0.18
		c0.504-0.12,0.991-0.312,1.463-0.576c0.473-0.264,0.908-0.592,1.309-0.984c0.399-0.392,0.735-0.867,1.008-1.428l1.393,0.72
		c-0.273,0.641-0.656,1.204-1.152,1.692s-1.049,0.9-1.656,1.236c-0.608,0.336-1.252,0.592-1.932,0.768
		c-0.681,0.176-1.349,0.264-2.004,0.264c-1.168,0-2.24-0.255-3.217-0.768c-0.976-0.512-1.816-1.18-2.52-2.004
		c-0.704-0.824-1.252-1.76-1.645-2.808C641.792,102.376,641.596,101.308,641.596,100.22z"/>
	<path d="M658.684,91.82l5.592,9.168l5.617-9.168h1.823l-6.624,10.704v6.336h-1.656v-6.384l-6.576-10.656H658.684z"/>
</g>
<g>
	<path d="M390.896,281.305v1.92h-8.616v-1.92h3.408v-9.36c-0.144,0.192-0.369,0.396-0.672,0.612s-0.644,0.416-1.02,0.6
		s-0.764,0.34-1.164,0.468c-0.4,0.128-0.752,0.192-1.056,0.192v-2.016c0.352,0,0.744-0.1,1.176-0.3
		c0.432-0.2,0.844-0.432,1.236-0.696c0.392-0.264,0.728-0.52,1.008-0.768c0.28-0.248,0.444-0.42,0.492-0.516h2.16v11.784H390.896z"
		/>
	<path d="M396.152,272.953c-0.512,0-0.992-0.092-1.44-0.276c-0.448-0.184-0.84-0.432-1.176-0.744
		c-0.336-0.312-0.6-0.684-0.792-1.116c-0.192-0.432-0.288-0.888-0.288-1.368s0.096-0.936,0.288-1.368
		c0.192-0.432,0.456-0.804,0.792-1.116c0.336-0.312,0.728-0.56,1.176-0.744c0.448-0.184,0.928-0.276,1.44-0.276
		c0.512,0,0.992,0.092,1.44,0.276c0.448,0.184,0.84,0.432,1.176,0.744c0.336,0.312,0.6,0.684,0.792,1.116
		c0.192,0.432,0.288,0.888,0.288,1.368s-0.096,0.936-0.288,1.368c-0.192,0.432-0.456,0.804-0.792,1.116
		c-0.336,0.312-0.729,0.56-1.176,0.744C397.144,272.861,396.664,272.953,396.152,272.953z M393.272,282.433l6.72-8.088l6.432-8.28
		l1.032,0.888l-6.648,8.04l-6.528,8.352L393.272,282.433z M396.152,271.801c0.304,0,0.588-0.064,0.852-0.192
		c0.264-0.127,0.492-0.3,0.684-0.516c0.192-0.216,0.344-0.464,0.456-0.744c0.111-0.28,0.168-0.58,0.168-0.9
		c0-0.32-0.06-0.624-0.18-0.912s-0.276-0.54-0.468-0.756c-0.192-0.216-0.42-0.384-0.684-0.504c-0.264-0.12-0.54-0.18-0.828-0.18
		c-0.304,0-0.588,0.064-0.852,0.192c-0.264,0.128-0.492,0.3-0.684,0.516c-0.192,0.216-0.344,0.468-0.456,0.756
		s-0.168,0.584-0.168,0.888c0,0.32,0.056,0.624,0.168,0.912c0.112,0.288,0.268,0.54,0.468,0.756c0.2,0.216,0.432,0.384,0.696,0.504
		C395.588,271.741,395.864,271.801,396.152,271.801z M404.576,283.465c-0.512,0-0.992-0.092-1.44-0.276
		c-0.448-0.184-0.84-0.432-1.176-0.744s-0.6-0.684-0.792-1.116c-0.192-0.432-0.288-0.888-0.288-1.368s0.096-0.936,0.288-1.368
		c0.192-0.432,0.456-0.804,0.792-1.116s0.728-0.56,1.176-0.744c0.448-0.184,0.928-0.276,1.44-0.276s0.992,0.092,1.44,0.276
		c0.448,0.184,0.84,0.432,1.176,0.744s0.6,0.684,0.792,1.116c0.192,0.432,0.288,0.888,0.288,1.368s-0.096,0.936-0.288,1.368
		s-0.456,0.804-0.792,1.116s-0.729,0.56-1.176,0.744C405.568,283.373,405.088,283.465,404.576,283.465z M404.576,282.312
		c0.304,0,0.588-0.063,0.852-0.192c0.264-0.128,0.492-0.3,0.684-0.516c0.192-0.216,0.344-0.464,0.456-0.744
		c0.112-0.28,0.168-0.58,0.168-0.9c0-0.32-0.06-0.624-0.18-0.912c-0.12-0.288-0.276-0.54-0.468-0.756
		c-0.192-0.216-0.42-0.384-0.684-0.504s-0.54-0.18-0.828-0.18c-0.304,0-0.588,0.064-0.852,0.192c-0.264,0.128-0.492,0.3-0.684,0.516
		c-0.192,0.216-0.344,0.468-0.456,0.756c-0.112,0.288-0.168,0.584-0.168,0.888c0,0.32,0.056,0.624,0.168,0.912
		c0.112,0.288,0.268,0.54,0.468,0.756c0.2,0.216,0.432,0.384,0.696,0.504C404.012,282.252,404.288,282.312,404.576,282.312z"/>
</g>
<g>
	<path d="M576.645,277.561c1.023,0.176,1.836,0.648,2.436,1.416s0.9,1.72,0.9,2.856c0,0.736-0.137,1.408-0.408,2.016
		c-0.272,0.608-0.66,1.128-1.164,1.56s-1.108,0.764-1.812,0.996c-0.704,0.231-1.488,0.348-2.352,0.348
		c-1.217,0-2.285-0.228-3.204-0.684c-0.921-0.456-1.636-1.101-2.148-1.932l1.416-1.416c0.368,0.656,0.864,1.172,1.488,1.548
		s1.44,0.564,2.448,0.564c1.104,0,1.972-0.248,2.604-0.744s0.948-1.248,0.948-2.256c0-1.008-0.341-1.812-1.021-2.412
		c-0.68-0.6-1.668-0.9-2.963-0.9h-0.625v-1.776h0.672c1.152,0,2.036-0.276,2.652-0.828c0.615-0.552,0.924-1.251,0.924-2.1
		c0-0.848-0.296-1.479-0.888-1.896c-0.593-0.416-1.336-0.624-2.231-0.624c-0.881,0-1.652,0.188-2.316,0.564s-1.18,0.9-1.549,1.572
		l-1.295-1.344c0.207-0.399,0.492-0.764,0.852-1.092c0.359-0.328,0.775-0.612,1.248-0.852c0.472-0.24,0.984-0.424,1.536-0.552
		s1.132-0.192,1.739-0.192c0.752,0,1.444,0.104,2.076,0.312c0.633,0.208,1.176,0.496,1.633,0.864
		c0.455,0.368,0.807,0.816,1.056,1.344c0.248,0.528,0.372,1.112,0.372,1.752c0,0.48-0.068,0.936-0.204,1.368
		s-0.336,0.824-0.601,1.176c-0.264,0.352-0.584,0.644-0.959,0.876C577.527,277.325,577.107,277.481,576.645,277.561z"/>
	<path d="M589.676,277.561c1.023,0.176,1.836,0.648,2.436,1.416c0.601,0.768,0.9,1.72,0.9,2.856c0,0.736-0.136,1.408-0.408,2.016
		c-0.271,0.608-0.66,1.128-1.164,1.56s-1.107,0.764-1.812,0.996c-0.704,0.231-1.487,0.348-2.353,0.348
		c-1.215,0-2.283-0.228-3.203-0.684c-0.92-0.456-1.637-1.101-2.148-1.932l1.416-1.416c0.368,0.656,0.864,1.172,1.488,1.548
		s1.439,0.564,2.447,0.564c1.104,0,1.973-0.248,2.604-0.744s0.948-1.248,0.948-2.256c0-1.008-0.34-1.812-1.02-2.412
		c-0.681-0.6-1.668-0.9-2.965-0.9h-0.623v-1.776h0.672c1.151,0,2.035-0.276,2.651-0.828c0.616-0.552,0.925-1.251,0.925-2.1
		c0-0.848-0.297-1.479-0.889-1.896c-0.592-0.416-1.336-0.624-2.232-0.624c-0.88,0-1.652,0.188-2.315,0.564
		c-0.664,0.376-1.181,0.9-1.548,1.572l-1.297-1.344c0.209-0.399,0.492-0.764,0.853-1.092c0.36-0.328,0.776-0.612,1.248-0.852
		c0.472-0.24,0.983-0.424,1.536-0.552c0.552-0.128,1.131-0.192,1.74-0.192c0.752,0,1.443,0.104,2.076,0.312
		c0.631,0.208,1.176,0.496,1.631,0.864c0.457,0.368,0.809,0.816,1.057,1.344c0.248,0.528,0.372,1.112,0.372,1.752
		c0,0.48-0.068,0.936-0.204,1.368c-0.137,0.432-0.336,0.824-0.6,1.176c-0.265,0.352-0.584,0.644-0.961,0.876
		C590.561,277.325,590.141,277.481,589.676,277.561z"/>
	<path d="M598.82,272.953c-0.513,0-0.992-0.092-1.44-0.276s-0.84-0.432-1.177-0.744c-0.336-0.312-0.6-0.684-0.791-1.116
		c-0.192-0.432-0.288-0.888-0.288-1.368s0.096-0.936,0.288-1.368c0.191-0.432,0.455-0.804,0.791-1.116
		c0.337-0.312,0.729-0.56,1.177-0.744s0.928-0.276,1.44-0.276c0.512,0,0.991,0.092,1.439,0.276c0.447,0.184,0.84,0.432,1.176,0.744
		c0.336,0.312,0.6,0.684,0.793,1.116c0.191,0.432,0.287,0.888,0.287,1.368s-0.096,0.936-0.287,1.368
		c-0.193,0.432-0.457,0.804-0.793,1.116s-0.729,0.56-1.176,0.744C599.812,272.861,599.332,272.953,598.82,272.953z M595.939,282.433
		l6.721-8.088l6.432-8.28l1.032,0.888l-6.648,8.04l-6.528,8.352L595.939,282.433z M598.82,271.801c0.303,0,0.588-0.064,0.852-0.192
		c0.264-0.127,0.492-0.3,0.684-0.516c0.192-0.216,0.344-0.464,0.457-0.744c0.111-0.28,0.168-0.58,0.168-0.9
		c0-0.32-0.061-0.624-0.181-0.912s-0.276-0.54-0.468-0.756c-0.192-0.216-0.42-0.384-0.684-0.504c-0.265-0.12-0.541-0.18-0.828-0.18
		c-0.305,0-0.588,0.064-0.853,0.192c-0.265,0.128-0.492,0.3-0.685,0.516c-0.191,0.216-0.344,0.468-0.455,0.756
		c-0.112,0.288-0.168,0.584-0.168,0.888c0,0.32,0.056,0.624,0.168,0.912c0.111,0.288,0.268,0.54,0.468,0.756
		c0.2,0.216,0.433,0.384,0.696,0.504S598.531,271.801,598.82,271.801z M607.244,283.465c-0.513,0-0.992-0.092-1.44-0.276
		c-0.448-0.184-0.84-0.432-1.176-0.744s-0.601-0.684-0.792-1.116c-0.192-0.432-0.288-0.888-0.288-1.368s0.096-0.936,0.288-1.368
		c0.191-0.432,0.456-0.804,0.792-1.116s0.728-0.56,1.176-0.744c0.448-0.184,0.928-0.276,1.44-0.276c0.512,0,0.992,0.092,1.439,0.276
		c0.447,0.184,0.84,0.432,1.176,0.744s0.601,0.684,0.793,1.116c0.191,0.432,0.287,0.888,0.287,1.368s-0.096,0.936-0.287,1.368
		c-0.192,0.432-0.457,0.804-0.793,1.116s-0.729,0.56-1.176,0.744C608.236,283.373,607.756,283.465,607.244,283.465z
		 M607.244,282.312c0.303,0,0.588-0.063,0.852-0.192c0.264-0.128,0.492-0.3,0.684-0.516c0.192-0.216,0.344-0.464,0.457-0.744
		c0.111-0.28,0.168-0.58,0.168-0.9c0-0.32-0.061-0.624-0.181-0.912c-0.12-0.288-0.276-0.54-0.468-0.756
		c-0.191-0.216-0.42-0.384-0.684-0.504c-0.265-0.12-0.541-0.18-0.828-0.18c-0.305,0-0.588,0.064-0.853,0.192
		c-0.264,0.128-0.491,0.3-0.684,0.516c-0.192,0.216-0.345,0.468-0.456,0.756c-0.112,0.288-0.168,0.584-0.168,0.888
		c0,0.32,0.056,0.624,0.168,0.912c0.111,0.288,0.268,0.54,0.468,0.756c0.2,0.216,0.433,0.384,0.696,0.504
		C606.68,282.252,606.955,282.312,607.244,282.312z"/>
</g>
<g>
	<path d="M574.64,473.023c0.784,0,1.516,0.132,2.196,0.396c0.68,0.265,1.268,0.637,1.764,1.117c0.496,0.479,0.889,1.056,1.176,1.728
		c0.288,0.672,0.432,1.408,0.432,2.208c0,0.848-0.155,1.62-0.467,2.316c-0.312,0.695-0.74,1.291-1.285,1.787
		c-0.543,0.496-1.184,0.88-1.92,1.152c-0.736,0.271-1.52,0.408-2.352,0.408c-1.216,0-2.312-0.288-3.288-0.864
		c-0.976-0.575-1.712-1.344-2.208-2.304l1.32-1.152c0.447,0.736,1.044,1.328,1.788,1.776c0.743,0.448,1.548,0.672,2.411,0.672
		c0.545,0,1.053-0.093,1.524-0.276s0.88-0.439,1.224-0.768s0.613-0.725,0.805-1.188c0.191-0.465,0.288-0.977,0.288-1.537
		c0-0.527-0.097-1.016-0.288-1.463c-0.191-0.448-0.452-0.832-0.78-1.152s-0.716-0.568-1.164-0.744s-0.928-0.264-1.44-0.264
		c-0.688,0-1.332,0.152-1.932,0.455c-0.6,0.305-1.092,0.736-1.476,1.297h-1.896c0.016-0.08,0.055-0.284,0.119-0.612
		s0.145-0.728,0.24-1.2c0.096-0.472,0.199-0.996,0.312-1.572c0.111-0.576,0.224-1.16,0.336-1.752
		c0.271-1.375,0.576-2.92,0.912-4.632h8.279v1.944h-6.72l-1.032,5.424c0.352-0.368,0.792-0.66,1.32-0.876
		C573.367,473.132,573.968,473.023,574.64,473.023z"/>
	<path d="M589.303,483.607v-4.056H581.6v-1.872l8.375-10.824h1.44v10.776h2.112v1.92h-2.112v4.056H589.303z M583.783,477.632h5.736
		v-7.512L583.783,477.632z"/>
	<path d="M598.999,470.288c-0.513,0-0.992-0.092-1.44-0.276c-0.447-0.185-0.84-0.433-1.176-0.744s-0.6-0.685-0.792-1.116
		s-0.288-0.888-0.288-1.367c0-0.48,0.096-0.937,0.288-1.369c0.192-0.432,0.456-0.804,0.792-1.115
		c0.336-0.312,0.729-0.561,1.176-0.744c0.448-0.184,0.928-0.275,1.44-0.275c0.512,0,0.991,0.092,1.44,0.275
		c0.447,0.184,0.84,0.432,1.176,0.744c0.336,0.312,0.6,0.684,0.792,1.115c0.192,0.433,0.288,0.889,0.288,1.369
		c0,0.479-0.096,0.936-0.288,1.367s-0.456,0.805-0.792,1.116s-0.729,0.56-1.176,0.744
		C599.99,470.196,599.511,470.288,598.999,470.288z M596.119,479.768l6.72-8.088l6.433-8.28l1.031,0.889l-6.648,8.039l-6.527,8.353
		L596.119,479.768z M598.999,469.136c0.304,0,0.588-0.064,0.853-0.192c0.264-0.128,0.491-0.3,0.684-0.516
		c0.191-0.216,0.344-0.464,0.456-0.744c0.111-0.28,0.168-0.579,0.168-0.899s-0.06-0.625-0.181-0.912
		c-0.119-0.289-0.275-0.541-0.467-0.756c-0.193-0.217-0.421-0.385-0.685-0.505c-0.265-0.12-0.54-0.18-0.828-0.18
		c-0.304,0-0.588,0.063-0.853,0.192c-0.264,0.128-0.492,0.299-0.684,0.516c-0.191,0.216-0.344,0.468-0.456,0.756
		s-0.168,0.584-0.168,0.889c0,0.32,0.056,0.623,0.168,0.912c0.112,0.287,0.269,0.539,0.468,0.756c0.2,0.215,0.433,0.383,0.696,0.504
		C598.436,469.075,598.711,469.136,598.999,469.136z M607.423,480.8c-0.513,0-0.992-0.092-1.44-0.276
		c-0.447-0.184-0.84-0.432-1.176-0.743c-0.336-0.312-0.6-0.685-0.791-1.117c-0.193-0.432-0.289-0.888-0.289-1.367
		c0-0.48,0.096-0.937,0.289-1.368c0.191-0.433,0.455-0.804,0.791-1.116s0.729-0.561,1.176-0.744c0.448-0.184,0.928-0.275,1.44-0.275
		s0.992,0.092,1.44,0.275c0.447,0.184,0.84,0.432,1.176,0.744s0.6,0.684,0.792,1.116c0.192,0.432,0.288,0.888,0.288,1.368
		c0,0.479-0.096,0.936-0.288,1.367c-0.192,0.433-0.456,0.805-0.792,1.117c-0.336,0.312-0.729,0.56-1.176,0.743
		C608.415,480.708,607.936,480.8,607.423,480.8z M607.423,479.647c0.304,0,0.589-0.063,0.853-0.191
		c0.264-0.129,0.492-0.301,0.684-0.517s0.344-0.464,0.456-0.743c0.112-0.28,0.168-0.58,0.168-0.9s-0.06-0.625-0.181-0.912
		c-0.119-0.288-0.275-0.54-0.467-0.756c-0.192-0.217-0.42-0.385-0.685-0.504c-0.265-0.121-0.54-0.181-0.828-0.181
		c-0.304,0-0.588,0.064-0.853,0.192c-0.264,0.128-0.491,0.3-0.684,0.516c-0.191,0.217-0.344,0.469-0.455,0.756
		c-0.113,0.289-0.168,0.584-0.168,0.889c0,0.32,0.055,0.623,0.168,0.912c0.111,0.287,0.268,0.539,0.467,0.756
		c0.2,0.216,0.433,0.384,0.697,0.504C606.859,479.587,607.135,479.647,607.423,479.647z"/>
</g>
<g>
	<path d="M372.476,472.735c0-0.816,0.156-1.58,0.468-2.293c0.312-0.711,0.744-1.335,1.296-1.871c0.552-0.536,1.196-0.956,1.932-1.26
		c0.736-0.305,1.536-0.457,2.4-0.457c0.912,0,1.748,0.168,2.508,0.504c0.76,0.337,1.412,0.82,1.956,1.453
		c0.544,0.632,0.964,1.4,1.26,2.304c0.296,0.903,0.444,1.932,0.444,3.084c0,1.68-0.152,3.147-0.456,4.403
		c-0.304,1.257-0.736,2.305-1.296,3.145s-1.232,1.468-2.016,1.884c-0.784,0.416-1.656,0.624-2.616,0.624
		c-1.104,0-2.108-0.264-3.012-0.792c-0.904-0.528-1.612-1.272-2.124-2.231l1.296-1.272c0.352,0.752,0.872,1.348,1.56,1.788
		c0.688,0.439,1.456,0.66,2.304,0.66c1.312,0,2.36-0.584,3.144-1.752c0.784-1.168,1.191-2.809,1.224-4.92
		c-0.353,0.832-0.92,1.496-1.704,1.992c-0.784,0.496-1.68,0.744-2.688,0.744c-0.816,0-1.584-0.148-2.304-0.445
		c-0.72-0.295-1.344-0.699-1.872-1.211c-0.528-0.512-0.944-1.12-1.248-1.824S372.476,473.535,372.476,472.735z M378.548,468.679
		c-0.56,0-1.084,0.108-1.572,0.324c-0.488,0.217-0.916,0.508-1.284,0.876c-0.368,0.368-0.66,0.796-0.876,1.284
		c-0.216,0.488-0.324,1.012-0.324,1.572s0.108,1.084,0.324,1.572c0.216,0.488,0.508,0.912,0.876,1.271
		c0.368,0.359,0.796,0.648,1.284,0.863c0.488,0.217,1.012,0.324,1.572,0.324s1.083-0.107,1.572-0.324
		c0.488-0.215,0.916-0.504,1.284-0.863c0.368-0.359,0.66-0.783,0.876-1.271s0.324-1.012,0.324-1.572
		c0-0.544-0.108-1.064-0.324-1.561s-0.508-0.928-0.876-1.296c-0.368-0.368-0.8-0.659-1.296-0.876
		C379.612,468.787,379.092,468.679,378.548,468.679z"/>
	<path d="M399.212,473.526c0,1.057-0.152,2.029-0.456,2.916c-0.304,0.889-0.728,1.656-1.272,2.305s-1.188,1.152-1.932,1.512
		c-0.744,0.36-1.548,0.541-2.412,0.541c-0.88,0-1.692-0.181-2.436-0.541c-0.744-0.359-1.384-0.863-1.92-1.512
		c-0.537-0.648-0.957-1.416-1.26-2.305c-0.304-0.887-0.456-1.859-0.456-2.916c0-1.055,0.152-2.027,0.456-2.916
		c0.304-0.887,0.724-1.655,1.26-2.303c0.536-0.648,1.176-1.156,1.92-1.524s1.556-0.552,2.436-0.552c0.864,0,1.668,0.184,2.412,0.552
		c0.744,0.368,1.388,0.876,1.932,1.524c0.544,0.647,0.968,1.416,1.272,2.303C399.06,471.499,399.212,472.472,399.212,473.526z
		 M397.076,473.526c0-0.783-0.096-1.503-0.288-2.159c-0.192-0.655-0.464-1.22-0.816-1.692c-0.352-0.472-0.768-0.836-1.248-1.092
		s-1.008-0.384-1.584-0.384c-0.592,0-1.132,0.128-1.62,0.384c-0.488,0.256-0.904,0.62-1.248,1.092
		c-0.344,0.473-0.612,1.037-0.804,1.692c-0.192,0.656-0.288,1.376-0.288,2.159c0,0.801,0.096,1.525,0.288,2.173
		c0.192,0.647,0.459,1.204,0.804,1.668c0.344,0.464,0.76,0.824,1.248,1.08c0.488,0.256,1.028,0.384,1.62,0.384
		c0.576,0,1.104-0.128,1.584-0.384s0.896-0.616,1.248-1.08c0.352-0.464,0.624-1.021,0.816-1.668S397.076,474.327,397.076,473.526z"
		/>
	<path d="M405.236,470.287c-0.512,0-0.992-0.092-1.44-0.276c-0.448-0.184-0.84-0.432-1.176-0.744
		c-0.336-0.312-0.6-0.684-0.792-1.115c-0.192-0.432-0.288-0.889-0.288-1.368s0.096-0.937,0.288-1.368
		c0.192-0.432,0.456-0.805,0.792-1.115c0.336-0.312,0.728-0.561,1.176-0.744c0.448-0.185,0.928-0.276,1.44-0.276
		c0.512,0,0.992,0.092,1.44,0.276c0.448,0.184,0.84,0.432,1.176,0.744c0.336,0.311,0.6,0.684,0.792,1.115
		c0.192,0.432,0.288,0.889,0.288,1.368s-0.096,0.937-0.288,1.368c-0.192,0.432-0.456,0.804-0.792,1.115
		c-0.336,0.312-0.729,0.561-1.176,0.744C406.228,470.195,405.748,470.287,405.236,470.287z M402.356,479.767l6.72-8.088l6.432-8.279
		l1.032,0.888l-6.648,8.04l-6.528,8.352L402.356,479.767z M405.236,469.136c0.304,0,0.588-0.064,0.852-0.193
		c0.264-0.127,0.492-0.299,0.684-0.516c0.192-0.216,0.344-0.463,0.456-0.744c0.111-0.279,0.168-0.579,0.168-0.899
		c0-0.319-0.06-0.624-0.18-0.912s-0.276-0.54-0.468-0.756c-0.192-0.216-0.42-0.384-0.684-0.505c-0.264-0.119-0.54-0.18-0.828-0.18
		c-0.304,0-0.588,0.064-0.852,0.192s-0.492,0.3-0.684,0.517c-0.192,0.215-0.344,0.467-0.456,0.756
		c-0.112,0.287-0.168,0.584-0.168,0.888c0,0.32,0.056,0.624,0.168,0.912s0.268,0.54,0.468,0.756c0.2,0.216,0.432,0.384,0.696,0.504
		C404.672,469.075,404.948,469.136,405.236,469.136z M413.66,480.8c-0.512,0-0.992-0.093-1.44-0.277
		c-0.448-0.184-0.84-0.432-1.176-0.743s-0.6-0.685-0.792-1.116c-0.192-0.432-0.288-0.889-0.288-1.368s0.096-0.937,0.288-1.368
		c0.192-0.432,0.456-0.804,0.792-1.115c0.336-0.312,0.728-0.561,1.176-0.744c0.448-0.184,0.928-0.276,1.44-0.276
		s0.992,0.093,1.44,0.276s0.84,0.432,1.176,0.744c0.336,0.312,0.6,0.684,0.792,1.115s0.288,0.889,0.288,1.368
		s-0.096,0.937-0.288,1.368s-0.456,0.805-0.792,1.116s-0.729,0.56-1.176,0.743C414.652,480.707,414.172,480.8,413.66,480.8z
		 M413.66,479.647c0.304,0,0.588-0.064,0.852-0.192c0.264-0.128,0.492-0.3,0.684-0.517c0.192-0.215,0.344-0.463,0.456-0.743
		c0.112-0.28,0.168-0.58,0.168-0.9c0-0.319-0.06-0.624-0.18-0.911c-0.12-0.289-0.276-0.541-0.468-0.757s-0.42-0.384-0.684-0.504
		s-0.54-0.181-0.828-0.181c-0.304,0-0.588,0.064-0.852,0.193c-0.264,0.127-0.492,0.299-0.684,0.516
		c-0.192,0.216-0.344,0.468-0.456,0.756c-0.112,0.288-0.168,0.584-0.168,0.888c0,0.32,0.056,0.624,0.168,0.912
		c0.112,0.288,0.268,0.54,0.468,0.756c0.2,0.216,0.432,0.384,0.696,0.505C413.096,479.587,413.372,479.647,413.66,479.647z"/>
</g>
<rect x="536" y="146.892" style="fill:#E6E6E6;" width="100" height="100"/>
<rect x="536" y="146.892" style="fill:#FDFF4A;" width="33" height="100"/>
<rect x="536" y="343.892" style="fill:#E6E6E6;" width="100" height="100"/>
<rect x="536" y="343.892" style="fill:#FDFF4A;" width="54" height="100"/>
<g>
</g>
<g>
</g>
<g>
</g>
<g>
</g>
<g>
</g>
<g>
</g>
<g>
</g>
<g>
</g>
<g>
</g>
<g>
</g>
<g>
</g>
<g>
</g>
<g>
</g>
<g>
</g>
<g>
</g>
</svg>
